<svg xmlns="http://www.w3.org/2000/svg" viewBox="0 0 800 300" width="800" height="300">

  <rect width="800" height="300" fill="#0d1f2e"/>
  <rect x="0" y="210" width="800" height="90" fill="#0a1a24"/>

  <line x1="0" y1="60" x2="800" y2="60" stroke="#1a3248" stroke-width="1"/>
  <line x1="0" y1="120" x2="800" y2="120" stroke="#1a3248" stroke-width="1"/>
  <line x1="0" y1="180" x2="800" y2="180" stroke="#1a3248" stroke-width="1"/>
  <line x1="0" y1="240" x2="800" y2="240" stroke="#1a3248" stroke-width="1"/>

  <path d="M 440,180
           C 460,170 462,130 480,128
           C 498,126 500,155 518,148
           C 536,141 538,100 556,95
           C 574,90 576,140 594,145
           C 612,150 614,110 632,105
           C 650,100 652,130 670,125
           C 688,120 700,135 720,130"
    fill="none" stroke="#3db88a" stroke-width="2" stroke-linecap="round"/>

  <path d="M 440,160
           C 455,165 460,190 475,185
           C 490,180 495,150 510,158
           C 525,166 530,200 545,195
           C 560,190 565,165 580,170
           C 595,175 600,205 615,198
           C 630,191 635,160 650,165
           C 665,170 680,195 720,185"
    fill="none" stroke="#7ecfff" stroke-width="2" stroke-linecap="round" stroke-dasharray="6 3"/>

  <circle cx="518" cy="148" r="3.5" fill="#3db88a"/>
  <circle cx="556" cy="95" r="3.5" fill="#3db88a"/>
  <circle cx="594" cy="145" r="3.5" fill="#3db88a"/>
  <circle cx="632" cy="105" r="3.5" fill="#3db88a"/>
  <circle cx="670" cy="125" r="3.5" fill="#3db88a"/>

  <circle cx="510" cy="158" r="3.5" fill="#7ecfff"/>
  <circle cx="545" cy="195" r="3.5" fill="#7ecfff"/>
  <circle cx="580" cy="170" r="3.5" fill="#7ecfff"/>
  <circle cx="615" cy="198" r="3.5" fill="#7ecfff"/>
  <circle cx="650" cy="165" r="3.5" fill="#7ecfff"/>

  <rect x="440" y="220" width="12" height="12" rx="2" fill="#3db88a"/>
  <text x="458" y="231" font-family="'Helvetica Neue', Helvetica, Arial, sans-serif" font-size="13" fill="#5a8fb0">chain 1</text>
  <line x1="530" y1="226" x2="546" y2="226" stroke="#7ecfff" stroke-width="2" stroke-dasharray="4 2"/>
  <text x="552" y="231" font-family="'Helvetica Neue', Helvetica, Arial, sans-serif" font-size="13" fill="#5a8fb0">chain 2</text>

  <rect x="0" y="0" width="420" height="300" fill="#0d1f2e"/>

  <text x="48" y="148"
    font-family="'Helvetica Neue', Helvetica, Arial, sans-serif"
    font-size="88" font-weight="700" letter-spacing="-2"
    fill="#ffffff">PSTAT</text>

  <text x="48" y="232"
    font-family="'Helvetica Neue', Helvetica, Arial, sans-serif"
    font-size="88" font-weight="700" letter-spacing="-2"
    fill="#3db88a">160A</text>

  <text x="48" y="268"
    font-family="'Helvetica Neue', Helvetica, Arial, sans-serif"
    font-size="15" font-weight="400" letter-spacing="3"
    fill="#5a8fb0">STOCHASTIC PROCESSES</text>

  <line x1="420" y1="0" x2="420" y2="300" stroke="#1e3d58" stroke-width="1.5"/>

</svg>
