<svg xmlns="http://www.w3.org/2000/svg" viewBox="0 0 800 300" width="800" height="300">

  <rect width="800" height="300" fill="#0f2235"/>

  <rect x="0" y="0" width="800" height="300" fill="#0d1f30"/>
  <rect x="0" y="210" width="800" height="90" fill="#0a1a28"/>

  <line x1="0" y1="60" x2="800" y2="60" stroke="#1a3a55" stroke-width="1"/>
  <line x1="0" y1="120" x2="800" y2="120" stroke="#1a3a55" stroke-width="1"/>
  <line x1="0" y1="180" x2="800" y2="180" stroke="#1a3a55" stroke-width="1"/>
  <line x1="0" y1="240" x2="800" y2="240" stroke="#1a3a55" stroke-width="1"/>

  <rect x="480" y="145" width="38" height="65" rx="3" fill="#2a7fc1"/>
  <rect x="528" y="110" width="38" height="100" rx="3" fill="#3aa876"/>
  <rect x="576" y="128" width="38" height="82" rx="3" fill="#e8854a"/>
  <rect x="624" y="88" width="38" height="122" rx="3" fill="#9b6fd4"/>
  <rect x="672" y="100" width="38" height="110" rx="3" fill="#e05a7a"/>

  <polyline points="499,135 547,98 595,115 643,75 691,88"
    fill="none" stroke="#7ecfff" stroke-width="2.5" stroke-linejoin="round" stroke-linecap="round"/>

  <circle cx="499" cy="135" r="4" fill="#7ecfff"/>
  <circle cx="547" cy="98" r="4" fill="#7ecfff"/>
  <circle cx="595" cy="115" r="4" fill="#7ecfff"/>
  <circle cx="643" cy="75" r="4" fill="#7ecfff"/>
  <circle cx="691" cy="88" r="4" fill="#7ecfff"/>

  <rect x="0" y="0" width="420" height="300" fill="#0d1f30"/>

  <text x="48" y="148"
    font-family="'Helvetica Neue', Helvetica, Arial, sans-serif"
    font-size="92"
    font-weight="700"
    letter-spacing="-2"
    fill="#ffffff">PSTAT</text>

  <text x="48" y="228"
    font-family="'Helvetica Neue', Helvetica, Arial, sans-serif"
    font-size="92"
    font-weight="700"
    letter-spacing="-2"
    fill="#2a9fd6">100</text>

  <text x="48" y="268"
    font-family="'Helvetica Neue', Helvetica, Arial, sans-serif"
    font-size="15"
    font-weight="400"
    letter-spacing="3"
    fill="#5a8fb0">DATA SCIENCE CONCEPTS AND ANALYSIS</text>

  <line x1="420" y1="0" x2="420" y2="300" stroke="#1e3d58" stroke-width="1.5"/>

</svg>
