<?xml version="1.0" encoding="UTF-8" standalone="no"?>
<!-- Created with Inkscape (http://www.inkscape.org/) -->

<svg
   version="1.1"
   id="svg1"
   width="486.052"
   height="150.85468"
   viewBox="0 0 486.052 150.85468"
   sodipodi:docname="fig-my-figure-1.pdf"
   xmlns:inkscape="http://www.inkscape.org/namespaces/inkscape"
   xmlns:sodipodi="http://sodipodi.sourceforge.net/DTD/sodipodi-0.dtd"
   xmlns="http://www.w3.org/2000/svg"
   xmlns:svg="http://www.w3.org/2000/svg">
  <defs
     id="defs1" />
  <sodipodi:namedview
     id="namedview1"
     pagecolor="#ffffff"
     bordercolor="#000000"
     borderopacity="0.25"
     inkscape:showpageshadow="2"
     inkscape:pageopacity="0.0"
     inkscape:pagecheckerboard="0"
     inkscape:deskcolor="#d1d1d1">
    <inkscape:page
       x="0"
       y="0"
       inkscape:label="1"
       id="page1"
       width="486.052"
       height="150.85468"
       margin="0"
       bleed="0" />
  </sodipodi:namedview>
  <g
     id="g1"
     inkscape:groupmode="layer"
     inkscape:label="1">
    <path
       id="path1"
       d="M 15.4396,0 C 15.4396,8.52716 8.52716,15.4396 0,15.4396 -8.52716,15.4396 -15.4396,8.52716 -15.4396,0 c 0,-8.52716 6.91244,-15.4396 15.4396,-15.4396 8.52716,0 15.4396,6.91244 15.4396,15.4396 z"
       style="fill:none;stroke:#000000;stroke-width:0.3985;stroke-linecap:butt;stroke-linejoin:miter;stroke-miterlimit:10;stroke-dasharray:none;stroke-opacity:1"
       transform="matrix(1.3333333,0,0,-1.3333333,71.497333,20.852)" />
    <g
       id="g2"
       aria-label="S(1)"
       transform="matrix(1.3333333,0,0,1.3333333,58.556,24.172)">
      <path
         id="path2"
         d="m 6.4208906,-6.925875 c 0,-0.023437 -0.011719,-0.09375 -0.1054687,-0.09375 -0.046875,0 -0.058594,0.011719 -0.1757813,0.140625 L 5.6591719,-6.3047813 C 5.4013594,-6.7735313 4.8857344,-7.019625 4.2294844,-7.019625 c -1.265625,0 -2.4609375,1.1367187 -2.4609375,2.34375 0,0.8085937 0.5273437,1.265625 1.0429687,1.4179687 l 1.0664063,0.28125 c 0.3632812,0.082031 0.9140625,0.234375 0.9140625,1.0546875 0,0.890625 -0.8203125,1.82812505 -1.7929688,1.82812505 -0.6445312,0 -1.7460937,-0.2109375 -1.7460937,-1.45312505 0,-0.234375 0.046875,-0.4804687 0.058594,-0.5390625 0.011719,-0.035156 0.023437,-0.046875 0.023437,-0.070312 0,-0.09375 -0.070312,-0.1054687 -0.1171875,-0.1054687 -0.058594,0 -0.070312,0.011719 -0.1054687,0.035156 -0.035156,0.046875 -0.59765628,2.32031255 -0.59765628,2.34375005 0,0.0585938 0.046875,0.10546875 0.1171875,0.10546875 0.046875,0 0.0585938,-0.0117188 0.17578125,-0.15234375 L 1.2997969,-0.504 c 0.421875,0.5859375 1.1015625,0.7265625 1.6757812,0.7265625 1.359375,0 2.53125,-1.3242188 2.53125,-2.5664063 0,-0.6796875 -0.3398437,-1.0195312 -0.4921875,-1.1601562 -0.2226562,-0.234375 -0.375,-0.2695313 -1.265625,-0.5039063 C 3.5380781,-4.0665 3.1747969,-4.16025 3.0927656,-4.1836875 c -0.2695312,-0.09375 -0.609375,-0.375 -0.609375,-0.9023438 0,-0.8085937 0.796875,-1.6523437 1.734375,-1.6523437 0.8320313,0 1.4414063,0.421875 1.4414063,1.5351562 0,0.3164063 -0.046875,0.5039063 -0.046875,0.5625 0,0.011719 0,0.09375 0.1289062,0.09375 0.09375,0 0.1054688,-0.023437 0.140625,-0.1992187 z m 0,0"
         style="fill:#000000;fill-opacity:1;fill-rule:nonzero;stroke:none" />
      <path
         id="path3"
         d="m 9.9746016,2.3905312 c 0,-0.035156 0,-0.046875 -0.1640625,-0.2226562 -1.2421875,-1.25390625 -1.5703125,-3.12890625 -1.5703125,-4.6640625 0,-1.7226563 0.3867187,-3.4570313 1.6054687,-4.7109375 0.1289063,-0.1171875 0.1289063,-0.1289063 0.1289063,-0.1640625 0,-0.070312 -0.035156,-0.1054688 -0.09375,-0.1054688 -0.1054688,0 -0.9960938,0.6796875 -1.5820313,1.9453125 -0.515625,1.1015625 -0.6328125,2.203125 -0.6328125,3.0351563 0,0.7851562 0.1171875,1.9921875 0.65625,3.1171875 0.5976563,1.21875 1.453125,1.875 1.5585938,1.875 0.058594,0 0.09375,-0.035156 0.09375,-0.1054688 z m 3.5126954,-8.765625 c 0,-0.234375 0,-0.2578125 -0.234375,-0.2578125 -0.609375,0.6328125 -1.488281,0.6328125 -1.804688,0.6328125 v 0.3164063 c 0.199219,0 0.785157,0 1.300782,-0.2578125 v 5.15625 c 0,0.3515625 -0.03516,0.48046875 -0.925782,0.48046875 H 11.506828 V -9.375e-5 C 11.858391,-0.03525 12.713859,-0.03525 13.112297,-0.03525 c 0.398437,0 1.265625,0 1.617187,0.03515625 v -0.3046875 h -0.316406 c -0.902344,0 -0.925781,-0.1171875 -0.925781,-0.48046875 z m 4.933594,3.8789063 c 0,-0.7734375 -0.117188,-1.9804688 -0.65625,-3.1054688 -0.597657,-1.21875 -1.464844,-1.875 -1.558594,-1.875 -0.05859,0 -0.105469,0.046875 -0.105469,0.1054688 0,0.035156 0,0.046875 0.199219,0.234375 0.972656,0.984375 1.535156,2.5664062 1.535156,4.640625 0,1.7109375 -0.363281,3.45703125 -1.59375,4.7226562 -0.140625,0.1171875 -0.140625,0.1289063 -0.140625,0.1640625 0,0.058594 0.04687,0.1054688 0.105469,0.1054688 0.09375,0 0.996094,-0.6796875 1.582031,-1.9453125 0.503906,-1.1015625 0.632813,-2.203125 0.632813,-3.046875 z m 0,0"
         style="fill:#000000;fill-opacity:1;fill-rule:nonzero;stroke:none" />
    </g>
    <path
       id="path4"
       d="m 131.7578,0 c 0,8.52716 -6.91245,15.4396 -15.43961,15.4396 -8.52717,0 -15.43962,-6.91244 -15.43962,-15.4396 0,-8.52716 6.91245,-15.4396 15.43962,-15.4396 8.52716,0 15.43961,6.91244 15.43961,15.4396 z"
       style="fill:none;stroke:#000000;stroke-width:0.3985;stroke-linecap:butt;stroke-linejoin:miter;stroke-miterlimit:10;stroke-dasharray:none;stroke-opacity:1"
       transform="matrix(1.3333333,0,0,-1.3333333,71.497333,20.852)" />
    <g
       id="g4"
       aria-label="S(2)"
       transform="matrix(1.3333333,0,0,1.3333333,213.64533,24.172)">
      <path
         id="path5"
         d="m 6.4212734,-6.925875 c 0,-0.023437 -0.011719,-0.09375 -0.1054687,-0.09375 -0.046875,0 -0.058594,0.011719 -0.1757813,0.140625 L 5.6595547,-6.3047813 C 5.4017422,-6.7735313 4.8861172,-7.019625 4.2298672,-7.019625 c -1.265625,0 -2.4609375,1.1367187 -2.4609375,2.34375 0,0.8085937 0.5273437,1.265625 1.0429687,1.4179687 l 1.0664063,0.28125 c 0.3632812,0.082031 0.9140625,0.234375 0.9140625,1.0546875 0,0.890625 -0.8203125,1.82812505 -1.7929688,1.82812505 -0.6445312,0 -1.7460937,-0.2109375 -1.7460937,-1.45312505 0,-0.234375 0.046875,-0.4804687 0.058594,-0.5390625 0.011719,-0.035156 0.023437,-0.046875 0.023437,-0.070312 0,-0.09375 -0.070312,-0.1054687 -0.1171875,-0.1054687 -0.058594,0 -0.070312,0.011719 -0.1054687,0.035156 -0.035156,0.046875 -0.59765626,2.32031255 -0.59765626,2.34375005 0,0.0585938 0.046875,0.10546875 0.1171875,0.10546875 0.046875,0 0.0585938,-0.0117188 0.17578125,-0.15234375 L 1.3001797,-0.504 c 0.421875,0.5859375 1.1015625,0.7265625 1.6757812,0.7265625 1.359375,0 2.53125,-1.3242188 2.53125,-2.5664063 0,-0.6796875 -0.3398437,-1.0195312 -0.4921875,-1.1601562 -0.2226562,-0.234375 -0.375,-0.2695313 -1.265625,-0.5039063 C 3.5384609,-4.0665 3.1751797,-4.16025 3.0931484,-4.1836875 c -0.2695312,-0.09375 -0.609375,-0.375 -0.609375,-0.9023438 0,-0.8085937 0.796875,-1.6523437 1.734375,-1.6523437 0.8320313,0 1.4414063,0.421875 1.4414063,1.5351562 0,0.3164063 -0.046875,0.5039063 -0.046875,0.5625 0,0.011719 0,0.09375 0.1289062,0.09375 0.09375,0 0.1054688,-0.023437 0.140625,-0.1992187 z m 0,0"
         style="fill:#000000;fill-opacity:1;fill-rule:nonzero;stroke:none" />
      <path
         id="path6"
         d="m 9.9749844,2.3905312 c 0,-0.035156 0,-0.046875 -0.1640625,-0.2226562 -1.2421875,-1.25390625 -1.5703125,-3.12890625 -1.5703125,-4.6640625 0,-1.7226563 0.3867187,-3.4570313 1.6054687,-4.7109375 0.1289063,-0.1171875 0.1289063,-0.1289063 0.1289063,-0.1640625 0,-0.070312 -0.035156,-0.1054688 -0.09375,-0.1054688 -0.1054688,0 -0.9960938,0.6796875 -1.5820313,1.9453125 -0.515625,1.1015625 -0.6328125,2.203125 -0.6328125,3.0351563 0,0.7851562 0.1171875,1.9921875 0.65625,3.1171875 0.5976563,1.21875 1.453125,1.875 1.5585938,1.875 0.058594,0 0.09375,-0.035156 0.09375,-0.1054688 z m 1.8486326,-3.1523437 1.054688,-1.03125 c 1.558593,-1.3710938 2.15625,-1.9101563 2.15625,-2.90625 0,-1.1367188 -0.902344,-1.9335938 -2.121094,-1.9335938 -1.125,0 -1.851563,0.9140625 -1.851563,1.8046875 0,0.5507813 0.492188,0.5507813 0.527344,0.5507813 0.164063,0 0.515625,-0.1171875 0.515625,-0.5273438 0,-0.2578125 -0.1875,-0.515625 -0.527344,-0.515625 -0.08203,0 -0.105468,0 -0.128906,0.011719 0.222656,-0.6445313 0.761719,-1.0195313 1.335938,-1.0195313 0.914062,0 1.335937,0.8085938 1.335937,1.6289063 0,0.796875 -0.492187,1.5820312 -1.042969,2.203125 l -1.910156,2.1328125 c -0.105469,0.10546875 -0.105469,0.12890625 -0.105469,0.36328125 h 3.691407 l 0.28125,-1.73437505 h -0.257813 c -0.04687,0.3046875 -0.117187,0.7382813 -0.210937,0.89062505 -0.07031,0.0820313 -0.726563,0.0820313 -0.949219,0.0820313 z m 6.597656,-1.734375 c 0,-0.7734375 -0.117187,-1.9804688 -0.65625,-3.1054688 -0.597656,-1.21875 -1.464843,-1.875 -1.558593,-1.875 -0.05859,0 -0.105469,0.046875 -0.105469,0.1054688 0,0.035156 0,0.046875 0.199219,0.234375 0.972656,0.984375 1.535156,2.5664062 1.535156,4.640625 0,1.7109375 -0.363281,3.45703125 -1.59375,4.7226562 -0.140625,0.1171875 -0.140625,0.1289063 -0.140625,0.1640625 0,0.058594 0.04687,0.1054688 0.105469,0.1054688 0.09375,0 0.996093,-0.6796875 1.582031,-1.9453125 0.503906,-1.1015625 0.632812,-2.203125 0.632812,-3.046875 z m 0,0"
         style="fill:#000000;fill-opacity:1;fill-rule:nonzero;stroke:none" />
    </g>
    <path
       id="path7"
       d="m 248.076,0 c 0,8.52716 -6.91244,15.4396 -15.43962,15.4396 -8.52718,0 -15.43962,-6.91244 -15.43962,-15.4396 0,-8.52716 6.91244,-15.4396 15.43962,-15.4396 8.52718,0 15.43962,6.91244 15.43962,15.4396 z"
       style="fill:none;stroke:#000000;stroke-width:0.3985;stroke-linecap:butt;stroke-linejoin:miter;stroke-miterlimit:10;stroke-dasharray:none;stroke-opacity:1"
       transform="matrix(1.3333333,0,0,-1.3333333,71.497333,20.852)" />
    <g
       id="g7"
       aria-label="S(3)"
       transform="matrix(1.3333333,0,0,1.3333333,368.73333,24.172)">
      <path
         id="path8"
         d="m 6.4226562,-6.925875 c 0,-0.023437 -0.011719,-0.09375 -0.1054687,-0.09375 -0.046875,0 -0.058594,0.011719 -0.1757813,0.140625 L 5.6609375,-6.3047813 C 5.403125,-6.7735313 4.8875,-7.019625 4.23125,-7.019625 c -1.265625,0 -2.4609375,1.1367187 -2.4609375,2.34375 0,0.8085937 0.5273437,1.265625 1.0429687,1.4179687 l 1.0664063,0.28125 c 0.3632812,0.082031 0.9140625,0.234375 0.9140625,1.0546875 0,0.890625 -0.8203125,1.82812505 -1.7929688,1.82812505 -0.6445312,0 -1.7460937,-0.2109375 -1.7460937,-1.45312505 0,-0.234375 0.046875,-0.4804687 0.058594,-0.5390625 0.011719,-0.035156 0.023437,-0.046875 0.023437,-0.070312 0,-0.09375 -0.070312,-0.1054687 -0.1171875,-0.1054687 -0.058594,0 -0.070312,0.011719 -0.1054687,0.035156 -0.035156,0.046875 -0.59765625,2.32031255 -0.59765625,2.34375005 0,0.0585938 0.046875,0.10546875 0.1171875,0.10546875 0.046875,0 0.0585938,-0.0117188 0.17578125,-0.15234375 L 1.3015625,-0.504 c 0.421875,0.5859375 1.1015625,0.7265625 1.6757812,0.7265625 1.359375,0 2.53125,-1.3242188 2.53125,-2.5664063 C 5.5085937,-3.0235313 5.16875,-3.363375 5.0164062,-3.504 4.79375,-3.738375 4.6414062,-3.7735313 3.7507812,-4.0079063 3.5398437,-4.0665 3.1765625,-4.16025 3.0945312,-4.1836875 c -0.2695312,-0.09375 -0.609375,-0.375 -0.609375,-0.9023438 0,-0.8085937 0.796875,-1.6523437 1.734375,-1.6523437 0.8320313,0 1.4414063,0.421875 1.4414063,1.5351562 0,0.3164063 -0.046875,0.5039063 -0.046875,0.5625 0,0.011719 0,0.09375 0.1289062,0.09375 0.09375,0 0.1054688,-0.023437 0.140625,-0.1992187 z m 0,0"
         style="fill:#000000;fill-opacity:1;fill-rule:nonzero;stroke:none" />
      <path
         id="path9"
         d="m 9.9763672,2.3905312 c 0,-0.035156 0,-0.046875 -0.1640625,-0.2226562 -1.2421875,-1.25390625 -1.5703125,-3.12890625 -1.5703125,-4.6640625 0,-1.7226563 0.3867187,-3.4570313 1.6054687,-4.7109375 0.1289063,-0.1171875 0.1289063,-0.1289063 0.1289063,-0.1640625 0,-0.070312 -0.035156,-0.1054688 -0.09375,-0.1054688 -0.1054688,0 -0.9960938,0.6796875 -1.5820313,1.9453125 -0.515625,1.1015625 -0.6328125,2.203125 -0.6328125,3.0351563 0,0.7851562 0.1171875,1.9921875 0.65625,3.1171875 0.5976563,1.21875 1.453125,1.875 1.5585938,1.875 0.058594,0 0.09375,-0.035156 0.09375,-0.1054688 z M 13.450977,-3.504 c 0.808593,-0.2695313 1.394531,-0.9726563 1.394531,-1.7578125 0,-0.8203125 -0.878906,-1.3710938 -1.839844,-1.3710938 -1.007812,0 -1.757812,0.5976563 -1.757812,1.3476563 0,0.3398437 0.210937,0.5273437 0.503906,0.5273437 0.304687,0 0.503906,-0.2226562 0.503906,-0.515625 0,-0.4921875 -0.46875,-0.4921875 -0.609375,-0.4921875 0.304688,-0.4921875 0.960938,-0.6210937 1.324219,-0.6210937 0.410156,0 0.949219,0.2226562 0.949219,1.1132812 0,0.1289063 -0.01172,0.703125 -0.269532,1.1367188 -0.304687,0.4804687 -0.644531,0.515625 -0.890625,0.515625 -0.08203,0.011719 -0.316406,0.035156 -0.386718,0.035156 -0.08203,0.011719 -0.152344,0.023437 -0.152344,0.1171875 0,0.1171875 0.07031,0.1171875 0.234375,0.1171875 h 0.445312 c 0.808594,0 1.183594,0.6679688 1.183594,1.6523438 0,1.34765625 -0.691406,1.640625 -1.125,1.640625 -0.433594,0 -1.171875,-0.17578125 -1.523437,-0.76171875 0.351562,0.0585938 0.65625,-0.1640625 0.65625,-0.53906255 0,-0.3632812 -0.269532,-0.5625 -0.5625,-0.5625 -0.234375,0 -0.550782,0.140625 -0.550782,0.5742188 0,0.9140625 0.925782,1.5703125 2.003907,1.5703125 1.21875,0 2.121093,-0.9140625 2.121093,-1.921875 0,-0.8203125 -0.621093,-1.59375 -1.652343,-1.8046873 z m 4.971679,1.0078125 c 0,-0.7734375 -0.117187,-1.9804688 -0.65625,-3.1054688 -0.597656,-1.21875 -1.464844,-1.875 -1.558594,-1.875 -0.05859,0 -0.105468,0.046875 -0.105468,0.1054688 0,0.035156 0,0.046875 0.199218,0.234375 0.972657,0.984375 1.535157,2.5664062 1.535157,4.640625 0,1.7109375 -0.363282,3.45703125 -1.59375,4.7226562 -0.140625,0.1171875 -0.140625,0.1289063 -0.140625,0.1640625 0,0.058594 0.04687,0.1054688 0.105468,0.1054688 0.09375,0 0.996094,-0.6796875 1.582032,-1.9453125 0.503906,-1.1015625 0.632812,-2.203125 0.632812,-3.046875 z m 0,0"
         style="fill:#000000;fill-opacity:1;fill-rule:nonzero;stroke:none" />
    </g>
    <path
       id="path10"
       d="m 1.9107031,-2.4975078 c 0,-0.28125 -0.234375,-0.5273438 -0.5273437,-0.5273438 -0.28125,0 -0.52734377,0.2460938 -0.52734377,0.5273438 0,0.2929687 0.24609377,0.5390625 0.52734377,0.5390625 0.2929687,0 0.5273437,-0.2460938 0.5273437,-0.5390625 z m 4.4296875,0 c 0,-0.28125 -0.234375,-0.5273438 -0.5273437,-0.5273438 -0.28125,0 -0.5273438,0.2460938 -0.5273438,0.5273438 0,0.2929687 0.2460938,0.5390625 0.5273438,0.5390625 0.2929687,0 0.5273437,-0.2460938 0.5273437,-0.5390625 z m 4.4238284,0 c 0,-0.28125 -0.234375,-0.5273438 -0.527344,-0.5273438 -0.28125,0 -0.5273437,0.2460938 -0.5273437,0.5273438 0,0.2929687 0.2460937,0.5390625 0.5273437,0.5390625 0.292969,0 0.527344,-0.2460938 0.527344,-0.5390625 z m 0,0"
       style="fill:#000000;fill-opacity:1;fill-rule:nonzero;stroke:none"
       aria-label="···"
       transform="matrix(1.3333333,0,0,1.3333333,463.91333,23.802667)" />
    <path
       id="path11"
       d="m 1.9115547,-2.496125 c 0,-0.28125 -0.234375,-0.5273438 -0.5273438,-0.5273438 -0.28125,0 -0.52734371,0.2460938 -0.52734371,0.5273438 0,0.2929687 0.24609371,0.5390625 0.52734371,0.5390625 0.2929688,0 0.5273438,-0.2460938 0.5273438,-0.5390625 z m 4.4296875,0 c 0,-0.28125 -0.234375,-0.5273438 -0.5273438,-0.5273438 -0.28125,0 -0.5273437,0.2460938 -0.5273437,0.5273438 0,0.2929687 0.2460937,0.5390625 0.5273437,0.5390625 0.2929688,0 0.5273438,-0.2460938 0.5273438,-0.5390625 z m 4.4208988,0 c 0,-0.28125 -0.234375,-0.5273438 -0.527344,-0.5273438 -0.2812501,0 -0.5273439,0.2460938 -0.5273439,0.5273438 0,0.2929687 0.2460938,0.5390625 0.5273439,0.5390625 0.292969,0 0.527344,-0.2460938 0.527344,-0.5390625 z m 0,0"
       style="fill:#000000;fill-opacity:1;fill-rule:nonzero;stroke:none"
       aria-label="···"
       transform="matrix(1.3333333,0,0,1.3333333,62.642667,127.89067)" />
    <path
       id="path12"
       d="m -17.44754,-78.06625 c 0,9.93499 -8.0537,17.98867 -17.98869,17.98867 -9.935,0 -17.98868,-8.05368 -17.98868,-17.98867 0,-9.935 8.05368,-17.9887 17.98868,-17.9887 9.93499,0 17.98869,8.0537 17.98869,17.9887 z"
       style="fill:none;stroke:#000000;stroke-width:0.3985;stroke-linecap:butt;stroke-linejoin:miter;stroke-miterlimit:10;stroke-dasharray:none;stroke-opacity:1"
       transform="matrix(1.3333333,0,0,-1.3333333,71.497333,20.852)" />
    <g
       id="g12"
       aria-label="P&#10;1&#10;(1)"
       transform="matrix(1.3333333,0,0,1.3333333,7.5973333,128.684)">
      <path
         id="path13"
         d="m 3.0236797,-3.1526484 h 1.6875 c 1.4179687,0 2.8007812,-1.03125 2.8007812,-2.1445313 0,-0.7734375 -0.65625,-1.5117187 -1.96875,-1.5117187 H 2.3205547 c -0.1875,0 -0.2929688,0 -0.2929688,0.1992187 0,0.1171875 0.082031,0.1171875 0.28125,0.1171875 0.1289063,0 0.3164063,0.011719 0.4335938,0.011719 0.1523437,0.023437 0.2109375,0.058594 0.2109375,0.1640625 0,0.035156 0,0.070312 -0.035156,0.1875 l -1.3359375,5.35546871 c -0.09375,0.38671875 -0.1171875,0.46875 -0.90234371,0.46875 -0.17578125,0 -0.28125,0 -0.28125,0.1875 0,0.1171875025 0.1171875,0.1171875025 0.15234375,0.1171875025 0.28125,0 0.98437496,-0.0351562525 1.26562496,-0.0351562525 0.2109375,0 0.421875,0.01171875 0.6328125,0.01171875 0.2226563,0 0.4453125,0.0234375025 0.6445313,0.0234375025 0.070312,0 0.1992187,0 0.1992187,-0.1992187525 0,-0.10546875 -0.082031,-0.10546875 -0.2695312,-0.10546875 -0.375,0 -0.65625,0 -0.65625,-0.1875 0,-0.0585938 0.023437,-0.10546875 0.035156,-0.1640625 z m 0.7148437,-2.9648438 c 0.082031,-0.3515625 0.1054688,-0.375 0.5390625,-0.375 h 0.9492188 c 0.8320312,0 1.359375,0.2695313 1.359375,0.9492188 0,0.3984375 -0.1992188,1.2539062 -0.5859375,1.6054687 -0.5039063,0.4453125 -1.1015625,0.5273438 -1.5351563,0.5273438 h -1.40625 z m 0,0"
         style="fill:#000000;fill-opacity:1;fill-rule:nonzero;stroke:none" />
      <path
         id="path14"
         d="m 10.110594,-8.0452266 c 0,-0.1875 -0.01172,-0.1992187 -0.2109377,-0.1992187 -0.4453125,0.4335937 -1.078125,0.4453125 -1.359375,0.4453125 v 0.2460937 c 0.1640625,0 0.6210937,0 1.0078125,-0.1875 v 3.5507813 c 0,0.234375 0,0.328125 -0.6914063,0.328125 H 8.5871563 v 0.2460937 c 0.1289062,-0.011719 0.984375,-0.023437 1.2421875,-0.023437 0.2109372,0 1.0898442,0.011719 1.2421872,0.023437 v -0.2460937 h -0.257812 c -0.703125,0 -0.703125,-0.09375 -0.703125,-0.328125 z m 0,0"
         style="fill:#000000;fill-opacity:1;fill-rule:nonzero;stroke:none" />
      <path
         id="path15"
         d="m 15.542234,2.3903203 c 0,-0.035156 0,-0.046875 -0.164062,-0.2226562 -1.242188,-1.25390629 -1.570313,-3.12890629 -1.570313,-4.6640625 0,-1.7226563 0.386719,-3.4570313 1.605469,-4.7109375 0.128906,-0.1171875 0.128906,-0.1289063 0.128906,-0.1640625 0,-0.070312 -0.03516,-0.1054688 -0.09375,-0.1054688 -0.105468,0 -0.996093,0.6796875 -1.582031,1.9453125 -0.515625,1.1015625 -0.632812,2.203125 -0.632812,3.0351563 0,0.7851562 0.117187,1.99218746 0.65625,3.11718746 0.597656,1.21875004 1.453125,1.87500004 1.558593,1.87500004 0.05859,0 0.09375,-0.035156 0.09375,-0.1054688 z M 19.052,-6.3753047 c 0,-0.234375 0,-0.2578125 -0.234375,-0.2578125 -0.609375,0.6328125 -1.488281,0.6328125 -1.804687,0.6328125 v 0.3164063 c 0.199218,0 0.785156,0 1.300781,-0.2578125 v 5.15624996 c 0,0.3515625 -0.03516,0.48046875 -0.925781,0.48046875 H 17.071531 V -3.046875e-4 C 17.423094,-0.03546094 18.278563,-0.03546094 18.677,-0.03546094 c 0.398438,0 1.265625,0 1.617188,0.0351562525 V -0.30499219 h -0.316407 c -0.902343,0 -0.925781,-0.1171875 -0.925781,-0.48046875 z m 4.936523,3.8789063 c 0,-0.7734375 -0.117187,-1.9804688 -0.65625,-3.1054688 -0.597656,-1.21875 -1.464843,-1.875 -1.558593,-1.875 -0.05859,0 -0.105469,0.046875 -0.105469,0.1054688 0,0.035156 0,0.046875 0.199219,0.234375 0.972656,0.984375 1.535156,2.5664062 1.535156,4.640625 0,1.71093746 -0.363281,3.45703121 -1.59375,4.7226562 -0.140625,0.1171875 -0.140625,0.1289063 -0.140625,0.1640625 0,0.058594 0.04687,0.1054688 0.105469,0.1054688 0.09375,0 0.996093,-0.6796875 1.582031,-1.94531254 0.503906,-1.1015625 0.632812,-2.20312496 0.632812,-3.04687496 z m 0,0"
         style="fill:#000000;fill-opacity:1;fill-rule:nonzero;stroke:none" />
    </g>
    <path
       id="path16"
       d="m 55.92387,-78.06625 c 0,10.62507 -8.61308,19.23815 -19.23816,19.23815 -10.62507,0 -19.23817,-8.61308 -19.23817,-19.23815 0,-10.62508 8.6131,-19.23816 19.23817,-19.23816 10.62508,0 19.23816,8.61308 19.23816,19.23816 z"
       style="fill:none;stroke:#000000;stroke-width:0.3985;stroke-linecap:butt;stroke-linejoin:miter;stroke-miterlimit:10;stroke-dasharray:none;stroke-opacity:1"
       transform="matrix(1.3333333,0,0,-1.3333333,71.497333,20.852)" />
    <g
       id="g16"
       aria-label="P&#10;m&#10;(1)"
       transform="matrix(1.3333333,0,0,1.3333333,101.69333,128.25867)">
      <path
         id="path17"
         d="m 3.0219922,-3.1529844 h 1.6875 c 1.4179687,0 2.8007812,-1.03125 2.8007812,-2.1445312 0,-0.7734375 -0.65625,-1.5117188 -1.96875,-1.5117188 H 2.3188672 c -0.1875,0 -0.2929688,0 -0.2929688,0.1992188 0,0.1171875 0.082031,0.1171875 0.28125,0.1171875 0.1289063,0 0.3164063,0.011719 0.4335938,0.011719 0.1523437,0.023437 0.2109375,0.058594 0.2109375,0.1640625 0,0.035156 0,0.070312 -0.035156,0.1875 l -1.3359375,5.35546877 c -0.09375,0.38671875 -0.1171875,0.46875 -0.90234371,0.46875 -0.17578125,0 -0.28125,0 -0.28125,0.1875 0,0.117187505 0.1171875,0.117187505 0.15234375,0.117187505 0.28125,0 0.98437496,-0.035156255 1.26562496,-0.035156255 0.2109375,0 0.421875,0.01171875 0.6328125,0.01171875 0.2226563,0 0.4453125,0.023437505 0.6445313,0.023437505 0.070312,0 0.1992187,0 0.1992187,-0.199218755 0,-0.10546875 -0.082031,-0.10546875 -0.2695312,-0.10546875 -0.375,0 -0.65625,0 -0.65625,-0.1875 0,-0.0585938 0.023437,-0.10546875 0.035156,-0.1640625 z m 0.7148437,-2.9648437 c 0.082031,-0.3515625 0.1054688,-0.375 0.5390625,-0.375 h 0.9492188 c 0.8320312,0 1.359375,0.2695312 1.359375,0.9492187 0,0.3984375 -0.1992188,1.2539063 -0.5859375,1.6054688 -0.5039063,0.4453125 -1.1015625,0.5273437 -1.5351563,0.5273437 h -1.40625 z m 0,0"
         style="fill:#000000;fill-opacity:1;fill-rule:nonzero;stroke:none" />
      <path
         id="path18"
         d="m 10.803242,-4.178375 c -0.03516,0.140625 -0.09375,0.375 -0.09375,0.4101562 0,0.1523438 0.128906,0.2226563 0.234375,0.2226563 0.128906,0 0.234375,-0.09375 0.269531,-0.1523438 0.03516,-0.058594 0.09375,-0.2929687 0.128907,-0.4335937 0.03516,-0.1289063 0.117187,-0.4570313 0.152343,-0.6328125 0.04687,-0.1523438 0.08203,-0.3046875 0.117188,-0.4570313 0.08203,-0.3046875 0.08203,-0.3164062 0.222656,-0.5390625 0.222656,-0.3398437 0.5625,-0.7382812 1.113281,-0.7382812 0.386719,0 0.410157,0.328125 0.410157,0.4921875 0,0.421875 -0.304688,1.1953125 -0.410157,1.4882812 -0.08203,0.1875 -0.105468,0.2578125 -0.105468,0.375 0,0.3632813 0.304687,0.5976563 0.65625,0.5976563 0.703125,0 1.007812,-0.9609375 1.007812,-1.0664063 0,-0.09375 -0.09375,-0.09375 -0.105469,-0.09375 -0.105468,0 -0.105468,0.046875 -0.140625,0.1171875 -0.152343,0.5625 -0.457031,0.84375 -0.738281,0.84375 -0.140625,0 -0.175781,-0.09375 -0.175781,-0.2460937 0,-0.1523438 0.03516,-0.2460938 0.164062,-0.5625 0.08203,-0.2109375 0.375,-0.9492188 0.375,-1.3476563 0,-0.1054687 0,-0.3984375 -0.257812,-0.5976562 -0.128906,-0.09375 -0.328125,-0.1875 -0.65625,-0.1875 -0.621094,0 -1.007813,0.4101562 -1.230469,0.703125 -0.05859,-0.5976563 -0.550781,-0.703125 -0.902344,-0.703125 -0.585937,0 -0.9726558,0.3515625 -1.1835933,0.6328125 -0.046875,-0.4804688 -0.4570313,-0.6328125 -0.75,-0.6328125 -0.2929688,0 -0.4570313,0.2109375 -0.5507813,0.375 -0.1523437,0.2578125 -0.2460937,0.65625 -0.2460937,0.6914062 0,0.082031 0.09375,0.082031 0.1171875,0.082031 0.09375,0 0.1054687,-0.011719 0.1523437,-0.1992188 0.1054688,-0.421875 0.234375,-0.7617187 0.515625,-0.7617187 0.1757813,0 0.2226563,0.1523437 0.2226563,0.3398437 0,0.140625 -0.058594,0.3984375 -0.1054688,0.5859375 -0.046875,0.1875 -0.1171875,0.46875 -0.1523437,0.6210938 l -0.2226563,0.9023437 c -0.035156,0.082031 -0.070312,0.2578125 -0.070312,0.28125 0,0.1523438 0.1171875,0.2226563 0.234375,0.2226563 0.1289063,0 0.234375,-0.09375 0.2695313,-0.1523438 0.035156,-0.058594 0.09375,-0.2929687 0.1289062,-0.4335937 0.035156,-0.1289063 0.1054688,-0.4570313 0.1523438,-0.6328125 0.035156,-0.1523438 0.082031,-0.3046875 0.1171875,-0.4570313 0.082031,-0.2929687 0.09375,-0.3515625 0.2929687,-0.6328125 0.1992188,-0.28125 0.5273441,-0.6445312 1.0429691,-0.6445312 0.410156,0 0.410156,0.3632812 0.410156,0.4921875 0,0.1757812 -0.01172,0.2695312 -0.117187,0.65625 z m 0,0"
         style="fill:#000000;fill-opacity:1;fill-rule:nonzero;stroke:none" />
      <path
         id="path19"
         d="m 18.640156,2.3899844 c 0,-0.035156 0,-0.046875 -0.164062,-0.2226563 -1.242188,-1.25390623 -1.570313,-3.12890623 -1.570313,-4.6640625 0,-1.7226562 0.386719,-3.4570312 1.605469,-4.7109375 0.128906,-0.1171875 0.128906,-0.1289062 0.128906,-0.1640625 0,-0.070312 -0.03516,-0.1054687 -0.09375,-0.1054687 -0.105468,0 -0.996093,0.6796875 -1.582031,1.9453125 -0.515625,1.1015625 -0.632812,2.203125 -0.632812,3.0351562 0,0.7851563 0.117187,1.99218752 0.65625,3.11718752 0.597656,1.21874998 1.453125,1.87499998 1.558593,1.87499998 0.05859,0 0.09375,-0.035156 0.09375,-0.1054687 z m 3.509766,-8.765625 c 0,-0.234375 0,-0.2578125 -0.234375,-0.2578125 -0.609375,0.6328125 -1.488281,0.6328125 -1.804688,0.6328125 v 0.3164062 c 0.199219,0 0.785157,0 1.300782,-0.2578125 v 5.15625002 c 0,0.3515625 -0.03516,0.48046875 -0.925782,0.48046875 h -0.316406 v 0.304687505 c 0.351563,-0.035156255 1.207031,-0.035156255 1.605469,-0.035156255 0.398437,0 1.265625,0 1.617187,0.035156255 V -0.30532813 h -0.316406 c -0.902344,0 -0.925781,-0.1171875 -0.925781,-0.48046875 z m 4.936523,3.8789062 c 0,-0.7734375 -0.117187,-1.9804687 -0.65625,-3.1054687 -0.597656,-1.21875 -1.464843,-1.875 -1.558593,-1.875 -0.05859,0 -0.105469,0.046875 -0.105469,0.1054687 0,0.035156 0,0.046875 0.199219,0.234375 0.972656,0.984375 1.535156,2.5664063 1.535156,4.640625 0,1.71093752 -0.363281,3.45703127 -1.59375,4.7226563 -0.140625,0.1171875 -0.140625,0.1289062 -0.140625,0.1640625 0,0.058594 0.04687,0.1054687 0.105469,0.1054687 0.09375,0 0.996093,-0.6796875 1.582031,-1.94531248 0.503906,-1.1015625 0.632812,-2.20312502 0.632812,-3.04687502 z m 0,0"
         style="fill:#000000;fill-opacity:1;fill-rule:nonzero;stroke:none" />
    </g>
    <path
       id="path20"
       d="m 1.9100078,-2.496125 c 0,-0.28125 -0.234375,-0.5273438 -0.5273437,-0.5273438 -0.28125,0 -0.52734379,0.2460938 -0.52734379,0.5273438 0,0.2929687 0.24609379,0.5390625 0.52734379,0.5390625 0.2929687,0 0.5273437,-0.2460938 0.5273437,-0.5390625 z m 4.4326172,0 c 0,-0.28125 -0.234375,-0.5273438 -0.5273437,-0.5273438 -0.28125,0 -0.5273438,0.2460938 -0.5273438,0.5273438 0,0.2929687 0.2460938,0.5390625 0.5273438,0.5390625 0.2929687,0 0.5273437,-0.2460938 0.5273437,-0.5390625 z m 4.420898,0 c 0,-0.28125 -0.234375,-0.5273438 -0.527343,-0.5273438 -0.2812503,0 -0.5273441,0.2460938 -0.5273441,0.5273438 0,0.2929687 0.2460938,0.5390625 0.5273441,0.5390625 0.292968,0 0.527343,-0.2460938 0.527343,-0.5390625 z m 0,0"
       style="fill:#000000;fill-opacity:1;fill-rule:nonzero;stroke:none"
       aria-label="···"
       transform="matrix(1.3333333,0,0,1.3333333,217.73067,127.89067)" />
    <path
       id="path21"
       d="m 98.87064,-78.06625 c 0,9.93499 -8.0537,17.98867 -17.98868,17.98867 -9.935,0 -17.9887,-8.05368 -17.9887,-17.98867 0,-9.935 8.0537,-17.9887 17.9887,-17.9887 9.93498,0 17.98868,8.0537 17.98868,17.9887 z"
       style="fill:none;stroke:#000000;stroke-width:0.3985;stroke-linecap:butt;stroke-linejoin:miter;stroke-miterlimit:10;stroke-dasharray:none;stroke-opacity:1"
       transform="matrix(1.3333333,0,0,-1.3333333,71.497333,20.852)" />
    <g
       id="g21"
       aria-label="P&#10;1&#10;(2)"
       transform="matrix(1.3333333,0,0,1.3333333,162.68667,128.684)">
      <path
         id="path22"
         d="m 3.0240625,-3.1526484 h 1.6875 c 1.4179687,0 2.8007812,-1.03125 2.8007812,-2.1445313 0,-0.7734375 -0.65625,-1.5117187 -1.96875,-1.5117187 H 2.3209375 c -0.1875,0 -0.2929688,0 -0.2929688,0.1992187 0,0.1171875 0.082031,0.1171875 0.28125,0.1171875 0.1289063,0 0.3164063,0.011719 0.4335938,0.011719 0.1523437,0.023437 0.2109375,0.058594 0.2109375,0.1640625 0,0.035156 0,0.070312 -0.035156,0.1875 l -1.3359375,5.35546871 c -0.09375,0.38671875 -0.1171875,0.46875 -0.9023437,0.46875 -0.17578125,0 -0.28125,0 -0.28125,0.1875 0,0.1171875025 0.1171875,0.1171875025 0.15234375,0.1171875025 0.28125,0 0.98437495,-0.0351562525 1.26562495,-0.0351562525 0.2109375,0 0.421875,0.01171875 0.6328125,0.01171875 0.2226563,0 0.4453125,0.0234375025 0.6445313,0.0234375025 0.070312,0 0.1992187,0 0.1992187,-0.1992187525 0,-0.10546875 -0.082031,-0.10546875 -0.2695312,-0.10546875 -0.375,0 -0.65625,0 -0.65625,-0.1875 0,-0.0585938 0.023437,-0.10546875 0.035156,-0.1640625 z m 0.7148437,-2.9648438 c 0.082031,-0.3515625 0.1054688,-0.375 0.5390625,-0.375 h 0.9492188 c 0.8320312,0 1.359375,0.2695313 1.359375,0.9492188 0,0.3984375 -0.1992188,1.2539062 -0.5859375,1.6054687 -0.5039063,0.4453125 -1.1015625,0.5273438 -1.5351563,0.5273438 h -1.40625 z m 0,0"
         style="fill:#000000;fill-opacity:1;fill-rule:nonzero;stroke:none" />
      <path
         id="path23"
         d="m 10.110977,-8.0452266 c 0,-0.1875 -0.01172,-0.1992187 -0.2109379,-0.1992187 -0.4453125,0.4335937 -1.078125,0.4453125 -1.359375,0.4453125 v 0.2460937 c 0.1640625,0 0.6210937,0 1.0078125,-0.1875 v 3.5507813 c 0,0.234375 0,0.328125 -0.6914063,0.328125 H 8.5875391 v 0.2460937 c 0.1289062,-0.011719 0.984375,-0.023437 1.2421875,-0.023437 0.2109374,0 1.0898434,0.011719 1.2421874,0.023437 v -0.2460937 h -0.257812 c -0.703125,0 -0.703125,-0.09375 -0.703125,-0.328125 z m 0,0"
         style="fill:#000000;fill-opacity:1;fill-rule:nonzero;stroke:none" />
      <path
         id="path24"
         d="m 15.542617,2.3903203 c 0,-0.035156 0,-0.046875 -0.164062,-0.2226562 -1.242188,-1.25390629 -1.570313,-3.12890629 -1.570313,-4.6640625 0,-1.7226563 0.386719,-3.4570313 1.605469,-4.7109375 0.128906,-0.1171875 0.128906,-0.1289063 0.128906,-0.1640625 0,-0.070312 -0.03516,-0.1054688 -0.09375,-0.1054688 -0.105469,0 -0.996094,0.6796875 -1.582031,1.9453125 -0.515625,1.1015625 -0.632813,2.203125 -0.632813,3.0351563 0,0.7851562 0.117188,1.99218746 0.65625,3.11718746 0.597657,1.21875004 1.453125,1.87500004 1.558594,1.87500004 0.05859,0 0.09375,-0.035156 0.09375,-0.1054688 z m 1.845703,-3.15234374 1.054688,-1.03124996 c 1.558594,-1.3710938 2.15625,-1.9101563 2.15625,-2.90625 0,-1.1367188 -0.902344,-1.9335938 -2.121094,-1.9335938 -1.125,0 -1.851562,0.9140625 -1.851562,1.8046875 0,0.5507813 0.492187,0.5507813 0.527343,0.5507813 0.164063,0 0.515625,-0.1171875 0.515625,-0.5273438 0,-0.2578125 -0.1875,-0.515625 -0.527343,-0.515625 -0.08203,0 -0.105469,0 -0.128907,0.011719 0.222657,-0.6445313 0.761719,-1.0195313 1.335938,-1.0195313 0.914062,0 1.335937,0.8085938 1.335937,1.6289063 0,0.796875 -0.492187,1.5820312 -1.042968,2.203125 l -1.910157,2.13281246 c -0.105468,0.10546875 -0.105468,0.12890625 -0.105468,0.3632812525 h 3.691406 L 20.599258,-1.7346797 h -0.257813 c -0.04687,0.3046875 -0.117187,0.73828126 -0.210937,0.89062501 -0.07031,0.0820313 -0.726563,0.0820313 -0.949219,0.0820313 z m 6.600586,-1.73437496 c 0,-0.7734375 -0.117187,-1.9804688 -0.65625,-3.1054688 -0.597656,-1.21875 -1.464844,-1.875 -1.558594,-1.875 -0.05859,0 -0.105468,0.046875 -0.105468,0.1054688 0,0.035156 0,0.046875 0.199218,0.234375 0.972657,0.984375 1.535157,2.5664062 1.535157,4.640625 0,1.71093746 -0.363282,3.45703121 -1.59375,4.7226562 -0.140625,0.1171875 -0.140625,0.1289063 -0.140625,0.1640625 0,0.058594 0.04687,0.1054688 0.105468,0.1054688 0.09375,0 0.996094,-0.6796875 1.582032,-1.94531254 0.503906,-1.1015625 0.632812,-2.20312496 0.632812,-3.04687496 z m 0,0"
         style="fill:#000000;fill-opacity:1;fill-rule:nonzero;stroke:none" />
    </g>
    <path
       id="path25"
       d="m 172.24207,-78.06625 c 0,10.62507 -8.61309,19.23815 -19.23817,19.23815 -10.62507,0 -19.23815,-8.61308 -19.23815,-19.23815 0,-10.62508 8.61308,-19.23816 19.23815,-19.23816 10.62508,0 19.23817,8.61308 19.23817,19.23816 z"
       style="fill:none;stroke:#000000;stroke-width:0.3985;stroke-linecap:butt;stroke-linejoin:miter;stroke-miterlimit:10;stroke-dasharray:none;stroke-opacity:1"
       transform="matrix(1.3333333,0,0,-1.3333333,71.497333,20.852)" />
    <g
       id="g25"
       aria-label="P&#10;m&#10;(2)"
       transform="matrix(1.3333333,0,0,1.3333333,256.78267,128.25867)">
      <path
         id="path26"
         d="m 3.022375,-3.1529844 h 1.6875 c 1.4179688,0 2.8007813,-1.03125 2.8007813,-2.1445312 0,-0.7734375 -0.65625,-1.5117188 -1.96875,-1.5117188 H 2.31925 c -0.1875,0 -0.2929687,0 -0.2929687,0.1992188 0,0.1171875 0.082031,0.1171875 0.28125,0.1171875 0.1289062,0 0.3164062,0.011719 0.4335937,0.011719 0.1523438,0.023437 0.2109375,0.058594 0.2109375,0.1640625 0,0.035156 0,0.070312 -0.035156,0.1875 L 1.580969,-0.77407783 c -0.09375,0.38671875 -0.1171875,0.46875 -0.9023438,0.46875 -0.17578125,0 -0.28125,0 -0.28125,0.1875 0,0.117187505 0.1171875,0.117187505 0.15234375,0.117187505 0.28125,0 0.98437505,-0.035156255 1.26562505,-0.035156255 0.2109375,0 0.421875,0.01171875 0.6328125,0.01171875 0.2226562,0 0.4453125,0.023437505 0.6445312,0.023437505 0.070312,0 0.1992188,0 0.1992188,-0.199218755 0,-0.10546875 -0.082031,-0.10546875 -0.2695313,-0.10546875 -0.375,0 -0.65625,0 -0.65625,-0.1875 0,-0.0585938 0.023437,-0.10546875 0.035156,-0.1640625 z m 0.7148438,-2.9648437 c 0.082031,-0.3515625 0.1054687,-0.375 0.5390625,-0.375 H 5.2255 c 0.8320313,0 1.359375,0.2695312 1.359375,0.9492187 0,0.3984375 -0.1992187,1.2539063 -0.5859375,1.6054688 -0.5039062,0.4453125 -1.1015625,0.5273437 -1.5351562,0.5273437 h -1.40625 z m 0,0"
         style="fill:#000000;fill-opacity:1;fill-rule:nonzero;stroke:none" />
      <path
         id="path27"
         d="m 10.803625,-4.178375 c -0.03516,0.140625 -0.09375,0.375 -0.09375,0.4101562 0,0.1523438 0.128906,0.2226563 0.234375,0.2226563 0.128906,0 0.234375,-0.09375 0.269531,-0.1523438 0.03516,-0.058594 0.09375,-0.2929687 0.128907,-0.4335937 0.03516,-0.1289063 0.117187,-0.4570313 0.152343,-0.6328125 0.04687,-0.1523438 0.08203,-0.3046875 0.117188,-0.4570313 0.08203,-0.3046875 0.08203,-0.3164062 0.222656,-0.5390625 0.222656,-0.3398437 0.5625,-0.7382812 1.113281,-0.7382812 0.386719,0 0.410157,0.328125 0.410157,0.4921875 0,0.421875 -0.304688,1.1953125 -0.410157,1.4882812 -0.08203,0.1875 -0.105468,0.2578125 -0.105468,0.375 0,0.3632813 0.304687,0.5976563 0.65625,0.5976563 0.703125,0 1.007812,-0.9609375 1.007812,-1.0664063 0,-0.09375 -0.09375,-0.09375 -0.105469,-0.09375 -0.105468,0 -0.105468,0.046875 -0.140625,0.1171875 -0.152343,0.5625 -0.457031,0.84375 -0.738281,0.84375 -0.140625,0 -0.175781,-0.09375 -0.175781,-0.2460937 0,-0.1523438 0.03516,-0.2460938 0.164062,-0.5625 0.08203,-0.2109375 0.375,-0.9492188 0.375,-1.3476563 0,-0.1054687 0,-0.3984375 -0.257812,-0.5976562 -0.128906,-0.09375 -0.328125,-0.1875 -0.65625,-0.1875 -0.621094,0 -1.007813,0.4101562 -1.230469,0.703125 -0.05859,-0.5976563 -0.550781,-0.703125 -0.902344,-0.703125 -0.585937,0 -0.972656,0.3515625 -1.1835935,0.6328125 -0.046875,-0.4804688 -0.4570312,-0.6328125 -0.75,-0.6328125 -0.2929687,0 -0.4570312,0.2109375 -0.5507812,0.375 -0.1523438,0.2578125 -0.2460938,0.65625 -0.2460938,0.6914062 0,0.082031 0.09375,0.082031 0.1171875,0.082031 0.09375,0 0.1054688,-0.011719 0.1523438,-0.1992188 0.1054687,-0.421875 0.234375,-0.7617187 0.515625,-0.7617187 0.1757812,0 0.2226562,0.1523437 0.2226562,0.3398437 0,0.140625 -0.058594,0.3984375 -0.1054687,0.5859375 -0.046875,0.1875 -0.1171875,0.46875 -0.1523438,0.6210938 l -0.2226562,0.9023437 c -0.035156,0.082031 -0.070312,0.2578125 -0.070312,0.28125 0,0.1523438 0.1171875,0.2226563 0.234375,0.2226563 0.1289062,0 0.234375,-0.09375 0.2695312,-0.1523438 C 9.1044063,-3.7565 9.163,-3.990875 9.1981563,-4.1315 9.2333125,-4.2604063 9.303625,-4.5885313 9.3505,-4.7643125 9.3856563,-4.9166563 9.4325313,-5.069 9.4676875,-5.2213438 c 0.082031,-0.2929687 0.09375,-0.3515625 0.2929688,-0.6328125 0.1992187,-0.28125 0.5273437,-0.6445312 1.0429687,-0.6445312 0.410156,0 0.410156,0.3632812 0.410156,0.4921875 0,0.1757812 -0.01172,0.2695312 -0.117187,0.65625 z m 0,0"
         style="fill:#000000;fill-opacity:1;fill-rule:nonzero;stroke:none" />
      <path
         id="path28"
         d="m 18.640539,2.3899844 c 0,-0.035156 0,-0.046875 -0.164062,-0.2226563 -1.242188,-1.25390623 -1.570313,-3.12890623 -1.570313,-4.6640625 0,-1.7226562 0.386719,-3.4570312 1.605469,-4.7109375 0.128906,-0.1171875 0.128906,-0.1289062 0.128906,-0.1640625 0,-0.070312 -0.03516,-0.1054687 -0.09375,-0.1054687 -0.105469,0 -0.996094,0.6796875 -1.582031,1.9453125 -0.515625,1.1015625 -0.632813,2.203125 -0.632813,3.0351562 0,0.7851563 0.117188,1.99218752 0.65625,3.11718752 0.597657,1.21874998 1.453125,1.87499998 1.558594,1.87499998 0.05859,0 0.09375,-0.035156 0.09375,-0.1054687 z m 1.845703,-3.15234378 1.054688,-1.03125002 c 1.558593,-1.3710937 2.15625,-1.9101562 2.15625,-2.90625 0,-1.1367187 -0.902344,-1.9335937 -2.121094,-1.9335937 -1.125,0 -1.851563,0.9140625 -1.851563,1.8046875 0,0.5507812 0.492188,0.5507812 0.527344,0.5507812 0.164063,0 0.515625,-0.1171875 0.515625,-0.5273437 0,-0.2578125 -0.1875,-0.515625 -0.527344,-0.515625 -0.08203,0 -0.105468,0 -0.128906,0.011719 0.222656,-0.6445312 0.761719,-1.0195312 1.335938,-1.0195312 0.914062,0 1.335937,0.8085937 1.335937,1.6289062 0,0.796875 -0.492187,1.5820313 -1.042969,2.203125 l -1.910156,2.13281252 c -0.105469,0.10546875 -0.105469,0.12890625 -0.105469,0.363281255 H 23.41593 L 23.69718,-1.7350156 h -0.257813 c -0.04687,0.3046875 -0.117187,0.73828122 -0.210937,0.89062497 -0.07031,0.0820313 -0.726563,0.0820313 -0.949219,0.0820313 z m 6.600586,-1.73437502 c 0,-0.7734375 -0.117187,-1.9804687 -0.65625,-3.1054687 -0.597656,-1.21875 -1.464844,-1.875 -1.558594,-1.875 -0.05859,0 -0.105468,0.046875 -0.105468,0.1054687 0,0.035156 0,0.046875 0.199218,0.234375 0.972657,0.984375 1.535157,2.5664063 1.535157,4.640625 0,1.71093752 -0.363282,3.45703127 -1.59375,4.7226563 -0.140625,0.1171875 -0.140625,0.1289062 -0.140625,0.1640625 0,0.058594 0.04687,0.1054687 0.105468,0.1054687 0.09375,0 0.996094,-0.6796875 1.582032,-1.94531248 0.503906,-1.1015625 0.632812,-2.20312502 0.632812,-3.04687502 z m 0,0"
         style="fill:#000000;fill-opacity:1;fill-rule:nonzero;stroke:none" />
    </g>
    <path
       id="path29"
       d="m 1.9103906,-2.496125 c 0,-0.28125 -0.234375,-0.5273438 -0.5273437,-0.5273438 -0.28125,0 -0.52734378,0.2460938 -0.52734378,0.5273438 0,0.2929687 0.24609378,0.5390625 0.52734378,0.5390625 0.2929687,0 0.5273437,-0.2460938 0.5273437,-0.5390625 z m 4.4296875,0 c 0,-0.28125 -0.234375,-0.5273438 -0.5273437,-0.5273438 -0.28125,0 -0.5273438,0.2460938 -0.5273438,0.5273438 0,0.2929687 0.2460938,0.5390625 0.5273438,0.5390625 0.2929687,0 0.5273437,-0.2460938 0.5273437,-0.5390625 z m 4.4238279,0 c 0,-0.28125 -0.234375,-0.5273438 -0.527344,-0.5273438 -0.2812495,0 -0.5273433,0.2460938 -0.5273433,0.5273438 0,0.2929687 0.2460938,0.5390625 0.5273433,0.5390625 0.292969,0 0.527344,-0.2460938 0.527344,-0.5390625 z m 0,0"
       style="fill:#000000;fill-opacity:1;fill-rule:nonzero;stroke:none"
       aria-label="···"
       transform="matrix(1.3333333,0,0,1.3333333,372.82,127.89067)" />
    <path
       id="path30"
       d="m 215.18883,-78.06625 c 0,9.93499 -8.05368,17.98867 -17.98868,17.98867 -9.935,0 -17.98869,-8.05368 -17.98869,-17.98867 0,-9.935 8.05369,-17.9887 17.98869,-17.9887 9.935,0 17.98868,8.0537 17.98868,17.9887 z"
       style="fill:none;stroke:#000000;stroke-width:0.3985;stroke-linecap:butt;stroke-linejoin:miter;stroke-miterlimit:10;stroke-dasharray:none;stroke-opacity:1"
       transform="matrix(1.3333333,0,0,-1.3333333,71.497333,20.852)" />
    <g
       id="g30"
       aria-label="P&#10;1&#10;(3)"
       transform="matrix(1.3333333,0,0,1.3333333,317.77467,128.684)">
      <path
         id="path31"
         d="m 3.0225156,-3.1526484 h 1.6875 c 1.4179688,0 2.8007813,-1.03125 2.8007813,-2.1445313 0,-0.7734375 -0.65625,-1.5117187 -1.96875,-1.5117187 H 2.3193906 c -0.1875,0 -0.2929687,0 -0.2929687,0.1992187 0,0.1171875 0.082031,0.1171875 0.28125,0.1171875 0.1289062,0 0.3164062,0.011719 0.4335937,0.011719 0.1523438,0.023437 0.2109375,0.058594 0.2109375,0.1640625 0,0.035156 0,0.070312 -0.035156,0.1875 l -1.3359375,5.35546871 c -0.09375,0.38671875 -0.1171875,0.46875 -0.90234378,0.46875 -0.17578125,0 -0.28125,0 -0.28125,0.1875 0,0.1171875025 0.1171875,0.1171875025 0.15234375,0.1171875025 0.28125,0 0.98437503,-0.0351562525 1.26562503,-0.0351562525 0.2109375,0 0.421875,0.01171875 0.6328125,0.01171875 0.2226562,0 0.4453125,0.0234375025 0.6445312,0.0234375025 0.070312,0 0.1992188,0 0.1992188,-0.1992187525 0,-0.10546875 -0.082031,-0.10546875 -0.2695313,-0.10546875 -0.375,0 -0.65625,0 -0.65625,-0.1875 0,-0.0585938 0.023437,-0.10546875 0.035156,-0.1640625 z m 0.7148438,-2.9648438 c 0.082031,-0.3515625 0.1054687,-0.375 0.5390625,-0.375 h 0.9492187 c 0.8320313,0 1.359375,0.2695313 1.359375,0.9492188 0,0.3984375 -0.1992187,1.2539062 -0.5859375,1.6054687 -0.5039062,0.4453125 -1.1015625,0.5273438 -1.5351562,0.5273438 h -1.40625 z m 0,0"
         style="fill:#000000;fill-opacity:1;fill-rule:nonzero;stroke:none" />
      <path
         id="path32"
         d="m 10.112359,-8.0452266 c 0,-0.1875 -0.01172,-0.1992187 -0.2109371,-0.1992187 -0.4453125,0.4335937 -1.078125,0.4453125 -1.359375,0.4453125 v 0.2460937 c 0.1640625,0 0.6210937,0 1.0078125,-0.1875 v 3.5507813 c 0,0.234375 0,0.328125 -0.6914063,0.328125 H 8.5889219 v 0.2460937 c 0.1289062,-0.011719 0.984375,-0.023437 1.2421875,-0.023437 0.2109376,0 1.0898436,0.011719 1.2421876,0.023437 v -0.2460937 h -0.257813 c -0.703125,0 -0.703125,-0.09375 -0.703125,-0.328125 z m 0,0"
         style="fill:#000000;fill-opacity:1;fill-rule:nonzero;stroke:none" />
      <path
         id="path33"
         d="m 15.544,2.3903203 c 0,-0.035156 0,-0.046875 -0.164063,-0.2226562 -1.242187,-1.25390629 -1.570312,-3.12890629 -1.570312,-4.6640625 0,-1.7226563 0.386719,-3.4570313 1.605469,-4.7109375 C 15.544,-7.3245234 15.544,-7.3362422 15.544,-7.3713984 c 0,-0.070312 -0.03516,-0.1054688 -0.09375,-0.1054688 -0.105469,0 -0.996094,0.6796875 -1.582031,1.9453125 -0.515625,1.1015625 -0.632813,2.203125 -0.632813,3.0351563 0,0.7851562 0.117188,1.99218746 0.65625,3.11718746 0.597656,1.21875004 1.453125,1.87500004 1.558594,1.87500004 0.05859,0 0.09375,-0.035156 0.09375,-0.1054688 z m 3.474609,-5.8945312 c 0.808594,-0.2695313 1.394532,-0.9726563 1.394532,-1.7578125 0,-0.8203125 -0.878907,-1.3710938 -1.839844,-1.3710938 -1.007813,0 -1.757813,0.5976563 -1.757813,1.3476563 0,0.3398437 0.210938,0.5273437 0.503907,0.5273437 0.304687,0 0.503906,-0.2226562 0.503906,-0.515625 0,-0.4921875 -0.46875,-0.4921875 -0.609375,-0.4921875 0.304687,-0.4921875 0.960937,-0.6210937 1.324219,-0.6210937 0.410156,0 0.949218,0.2226562 0.949218,1.1132812 0,0.1289063 -0.01172,0.703125 -0.269531,1.1367188 -0.304687,0.4804687 -0.644531,0.515625 -0.890625,0.515625 -0.08203,0.011719 -0.316406,0.035156 -0.386719,0.035156 -0.08203,0.011719 -0.152343,0.023437 -0.152343,0.1171875 0,0.1171875 0.07031,0.1171875 0.234375,0.1171875 h 0.445312 c 0.808594,0 1.183594,0.6679688 1.183594,1.6523438 0,1.34765621 -0.691406,1.64062496 -1.125,1.64062496 -0.433594,0 -1.171875,-0.17578125 -1.523438,-0.76171875 0.351563,0.0585938 0.65625,-0.1640625 0.65625,-0.53906251 0,-0.3632812 -0.269531,-0.5625 -0.5625,-0.5625 -0.234375,0 -0.550781,0.140625 -0.550781,0.5742188 0,0.91406246 0.925781,1.57031246 2.003906,1.57031246 1.21875,0 2.121094,-0.9140625 2.121094,-1.92187496 0,-0.8203125 -0.621094,-1.59375 -1.652344,-1.8046873 z m 4.96875,1.0078125 c 0,-0.7734375 -0.117187,-1.9804688 -0.65625,-3.1054688 -0.597656,-1.21875 -1.464843,-1.875 -1.558593,-1.875 -0.05859,0 -0.105469,0.046875 -0.105469,0.1054688 0,0.035156 0,0.046875 0.199219,0.234375 0.972656,0.984375 1.535156,2.5664062 1.535156,4.640625 0,1.71093746 -0.363281,3.45703121 -1.59375,4.7226562 -0.140625,0.1171875 -0.140625,0.1289063 -0.140625,0.1640625 0,0.058594 0.04687,0.1054688 0.105469,0.1054688 0.09375,0 0.996093,-0.6796875 1.582031,-1.94531254 0.503906,-1.1015625 0.632812,-2.20312496 0.632812,-3.04687496 z m 0,0"
         style="fill:#000000;fill-opacity:1;fill-rule:nonzero;stroke:none" />
    </g>
    <path
       id="path34"
       d="m 288.56027,-78.06625 c 0,10.62507 -8.6131,19.23815 -19.23817,19.23815 -10.62506,0 -19.23816,-8.61308 -19.23816,-19.23815 0,-10.62508 8.6131,-19.23816 19.23816,-19.23816 10.62507,0 19.23817,8.61308 19.23817,19.23816 z"
       style="fill:none;stroke:#000000;stroke-width:0.3985;stroke-linecap:butt;stroke-linejoin:miter;stroke-miterlimit:10;stroke-dasharray:none;stroke-opacity:1"
       transform="matrix(1.3333333,0,0,-1.3333333,71.497333,20.852)" />
    <g
       id="g34"
       aria-label="P&#10;m&#10;(3)"
       transform="matrix(1.3333333,0,0,1.3333333,411.87067,128.25867)">
      <path
         id="path35"
         d="m 3.0237578,-3.1529844 h 1.6875 c 1.4179688,0 2.8007813,-1.03125 2.8007813,-2.1445312 0,-0.7734375 -0.65625,-1.5117188 -1.96875,-1.5117188 H 2.3206328 c -0.1875,0 -0.2929687,0 -0.2929687,0.1992188 0,0.1171875 0.082031,0.1171875 0.28125,0.1171875 0.1289062,0 0.3164062,0.011719 0.4335937,0.011719 0.1523438,0.023437 0.2109375,0.058594 0.2109375,0.1640625 0,0.035156 0,0.070312 -0.035156,0.1875 l -1.3359375,5.35546877 c -0.09375,0.38671875 -0.1171875,0.46875 -0.90234379,0.46875 -0.17578125,0 -0.28125,0 -0.28125,0.1875 0,0.117187505 0.1171875,0.117187505 0.15234375,0.117187505 0.28125,0 0.98437504,-0.035156255 1.26562504,-0.035156255 0.2109375,0 0.421875,0.01171875 0.6328125,0.01171875 0.2226562,0 0.4453125,0.023437505 0.6445312,0.023437505 0.070312,0 0.1992188,0 0.1992188,-0.199218755 0,-0.10546875 -0.082031,-0.10546875 -0.2695313,-0.10546875 -0.375,0 -0.65625,0 -0.65625,-0.1875 0,-0.0585938 0.023437,-0.10546875 0.035156,-0.1640625 z m 0.7148438,-2.9648437 c 0.082031,-0.3515625 0.1054687,-0.375 0.5390625,-0.375 h 0.9492187 c 0.8320313,0 1.359375,0.2695312 1.359375,0.9492187 0,0.3984375 -0.1992187,1.2539063 -0.5859375,1.6054688 -0.5039062,0.4453125 -1.1015625,0.5273437 -1.5351562,0.5273437 h -1.40625 z m 0,0"
         style="fill:#000000;fill-opacity:1;fill-rule:nonzero;stroke:none" />
      <path
         id="path36"
         d="m 10.802078,-4.178375 c -0.03516,0.140625 -0.09375,0.375 -0.09375,0.4101562 0,0.1523438 0.128906,0.2226563 0.234375,0.2226563 0.128906,0 0.234375,-0.09375 0.269531,-0.1523438 0.03516,-0.058594 0.09375,-0.2929687 0.128907,-0.4335937 0.03516,-0.1289063 0.117187,-0.4570313 0.152343,-0.6328125 0.04687,-0.1523438 0.08203,-0.3046875 0.117188,-0.4570313 0.08203,-0.3046875 0.08203,-0.3164062 0.222656,-0.5390625 0.222656,-0.3398437 0.5625,-0.7382812 1.113281,-0.7382812 0.386719,0 0.410157,0.328125 0.410157,0.4921875 0,0.421875 -0.304688,1.1953125 -0.410157,1.4882812 -0.08203,0.1875 -0.105468,0.2578125 -0.105468,0.375 0,0.3632813 0.304687,0.5976563 0.65625,0.5976563 0.703125,0 1.007812,-0.9609375 1.007812,-1.0664063 0,-0.09375 -0.09375,-0.09375 -0.105469,-0.09375 -0.105468,0 -0.105468,0.046875 -0.140625,0.1171875 -0.152343,0.5625 -0.457031,0.84375 -0.738281,0.84375 -0.140625,0 -0.175781,-0.09375 -0.175781,-0.2460937 0,-0.1523438 0.03516,-0.2460938 0.164062,-0.5625 0.08203,-0.2109375 0.375,-0.9492188 0.375,-1.3476563 0,-0.1054687 0,-0.3984375 -0.257812,-0.5976562 -0.128906,-0.09375 -0.328125,-0.1875 -0.65625,-0.1875 -0.621094,0 -1.007813,0.4101562 -1.230469,0.703125 -0.05859,-0.5976563 -0.550781,-0.703125 -0.902344,-0.703125 -0.585937,0 -0.9726559,0.3515625 -1.1835934,0.6328125 -0.046875,-0.4804688 -0.4570312,-0.6328125 -0.75,-0.6328125 -0.2929687,0 -0.4570312,0.2109375 -0.5507812,0.375 -0.1523438,0.2578125 -0.2460938,0.65625 -0.2460938,0.6914062 0,0.082031 0.09375,0.082031 0.1171875,0.082031 0.09375,0 0.1054688,-0.011719 0.1523438,-0.1992188 0.1054687,-0.421875 0.234375,-0.7617187 0.515625,-0.7617187 0.1757812,0 0.2226562,0.1523437 0.2226562,0.3398437 0,0.140625 -0.058594,0.3984375 -0.1054687,0.5859375 -0.046875,0.1875 -0.1171875,0.46875 -0.1523438,0.6210938 l -0.2226562,0.9023437 c -0.035156,0.082031 -0.070312,0.2578125 -0.070312,0.28125 0,0.1523438 0.1171875,0.2226563 0.234375,0.2226563 0.1289062,0 0.234375,-0.09375 0.2695312,-0.1523438 0.035156,-0.058594 0.09375,-0.2929687 0.1289063,-0.4335937 0.035156,-0.1289063 0.1054687,-0.4570313 0.1523437,-0.6328125 0.035156,-0.1523438 0.082031,-0.3046875 0.1171875,-0.4570313 0.082031,-0.2929687 0.09375,-0.3515625 0.2929688,-0.6328125 0.1992187,-0.28125 0.5273441,-0.6445312 1.0429691,-0.6445312 0.410156,0 0.410156,0.3632812 0.410156,0.4921875 0,0.1757812 -0.01172,0.2695312 -0.117187,0.65625 z m 0,0"
         style="fill:#000000;fill-opacity:1;fill-rule:nonzero;stroke:none" />
      <path
         id="path37"
         d="m 18.641922,2.3899844 c 0,-0.035156 0,-0.046875 -0.164063,-0.2226563 -1.242187,-1.25390623 -1.570312,-3.12890623 -1.570312,-4.6640625 0,-1.7226562 0.386719,-3.4570312 1.605469,-4.7109375 0.128906,-0.1171875 0.128906,-0.1289062 0.128906,-0.1640625 0,-0.070312 -0.03516,-0.1054687 -0.09375,-0.1054687 -0.105469,0 -0.996094,0.6796875 -1.582031,1.9453125 -0.515625,1.1015625 -0.632813,2.203125 -0.632813,3.0351562 0,0.7851563 0.117188,1.99218752 0.65625,3.11718752 0.597656,1.21874998 1.453125,1.87499998 1.558594,1.87499998 0.05859,0 0.09375,-0.035156 0.09375,-0.1054687 z m 3.474609,-5.8945313 c 0.808594,-0.2695312 1.394531,-0.9726562 1.394531,-1.7578125 0,-0.8203125 -0.878906,-1.3710937 -1.839843,-1.3710937 -1.007813,0 -1.757813,0.5976562 -1.757813,1.3476562 0,0.3398438 0.210938,0.5273438 0.503906,0.5273438 0.304688,0 0.503907,-0.2226563 0.503907,-0.515625 0,-0.4921875 -0.46875,-0.4921875 -0.609375,-0.4921875 0.304687,-0.4921875 0.960937,-0.6210938 1.324218,-0.6210938 0.410157,0 0.949219,0.2226563 0.949219,1.1132813 0,0.1289062 -0.01172,0.703125 -0.269531,1.1367187 -0.304688,0.4804688 -0.644531,0.515625 -0.890625,0.515625 -0.08203,0.011719 -0.316406,0.035156 -0.386719,0.035156 -0.08203,0.011719 -0.152344,0.023437 -0.152344,0.1171875 0,0.1171875 0.07031,0.1171875 0.234375,0.1171875 h 0.445313 c 0.808594,0 1.183594,0.6679687 1.183594,1.6523437 0,1.34765627 -0.691407,1.64062502 -1.125,1.64062502 -0.433594,0 -1.171875,-0.17578125 -1.523438,-0.76171875 0.351563,0.0585938 0.65625,-0.1640625 0.65625,-0.53906247 0,-0.3632813 -0.269531,-0.5625 -0.5625,-0.5625 -0.234375,0 -0.550781,0.140625 -0.550781,0.5742187 0,0.91406252 0.925781,1.57031252 2.003906,1.57031252 1.21875,0 2.121094,-0.9140625 2.121094,-1.92187502 0,-0.8203125 -0.621094,-1.59375 -1.652344,-1.8046872 z m 4.96875,1.0078125 c 0,-0.7734375 -0.117187,-1.9804687 -0.65625,-3.1054687 -0.597656,-1.21875 -1.464844,-1.875 -1.558594,-1.875 -0.05859,0 -0.105468,0.046875 -0.105468,0.1054687 0,0.035156 0,0.046875 0.199218,0.234375 0.972657,0.984375 1.535157,2.5664063 1.535157,4.640625 0,1.71093752 -0.363282,3.45703127 -1.59375,4.7226563 -0.140625,0.1171875 -0.140625,0.1289062 -0.140625,0.1640625 0,0.058594 0.04687,0.1054687 0.105468,0.1054687 0.09375,0 0.996094,-0.6796875 1.582032,-1.94531248 0.503906,-1.1015625 0.632812,-2.20312502 0.632812,-3.04687502 z m 0,0"
         style="fill:#000000;fill-opacity:1;fill-rule:nonzero;stroke:none" />
    </g>
    <path
       id="path38"
       d="M 15.63885,0 H 99.68306"
       style="fill:none;stroke:#000000;stroke-width:0.3985;stroke-linecap:butt;stroke-linejoin:miter;stroke-miterlimit:10;stroke-dasharray:none;stroke-opacity:1"
       transform="matrix(1.3333333,0,0,-1.3333333,71.497333,20.852)" />
    <path
       id="path39"
       d="m 0.797,0 c -0.99625,0.19925 -1.99251,0.59775 -3.18802,1.29512 1.19551,-0.89662 1.19551,-1.69362 0,-2.59024 C -1.19551,-0.59775 -0.19925,-0.19925 0.797,0 Z"
       style="fill:#000000;fill-opacity:1;fill-rule:nonzero;stroke:#000000;stroke-width:0.3985;stroke-linecap:butt;stroke-linejoin:round;stroke-miterlimit:10;stroke-dasharray:none;stroke-opacity:1"
       transform="matrix(1.3333333,0,0,-1.3333333,204.40808,20.852)" />
    <path
       id="path40"
       d="m 3.2687656,-1.2767891 c -0.09375,-0.984375 -0.4921875,-1.6289062 -0.5039062,-1.640625 -0.1757813,-0.2695312 -0.46875,-0.5976562 -0.9960938,-0.5976562 -1.03124997,0 -1.62890622,1.1601562 -1.62890622,1.4414062 0,0.070312 0.0703125,0.09375 0.1171875,0.09375 0.0820313,0 0.10546875,-0.023437 0.12890625,-0.09375 0.24609375,-0.7148437 1.03124997,-0.8203125 1.26562497,-0.8203125 1.2890625,0 1.3828125,1.3828125 1.3828125,2.06250004 0,0.43359375 -0.023437,0.50390625 -0.082031,0.69140625 -0.1757813,0.5625 -0.4101563,1.45312501 -0.4101563,1.67578121 0,0.023437 0.011719,0.1757813 0.1289063,0.1757813 0.09375,0 0.1640625,-0.1171875 0.234375,-0.3164063 0.2226562,-0.73828121 0.2929687,-1.26562496 0.3398437,-1.62890621 0.023437,-0.1640625 0.4804688,-1.49999999 1.21875,-2.89453129 0.09375,-0.1757812 0.09375,-0.1875 0.09375,-0.2109375 0,-0.011719 0,-0.09375 -0.1171875,-0.09375 -0.035156,0 -0.070312,0.011719 -0.09375,0.035156 -0.023437,0.023437 -0.65625,1.1953125 -1.0546875,2.2851562 z m 0,0"
       style="fill:#000000;fill-opacity:1;fill-rule:nonzero;stroke:none"
       aria-label="γ"
       transform="matrix(1.3333333,0,0,1.3333333,145.82133,17.190667)" />
    <path
       id="path41"
       d="M -6.46376,-14.23952 -27.50742,-60.59834"
       style="fill:none;stroke:#000000;stroke-width:0.3985;stroke-linecap:butt;stroke-linejoin:miter;stroke-miterlimit:10;stroke-dasharray:none;stroke-opacity:1"
       transform="matrix(1.3333333,0,0,-1.3333333,71.497333,20.852)" />
    <path
       id="path42"
       d="m 0.797,0 c -0.99625,0.19925 -1.99251,0.59775 -3.18802,1.29512 1.19551,-0.89662 1.19551,-1.69362 0,-2.59024 C -1.19551,-0.59775 -0.19925,-0.19925 0.797,0 Z"
       style="fill:#000000;fill-opacity:1;fill-rule:nonzero;stroke:#000000;stroke-width:0.3985;stroke-linecap:butt;stroke-linejoin:round;stroke-miterlimit:10;stroke-dasharray:none;stroke-opacity:1"
       transform="matrix(-0.55108,1.2140267,1.2140267,0.55108,34.820773,101.64979)" />
    <g
       id="g42"
       aria-label="η&#10;(1)"
       transform="matrix(1.3333333,0,0,1.3333333,50.170667,82.669333)">
      <path
         id="path43"
         d="m 4.1493437,-2.2041484 c 0.035156,-0.1171875 0.070312,-0.2460938 0.070312,-0.421875 0,-0.5976563 -0.4218749,-0.890625 -0.9960937,-0.890625 -0.6445312,0 -1.0546875,0.3867187 -1.2890625,0.6914062 -0.058594,-0.4335937 -0.3984375,-0.6914062 -0.8085938,-0.6914062 -0.2929687,0 -0.49218745,0.1875 -0.60937495,0.4335937 -0.1875,0.3515625 -0.28125,0.7617188 -0.28125,0.7851563 0,0.070312 0.0585938,0.1054687 0.12890625,0.1054687 0.09375,0 0.10546875,-0.035156 0.1640625,-0.234375 0.10546875,-0.4101562 0.24609375,-0.8671875 0.5742187,-0.8671875 0.1992188,0 0.2578125,0.1875 0.2578125,0.375 0,0.140625 -0.046875,0.2929688 -0.1054687,0.5625 -0.023437,0.058594 -0.140625,0.5273438 -0.1757813,0.6445313 L 0.7860625,-0.51664844 C 0.762625,-0.39946094 0.71575,-0.20024219 0.71575,-0.16508594 c 0,0.17578125 0.140625,0.24609375 0.24609375,0.24609375 0.15234375,0 0.26953125,-0.09375 0.31640625,-0.19921875 0.035156,-0.046875 0.09375,-0.31640625 0.1289062,-0.48046875 l 0.1875,-0.71484371 c 0.023437,-0.1171875 0.1054688,-0.421875 0.1289063,-0.5390625 0.1054687,-0.421875 0.1054687,-0.4335938 0.2929688,-0.703125 0.2578125,-0.3867188 0.6328125,-0.7382813 1.171875,-0.7382813 0.28125,0 0.4570312,0.1640625 0.4570312,0.5390625 0,0.1523438 -0.070312,0.4453125 -0.070312,0.4570313 L 2.6727813,1.2763203 c -0.023437,0.1289063 -0.023437,0.1757813 -0.023437,0.1875 0,0.1992188 0.1523437,0.2460938 0.2578125,0.2460938 0.2695312,0 0.3398437,-0.2578125 0.3632812,-0.3515625 z m 0,0"
         style="fill:#000000;fill-opacity:1;fill-rule:nonzero;stroke:none" />
      <path
         id="path44"
         d="m 6.9149687,-1.4658672 c -0.65625,-0.5039062 -1.1953125,-1.4414062 -1.1953125,-2.8359375 0,-1.3828125 0.5273438,-2.34375 1.1953125,-2.8476562 0,-0.011719 0.023437,-0.035156 0.023437,-0.058594 0,-0.035156 -0.035156,-0.082031 -0.1054687,-0.082031 -0.1054688,0 -1.546875,0.9375 -1.546875,2.9882812 0,2.0390625 1.4414062,2.9765625 1.546875,2.9765625 0.070312,0 0.1054687,-0.046875 0.1054687,-0.082031 0,-0.023437 -0.023437,-0.046875 -0.023437,-0.058594 z m 2.6425782,-5.1445312 c 0,-0.1757813 -0.023437,-0.1757813 -0.1992188,-0.1757813 -0.3984375,0.375 -1.0078125,0.375 -1.21875,0.375 v 0.234375 c 0.1523438,0 0.5507813,0 0.9023438,-0.1640625 v 3.0234375 c 0,0.1875 0,0.2695313 -0.609375,0.2695313 H 8.1747344 v 0.234375 c 0.328125,-0.023437 0.796875,-0.023437 1.125,-0.023437 0.3398437,0 0.7968746,0 1.1367186,0.023437 v -0.234375 h -0.257812 c -0.6210941,0 -0.6210941,-0.082031 -0.6210941,-0.2695313 z m 3.6298831,2.3085937 c 0,-2.0507812 -1.441407,-2.9882812 -1.558594,-2.9882812 -0.07031,0 -0.08203,0.046875 -0.08203,0.082031 0,0.035156 0,0.035156 0.105468,0.1289063 0.539063,0.46875 1.101563,1.3476562 1.101563,2.7773437 0,1.265625 -0.445313,2.2148438 -1.125,2.7773438 -0.08203,0.082031 -0.08203,0.082031 -0.08203,0.1171875 0,0.035156 0.01172,0.082031 0.08203,0.082031 0.117187,0 1.558594,-0.9375 1.558594,-2.9765625 z m 0,0"
         style="fill:#000000;fill-opacity:1;fill-rule:nonzero;stroke:none" />
    </g>
    <path
       id="path45"
       d="M 6.65134,-14.15338 27.99571,-59.5732"
       style="fill:none;stroke:#000000;stroke-width:0.3985;stroke-linecap:butt;stroke-linejoin:miter;stroke-miterlimit:10;stroke-dasharray:none;stroke-opacity:1"
       transform="matrix(1.3333333,0,0,-1.3333333,71.497333,20.852)" />
    <path
       id="path46"
       d="m 0.797,0 c -0.99625,0.19925 -1.99251,0.59775 -3.18802,1.29512 1.19551,-0.89662 1.19551,-1.69362 0,-2.59024 C -1.19551,-0.59775 -0.19925,-0.19925 0.797,0 Z"
       style="fill:#000000;fill-opacity:1;fill-rule:nonzero;stroke:#000000;stroke-width:0.3985;stroke-linecap:butt;stroke-linejoin:round;stroke-miterlimit:10;stroke-dasharray:none;stroke-opacity:1"
       transform="matrix(0.56708,1.20668,1.20668,-0.56708,108.82493,100.28293)" />
    <g
       id="g46"
       aria-label="η&#10;(m)"
       transform="matrix(1.3333333,0,0,1.3333333,96.472,66.942667)">
      <path
         id="path47"
         d="m 4.1489297,-2.2040703 c 0.035156,-0.1171875 0.070312,-0.2460938 0.070312,-0.421875 0,-0.5976563 -0.421875,-0.890625 -0.9960938,-0.890625 -0.6445312,0 -1.0546875,0.3867187 -1.2890625,0.6914062 -0.058594,-0.4335937 -0.3984375,-0.6914062 -0.8085937,-0.6914062 -0.29296876,0 -0.49218751,0.1875 -0.60937501,0.4335937 -0.1875,0.3515625 -0.28125,0.7617188 -0.28125,0.7851563 0,0.070312 0.0585938,0.1054687 0.12890625,0.1054687 0.09375,0 0.10546875,-0.035156 0.1640625,-0.234375 0.10546875,-0.4101562 0.24609375,-0.8671875 0.57421876,-0.8671875 0.1992187,0 0.2578125,0.1875 0.2578125,0.375 0,0.140625 -0.046875,0.2929688 -0.1054688,0.5625 -0.023437,0.058594 -0.140625,0.5273438 -0.1757812,0.6445313 l -0.29296876,1.19531249 c -0.0234375,0.1171875 -0.0703125,0.31640625 -0.0703125,0.3515625 0,0.17578125 0.140625,0.24609375 0.24609375,0.24609375 0.15234371,0 0.26953121,-0.09375 0.31640621,-0.19921875 0.035156,-0.046875 0.09375,-0.31640625 0.1289063,-0.48046875 l 0.1875,-0.71484374 c 0.023437,-0.1171875 0.1054687,-0.421875 0.1289062,-0.5390625 0.1054688,-0.421875 0.1054688,-0.4335938 0.2929688,-0.703125 0.2578125,-0.3867188 0.6328125,-0.7382813 1.171875,-0.7382813 0.28125,0 0.4570312,0.1640625 0.4570312,0.5390625 0,0.1523438 -0.070312,0.4453125 -0.070312,0.4570313 L 2.6723672,1.2763984 c -0.023437,0.1289063 -0.023437,0.1757813 -0.023437,0.1875 0,0.1992188 0.1523437,0.2460938 0.2578125,0.2460938 0.2695312,0 0.3398437,-0.2578125 0.3632812,-0.3515625 z m 0,0"
         style="fill:#000000;fill-opacity:1;fill-rule:nonzero;stroke:none" />
      <path
         id="path48"
         d="m 6.9145547,-1.4657891 c -0.65625,-0.5039062 -1.1953125,-1.4414062 -1.1953125,-2.8359375 0,-1.3828125 0.5273437,-2.34375 1.1953125,-2.8476562 0,-0.011719 0.023437,-0.035156 0.023437,-0.058594 0,-0.035156 -0.035156,-0.082031 -0.1054688,-0.082031 -0.1054687,0 -1.546875,0.9375 -1.546875,2.9882812 0,2.0390625 1.4414063,2.9765625 1.546875,2.9765625 0.070312,0 0.1054688,-0.046875 0.1054688,-0.082031 0,-0.023437 -0.023437,-0.046875 -0.023437,-0.058594 z m 0,0"
         style="fill:#000000;fill-opacity:1;fill-rule:nonzero;stroke:none" />
      <path
         id="path49"
         d="m 10.23682,-3.3290703 c -0.02344,0.1289062 -0.08203,0.3398437 -0.08203,0.375 0,0.1289062 0.105469,0.1992187 0.210938,0.1992187 0.105468,0 0.210937,-0.070312 0.257812,-0.1640625 0.01172,-0.035156 0.05859,-0.2460937 0.09375,-0.3632812 l 0.128906,-0.5390625 c 0.04687,-0.1523438 0.07031,-0.2578125 0.105469,-0.3984375 0.05859,-0.1992188 0.257813,-0.515625 0.480469,-0.7382813 0.117187,-0.1171875 0.375,-0.2929687 0.703125,-0.2929687 0.386719,0 0.386719,0.3046875 0.386719,0.421875 0,0.3515625 -0.257813,0.984375 -0.375,1.2539062 -0.03516,0.1054688 -0.07031,0.1992188 -0.07031,0.3046875 0,0.3046875 0.269531,0.515625 0.597656,0.515625 0.609375,0 0.902344,-0.7851562 0.902344,-0.9140625 0,-0.011719 0,-0.09375 -0.105469,-0.09375 -0.09375,0 -0.09375,0.035156 -0.128906,0.1523438 -0.105469,0.3398437 -0.363281,0.65625 -0.644531,0.65625 -0.08203,0 -0.164063,-0.035156 -0.164063,-0.2109375 0,-0.1171875 0.04687,-0.2226563 0.09375,-0.3515625 0.07031,-0.1640625 0.363282,-0.890625 0.363282,-1.2421875 0,-0.4921875 -0.375,-0.6914063 -0.832032,-0.6914063 -0.328125,0 -0.714843,0.1171875 -1.101562,0.6328125 -0.03516,-0.4453125 -0.398438,-0.6328125 -0.832031,-0.6328125 -0.2929692,0 -0.6796879,0.09375 -1.0664067,0.5742188 -0.023437,-0.4570313 -0.4453125,-0.5742188 -0.6679687,-0.5742188 -0.234375,0 -0.3867188,0.140625 -0.4921875,0.328125 -0.1523438,0.2578125 -0.2226563,0.5742188 -0.2226563,0.5859375 0,0.070312 0.058594,0.09375 0.1054688,0.09375 0.09375,0 0.1054687,-0.046875 0.140625,-0.140625 0.1171875,-0.46875 0.2578125,-0.6679687 0.4453125,-0.6679687 0.2109375,0 0.2226562,0.2109375 0.2226562,0.3046875 0,0.09375 -0.058594,0.328125 -0.1054687,0.5039062 -0.046875,0.1640625 -0.1054688,0.3984375 -0.1289063,0.5390625 -0.046875,0.140625 -0.082031,0.3046875 -0.1171875,0.4453125 -0.046875,0.1757813 -0.1171875,0.46875 -0.1171875,0.5039063 0,0.1289062 0.1054688,0.1992187 0.2109375,0.1992187 0.1054688,0 0.2109375,-0.070312 0.2578125,-0.1640625 0.011719,-0.035156 0.058594,-0.2460937 0.09375,-0.3632812 l 0.1289063,-0.5390625 c 0.046875,-0.1523438 0.070312,-0.2578125 0.1054687,-0.3984375 0.046875,-0.1992188 0.2578125,-0.515625 0.4804688,-0.7382813 0.1171875,-0.1171875 0.375,-0.2929687 0.7031249,-0.2929687 0.375,0 0.375,0.3046875 0.375,0.421875 0,0.140625 -0.05859,0.375 -0.105469,0.5742187 z m 0,0"
         style="fill:#000000;fill-opacity:1;fill-rule:nonzero;stroke:none" />
      <path
         id="path50"
         d="m 16.072758,-4.3017266 c 0,-2.0507812 -1.441406,-2.9882812 -1.558594,-2.9882812 -0.07031,0 -0.08203,0.046875 -0.08203,0.082031 0,0.035156 0,0.035156 0.105469,0.1289063 0.539062,0.46875 1.101562,1.3476562 1.101562,2.7773437 0,1.265625 -0.445312,2.2148438 -1.125,2.7773438 -0.08203,0.082031 -0.08203,0.082031 -0.08203,0.1171875 0,0.035156 0.01172,0.082031 0.08203,0.082031 0.117188,0 1.558594,-0.9375 1.558594,-2.9765625 z m 0,0"
         style="fill:#000000;fill-opacity:1;fill-rule:nonzero;stroke:none" />
    </g>
    <path
       id="path51"
       d="m 131.95706,0 h 84.04419"
       style="fill:none;stroke:#000000;stroke-width:0.3985;stroke-linecap:butt;stroke-linejoin:miter;stroke-miterlimit:10;stroke-dasharray:none;stroke-opacity:1"
       transform="matrix(1.3333333,0,0,-1.3333333,71.497333,20.852)" />
    <path
       id="path52"
       d="m 0.797,0 c -0.99625,0.19925 -1.99251,0.59775 -3.18802,1.29512 1.19551,-0.89662 1.19551,-1.69362 0,-2.59024 C -1.19551,-0.59775 -0.19925,-0.19925 0.797,0 Z"
       style="fill:#000000;fill-opacity:1;fill-rule:nonzero;stroke:#000000;stroke-width:0.3985;stroke-linecap:butt;stroke-linejoin:round;stroke-miterlimit:10;stroke-dasharray:none;stroke-opacity:1"
       transform="matrix(1.3333333,0,0,-1.3333333,359.499,20.852)" />
    <path
       id="path53"
       d="m 3.2701484,-1.2767891 c -0.09375,-0.984375 -0.4921875,-1.6289062 -0.5039062,-1.640625 -0.1757813,-0.2695312 -0.46875,-0.5976562 -0.9960938,-0.5976562 -1.03124996,0 -1.62890621,1.1601562 -1.62890621,1.4414062 0,0.070312 0.0703125,0.09375 0.1171875,0.09375 0.0820313,0 0.10546875,-0.023437 0.12890625,-0.09375 0.24609375,-0.7148437 1.03124996,-0.8203125 1.26562496,-0.8203125 1.2890625,0 1.3828125,1.3828125 1.3828125,2.06250004 0,0.43359375 -0.023437,0.50390625 -0.082031,0.69140625 -0.1757813,0.5625 -0.4101563,1.45312501 -0.4101563,1.67578121 0,0.023437 0.011719,0.1757813 0.1289063,0.1757813 0.09375,0 0.1640625,-0.1171875 0.234375,-0.3164063 0.2226562,-0.73828121 0.2929687,-1.26562496 0.3398437,-1.62890621 0.023437,-0.1640625 0.4804688,-1.49999999 1.21875,-2.89453129 0.09375,-0.1757812 0.09375,-0.1875 0.09375,-0.2109375 0,-0.011719 0,-0.09375 -0.1171875,-0.09375 -0.035156,0 -0.070312,0.011719 -0.09375,0.035156 -0.023437,0.023437 -0.65625,1.1953125 -1.0546875,2.2851562 z m 0,0"
       style="fill:#000000;fill-opacity:1;fill-rule:nonzero;stroke:none"
       aria-label="γ"
       transform="matrix(1.3333333,0,0,1.3333333,300.90933,17.190667)" />
    <path
       id="path54"
       d="M 109.85442,-14.23952 88.81078,-60.59834"
       style="fill:none;stroke:#000000;stroke-width:0.3985;stroke-linecap:butt;stroke-linejoin:miter;stroke-miterlimit:10;stroke-dasharray:none;stroke-opacity:1"
       transform="matrix(1.3333333,0,0,-1.3333333,71.497333,20.852)" />
    <path
       id="path55"
       d="m 0.797,0 c -0.99625,0.19925 -1.99251,0.59775 -3.18802,1.29512 1.19551,-0.89662 1.19551,-1.69362 0,-2.59024 C -1.19551,-0.59775 -0.19925,-0.19925 0.797,0 Z"
       style="fill:#000000;fill-opacity:1;fill-rule:nonzero;stroke:#000000;stroke-width:0.3985;stroke-linecap:butt;stroke-linejoin:round;stroke-miterlimit:10;stroke-dasharray:none;stroke-opacity:1"
       transform="matrix(-0.55108,1.2140267,1.2140267,0.55108,189.91171,101.64979)" />
    <g
       id="g55"
       aria-label="η&#10;(1)"
       transform="matrix(1.3333333,0,0,1.3333333,205.25867,82.669333)">
      <path
         id="path56"
         d="m 4.1477969,-2.2041484 c 0.035156,-0.1171875 0.070312,-0.2460938 0.070312,-0.421875 0,-0.5976563 -0.421875,-0.890625 -0.9960938,-0.890625 -0.6445312,0 -1.0546875,0.3867187 -1.2890625,0.6914062 -0.058594,-0.4335937 -0.3984375,-0.6914062 -0.8085937,-0.6914062 -0.29296877,0 -0.49218752,0.1875 -0.60937502,0.4335937 -0.1875,0.3515625 -0.28125,0.7617188 -0.28125,0.7851563 0,0.070312 0.0585938,0.1054687 0.12890625,0.1054687 0.09375,0 0.10546875,-0.035156 0.1640625,-0.234375 0.10546875,-0.4101562 0.24609375,-0.8671875 0.57421877,-0.8671875 0.1992187,0 0.2578125,0.1875 0.2578125,0.375 0,0.140625 -0.046875,0.2929688 -0.1054688,0.5625 -0.023437,0.058594 -0.140625,0.5273438 -0.1757812,0.6445313 l -0.29296877,1.19531246 c -0.0234375,0.1171875 -0.0703125,0.31640625 -0.0703125,0.3515625 0,0.17578125 0.140625,0.24609375 0.24609375,0.24609375 0.15234372,0 0.26953122,-0.09375 0.31640622,-0.19921875 0.035156,-0.046875 0.09375,-0.31640625 0.1289063,-0.48046875 l 0.1875,-0.71484371 c 0.023437,-0.1171875 0.1054687,-0.421875 0.1289062,-0.5390625 0.1054688,-0.421875 0.1054688,-0.4335938 0.2929688,-0.703125 0.2578125,-0.3867188 0.6328125,-0.7382813 1.171875,-0.7382813 0.28125,0 0.4570312,0.1640625 0.4570312,0.5390625 0,0.1523438 -0.070312,0.4453125 -0.070312,0.4570313 L 2.6712344,1.2763203 c -0.023437,0.1289063 -0.023437,0.1757813 -0.023437,0.1875 0,0.1992188 0.1523437,0.2460938 0.2578125,0.2460938 0.2695312,0 0.3398437,-0.2578125 0.3632812,-0.3515625 z m 0,0"
         style="fill:#000000;fill-opacity:1;fill-rule:nonzero;stroke:none" />
      <path
         id="path57"
         d="m 6.9163516,-1.4658672 c -0.65625,-0.5039062 -1.1953125,-1.4414062 -1.1953125,-2.8359375 0,-1.3828125 0.5273437,-2.34375 1.1953125,-2.8476562 0,-0.011719 0.023437,-0.035156 0.023437,-0.058594 0,-0.035156 -0.035156,-0.082031 -0.1054688,-0.082031 -0.1054687,0 -1.546875,0.9375 -1.546875,2.9882812 0,2.0390625 1.4414063,2.9765625 1.546875,2.9765625 0.070312,0 0.1054688,-0.046875 0.1054688,-0.082031 0,-0.023437 -0.023437,-0.046875 -0.023437,-0.058594 z m 2.6425781,-5.1445312 c 0,-0.1757813 -0.023437,-0.1757813 -0.1992188,-0.1757813 -0.3984375,0.375 -1.0078125,0.375 -1.21875,0.375 v 0.234375 c 0.1523438,0 0.5507813,0 0.9023438,-0.1640625 v 3.0234375 c 0,0.1875 0,0.2695313 -0.609375,0.2695313 H 8.1761172 v 0.234375 c 0.328125,-0.023437 0.796875,-0.023437 1.125,-0.023437 0.3398437,0 0.7968748,0 1.1367188,0.023437 v -0.234375 h -0.257813 c -0.6210933,0 -0.6210933,-0.082031 -0.6210933,-0.2695313 z m 3.6298833,2.3085937 c 0,-2.0507812 -1.441407,-2.9882812 -1.558594,-2.9882812 -0.07031,0 -0.08203,0.046875 -0.08203,0.082031 0,0.035156 0,0.035156 0.105468,0.1289063 0.539063,0.46875 1.101563,1.3476562 1.101563,2.7773437 0,1.265625 -0.445313,2.2148438 -1.125,2.7773438 -0.08203,0.082031 -0.08203,0.082031 -0.08203,0.1171875 0,0.035156 0.01172,0.082031 0.08203,0.082031 0.117187,0 1.558594,-0.9375 1.558594,-2.9765625 z m 0,0"
         style="fill:#000000;fill-opacity:1;fill-rule:nonzero;stroke:none" />
    </g>
    <path
       id="path58"
       d="M 122.96953,-14.15338 144.3139,-59.5732"
       style="fill:none;stroke:#000000;stroke-width:0.3985;stroke-linecap:butt;stroke-linejoin:miter;stroke-miterlimit:10;stroke-dasharray:none;stroke-opacity:1"
       transform="matrix(1.3333333,0,0,-1.3333333,71.497333,20.852)" />
    <path
       id="path59"
       d="m 0.797,0 c -0.99625,0.19925 -1.99251,0.59775 -3.18802,1.29512 1.19551,-0.89662 1.19551,-1.69362 0,-2.59024 C -1.19551,-0.59775 -0.19925,-0.19925 0.797,0 Z"
       style="fill:#000000;fill-opacity:1;fill-rule:nonzero;stroke:#000000;stroke-width:0.3985;stroke-linecap:butt;stroke-linejoin:round;stroke-miterlimit:10;stroke-dasharray:none;stroke-opacity:1"
       transform="matrix(0.56708,1.20668,1.20668,-0.56708,263.91585,100.28293)" />
    <g
       id="g59"
       aria-label="η&#10;(m)"
       transform="matrix(1.3333333,0,0,1.3333333,251.56133,66.942667)">
      <path
         id="path60"
         d="m 4.1493125,-2.2040703 c 0.035156,-0.1171875 0.070312,-0.2460938 0.070312,-0.421875 0,-0.5976563 -0.421875,-0.890625 -0.9960937,-0.890625 -0.6445313,0 -1.0546875,0.3867187 -1.2890625,0.6914062 -0.058594,-0.4335937 -0.3984375,-0.6914062 -0.8085938,-0.6914062 -0.29296875,0 -0.4921875,0.1875 -0.609375,0.4335937 -0.1875,0.3515625 -0.28125,0.7617188 -0.28125,0.7851563 0,0.070312 0.0585938,0.1054687 0.12890625,0.1054687 0.09375,0 0.10546875,-0.035156 0.1640625,-0.234375 C 0.633687,-2.8368828 0.774312,-3.2939141 1.102437,-3.2939141 c 0.1992188,0 0.2578125,0.1875 0.2578125,0.375 0,0.140625 -0.046875,0.2929688 -0.1054687,0.5625 -0.023437,0.058594 -0.140625,0.5273438 -0.1757813,0.6445313 l -0.29296875,1.19531249 c -0.0234375,0.1171875 -0.0703125,0.31640625 -0.0703125,0.3515625 0,0.17578125 0.140625,0.24609375 0.24609375,0.24609375 0.1523438,0 0.2695313,-0.09375 0.3164063,-0.19921875 0.035156,-0.046875 0.09375,-0.31640625 0.1289062,-0.48046875 l 0.1875,-0.71484374 C 1.6180625,-1.4306328 1.7000938,-1.7353203 1.7235313,-1.8525078 1.829,-2.2743828 1.829,-2.2861016 2.0165,-2.5556328 c 0.2578125,-0.3867188 0.6328125,-0.7382813 1.171875,-0.7382813 0.28125,0 0.4570313,0.1640625 0.4570313,0.5390625 0,0.1523438 -0.070312,0.4453125 -0.070312,0.4570313 L 2.67275,1.2763984 c -0.023437,0.1289063 -0.023437,0.1757813 -0.023437,0.1875 0,0.1992188 0.1523438,0.2460938 0.2578125,0.2460938 0.2695313,0 0.3398438,-0.2578125 0.3632813,-0.3515625 z m 0,0"
         style="fill:#000000;fill-opacity:1;fill-rule:nonzero;stroke:none" />
      <path
         id="path61"
         d="M 6.9149375,-1.4657891 C 6.2586875,-1.9696953 5.719625,-2.9071953 5.719625,-4.3017266 c 0,-1.3828125 0.5273438,-2.34375 1.1953125,-2.8476562 0,-0.011719 0.023437,-0.035156 0.023437,-0.058594 0,-0.035156 -0.035156,-0.082031 -0.1054687,-0.082031 -0.1054688,0 -1.546875,0.9375 -1.546875,2.9882812 0,2.0390625 1.4414062,2.9765625 1.546875,2.9765625 0.070312,0 0.1054687,-0.046875 0.1054687,-0.082031 0,-0.023437 -0.023437,-0.046875 -0.023437,-0.058594 z m 0,0"
         style="fill:#000000;fill-opacity:1;fill-rule:nonzero;stroke:none" />
      <path
         id="path62"
         d="m 10.237203,-3.3290703 c -0.02344,0.1289062 -0.08203,0.3398437 -0.08203,0.375 0,0.1289062 0.105469,0.1992187 0.210937,0.1992187 0.105469,0 0.210938,-0.070312 0.257813,-0.1640625 0.01172,-0.035156 0.05859,-0.2460937 0.09375,-0.3632812 l 0.128906,-0.5390625 c 0.04687,-0.1523438 0.07031,-0.2578125 0.105469,-0.3984375 0.05859,-0.1992188 0.257812,-0.515625 0.480469,-0.7382813 0.117187,-0.1171875 0.375,-0.2929687 0.703125,-0.2929687 0.386718,0 0.386718,0.3046875 0.386718,0.421875 0,0.3515625 -0.257812,0.984375 -0.375,1.2539062 -0.03516,0.1054688 -0.07031,0.1992188 -0.07031,0.3046875 0,0.3046875 0.269531,0.515625 0.597656,0.515625 0.609375,0 0.902344,-0.7851562 0.902344,-0.9140625 0,-0.011719 0,-0.09375 -0.105469,-0.09375 -0.09375,0 -0.09375,0.035156 -0.128906,0.1523438 -0.105469,0.3398437 -0.363281,0.65625 -0.644531,0.65625 -0.08203,0 -0.164063,-0.035156 -0.164063,-0.2109375 0,-0.1171875 0.04687,-0.2226563 0.09375,-0.3515625 0.07031,-0.1640625 0.363281,-0.890625 0.363281,-1.2421875 0,-0.4921875 -0.375,-0.6914063 -0.832031,-0.6914063 -0.328125,0 -0.714844,0.1171875 -1.101562,0.6328125 -0.03516,-0.4453125 -0.398438,-0.6328125 -0.832032,-0.6328125 -0.2929684,0 -0.6796871,0.09375 -1.0664059,0.5742188 -0.023437,-0.4570313 -0.4453125,-0.5742188 -0.6679687,-0.5742188 -0.234375,0 -0.3867188,0.140625 -0.4921875,0.328125 -0.1523438,0.2578125 -0.2226563,0.5742188 -0.2226563,0.5859375 0,0.070312 0.058594,0.09375 0.1054688,0.09375 0.09375,0 0.1054687,-0.046875 0.140625,-0.140625 0.1171875,-0.46875 0.2578125,-0.6679687 0.4453125,-0.6679687 0.2109375,0 0.2226562,0.2109375 0.2226562,0.3046875 0,0.09375 -0.058594,0.328125 -0.1054687,0.5039062 -0.046875,0.1640625 -0.1054688,0.3984375 -0.1289063,0.5390625 -0.046875,0.140625 -0.082031,0.3046875 -0.1171875,0.4453125 -0.046875,0.1757813 -0.1171875,0.46875 -0.1171875,0.5039063 0,0.1289062 0.1054688,0.1992187 0.2109375,0.1992187 0.1054688,0 0.2109375,-0.070312 0.2578125,-0.1640625 0.011719,-0.035156 0.058594,-0.2460937 0.09375,-0.3632812 l 0.1289063,-0.5390625 c 0.046875,-0.1523438 0.070312,-0.2578125 0.1054687,-0.3984375 0.046875,-0.1992188 0.2578125,-0.515625 0.4804688,-0.7382813 0.1171875,-0.1171875 0.375,-0.2929687 0.7031251,-0.2929687 0.375,0 0.375,0.3046875 0.375,0.421875 0,0.140625 -0.05859,0.375 -0.105469,0.5742187 z m 0,0"
         style="fill:#000000;fill-opacity:1;fill-rule:nonzero;stroke:none" />
      <path
         id="path63"
         d="m 16.073141,-4.3017266 c 0,-2.0507812 -1.441407,-2.9882812 -1.558594,-2.9882812 -0.07031,0 -0.08203,0.046875 -0.08203,0.082031 0,0.035156 0,0.035156 0.105468,0.1289063 0.539063,0.46875 1.101563,1.3476562 1.101563,2.7773437 0,1.265625 -0.445313,2.2148438 -1.125,2.7773438 -0.08203,0.082031 -0.08203,0.082031 -0.08203,0.1171875 0,0.035156 0.01172,0.082031 0.08203,0.082031 0.117187,0 1.558594,-0.9375 1.558594,-2.9765625 z m 0,0"
         style="fill:#000000;fill-opacity:1;fill-rule:nonzero;stroke:none" />
    </g>
    <path
       id="path64"
       d="m 248.27525,0 h 41.52396"
       style="fill:none;stroke:#000000;stroke-width:0.3985;stroke-linecap:butt;stroke-linejoin:miter;stroke-miterlimit:10;stroke-dasharray:none;stroke-opacity:1"
       transform="matrix(1.3333333,0,0,-1.3333333,71.497333,20.852)" />
    <path
       id="path65"
       d="m 0.797,0 c -0.99625,0.19925 -1.99251,0.59775 -3.18802,1.29512 1.19551,-0.89662 1.19551,-1.69362 0,-2.59024 C -1.19551,-0.59775 -0.19925,-0.19925 0.797,0 Z"
       style="fill:#000000;fill-opacity:1;fill-rule:nonzero;stroke:#000000;stroke-width:0.3985;stroke-linecap:butt;stroke-linejoin:round;stroke-miterlimit:10;stroke-dasharray:none;stroke-opacity:1"
       transform="matrix(1.3333333,0,0,-1.3333333,457.89628,20.852)" />
    <path
       id="path66"
       d="m 3.2697891,-1.2767891 c -0.09375,-0.984375 -0.4921875,-1.6289062 -0.5039063,-1.640625 -0.1757812,-0.2695312 -0.46875,-0.5976562 -0.9960937,-0.5976562 -1.03125004,0 -1.62890629,1.1601562 -1.62890629,1.4414062 0,0.070312 0.0703125,0.09375 0.1171875,0.09375 0.0820313,0 0.10546875,-0.023437 0.12890625,-0.09375 0.24609375,-0.7148437 1.03125004,-0.8203125 1.26562504,-0.8203125 1.2890625,0 1.3828125,1.3828125 1.3828125,2.06250004 0,0.43359375 -0.023437,0.50390625 -0.082031,0.69140625 -0.1757812,0.5625 -0.4101562,1.45312501 -0.4101562,1.67578121 0,0.023437 0.011719,0.1757813 0.1289062,0.1757813 0.09375,0 0.1640625,-0.1171875 0.234375,-0.3164063 0.2226563,-0.73828121 0.2929688,-1.26562496 0.3398438,-1.62890621 0.023437,-0.1640625 0.4804687,-1.49999999 1.21875,-2.89453129 0.09375,-0.1757812 0.09375,-0.1875 0.09375,-0.2109375 0,-0.011719 0,-0.09375 -0.1171875,-0.09375 -0.035156,0 -0.070312,0.011719 -0.09375,0.035156 -0.023437,0.023437 -0.65625,1.1953125 -1.0546875,2.2851562 z m 0,0"
       style="fill:#000000;fill-opacity:1;fill-rule:nonzero;stroke:none"
       aria-label="γ"
       transform="matrix(1.3333333,0,0,1.3333333,427.652,17.190667)" />
    <path
       id="path67"
       d="M 226.1726,-14.23952 205.12897,-60.59834"
       style="fill:none;stroke:#000000;stroke-width:0.3985;stroke-linecap:butt;stroke-linejoin:miter;stroke-miterlimit:10;stroke-dasharray:none;stroke-opacity:1"
       transform="matrix(1.3333333,0,0,-1.3333333,71.497333,20.852)" />
    <path
       id="path68"
       d="m 0.797,0 c -0.99625,0.19925 -1.99251,0.59775 -3.18802,1.29512 1.19551,-0.89662 1.19551,-1.69362 0,-2.59024 C -1.19551,-0.59775 -0.19925,-0.19925 0.797,0 Z"
       style="fill:#000000;fill-opacity:1;fill-rule:nonzero;stroke:#000000;stroke-width:0.3985;stroke-linecap:butt;stroke-linejoin:round;stroke-miterlimit:10;stroke-dasharray:none;stroke-opacity:1"
       transform="matrix(-0.55108,1.2140267,1.2140267,0.55108,345.00263,101.64979)" />
    <g
       id="g68"
       aria-label="η&#10;(1)"
       transform="matrix(1.3333333,0,0,1.3333333,360.348,82.669333)">
      <path
         id="path69"
         d="m 4.1481797,-2.2041484 c 0.035156,-0.1171875 0.070312,-0.2460938 0.070312,-0.421875 0,-0.5976563 -0.421875,-0.890625 -0.9960938,-0.890625 -0.6445312,0 -1.0546875,0.3867187 -1.2890625,0.6914062 -0.058594,-0.4335937 -0.3984375,-0.6914062 -0.8085937,-0.6914062 -0.29296876,0 -0.49218751,0.1875 -0.60937501,0.4335937 -0.1875,0.3515625 -0.28125,0.7617188 -0.28125,0.7851563 0,0.070312 0.0585937,0.1054687 0.12890625,0.1054687 0.09375,0 0.10546875,-0.035156 0.1640625,-0.234375 0.10546875,-0.4101562 0.24609375,-0.8671875 0.57421876,-0.8671875 0.1992187,0 0.2578125,0.1875 0.2578125,0.375 0,0.140625 -0.046875,0.2929688 -0.1054688,0.5625 -0.023437,0.058594 -0.140625,0.5273438 -0.1757812,0.6445313 l -0.29296876,1.19531246 c -0.0234375,0.1171875 -0.0703125,0.31640625 -0.0703125,0.3515625 0,0.17578125 0.140625,0.24609375 0.24609375,0.24609375 0.15234371,0 0.26953121,-0.09375 0.31640621,-0.19921875 0.035156,-0.046875 0.09375,-0.31640625 0.1289063,-0.48046875 l 0.1875,-0.71484371 c 0.023437,-0.1171875 0.1054687,-0.421875 0.1289062,-0.5390625 0.1054688,-0.421875 0.1054688,-0.4335938 0.2929688,-0.703125 0.2578125,-0.3867188 0.6328125,-0.7382813 1.171875,-0.7382813 0.28125,0 0.4570312,0.1640625 0.4570312,0.5390625 0,0.1523438 -0.070312,0.4453125 -0.070312,0.4570313 L 2.6716172,1.2763203 c -0.023437,0.1289063 -0.023437,0.1757813 -0.023437,0.1875 0,0.1992188 0.1523437,0.2460938 0.2578125,0.2460938 0.2695312,0 0.3398437,-0.2578125 0.3632812,-0.3515625 z m 0,0"
         style="fill:#000000;fill-opacity:1;fill-rule:nonzero;stroke:none" />
      <path
         id="path70"
         d="m 6.9138047,-1.4658672 c -0.65625,-0.5039062 -1.1953125,-1.4414062 -1.1953125,-2.8359375 0,-1.3828125 0.5273437,-2.34375 1.1953125,-2.8476562 0,-0.011719 0.023437,-0.035156 0.023437,-0.058594 0,-0.035156 -0.035156,-0.082031 -0.1054688,-0.082031 -0.1054687,0 -1.546875,0.9375 -1.546875,2.9882812 0,2.0390625 1.4414063,2.9765625 1.546875,2.9765625 0.070312,0 0.1054688,-0.046875 0.1054688,-0.082031 0,-0.023437 -0.023437,-0.046875 -0.023437,-0.058594 z m 2.6425781,-5.1445312 c 0,-0.1757813 -0.023437,-0.1757813 -0.1992187,-0.1757813 -0.3984375,0.375 -1.0078125,0.375 -1.21875,0.375 v 0.234375 c 0.1523437,0 0.5507812,0 0.9023437,-0.1640625 v 3.0234375 c 0,0.1875 0,0.2695313 -0.609375,0.2695313 H 8.1735703 v 0.234375 c 0.328125,-0.023437 0.796875,-0.023437 1.125,-0.023437 0.3398438,0 0.7968747,0 1.1367187,0.023437 v -0.234375 h -0.257812 c -0.6210942,0 -0.6210942,-0.082031 -0.6210942,-0.2695313 z m 3.6298832,2.3085937 c 0,-2.0507812 -1.441407,-2.9882812 -1.558594,-2.9882812 -0.07031,0 -0.08203,0.046875 -0.08203,0.082031 0,0.035156 0,0.035156 0.105468,0.1289063 0.539063,0.46875 1.101563,1.3476562 1.101563,2.7773437 0,1.265625 -0.445313,2.2148438 -1.125,2.7773438 -0.08203,0.082031 -0.08203,0.082031 -0.08203,0.1171875 0,0.035156 0.01172,0.082031 0.08203,0.082031 0.117187,0 1.558594,-0.9375 1.558594,-2.9765625 z m 0,0"
         style="fill:#000000;fill-opacity:1;fill-rule:nonzero;stroke:none" />
    </g>
    <path
       id="path71"
       d="M 239.28772,-14.15338 260.63211,-59.5732"
       style="fill:none;stroke:#000000;stroke-width:0.3985;stroke-linecap:butt;stroke-linejoin:miter;stroke-miterlimit:10;stroke-dasharray:none;stroke-opacity:1"
       transform="matrix(1.3333333,0,0,-1.3333333,71.497333,20.852)" />
    <path
       id="path72"
       d="m 0.797,0 c -0.99625,0.19925 -1.99251,0.59775 -3.18802,1.29512 1.19551,-0.89662 1.19551,-1.69362 0,-2.59024 C -1.19551,-0.59775 -0.19925,-0.19925 0.797,0 Z"
       style="fill:#000000;fill-opacity:1;fill-rule:nonzero;stroke:#000000;stroke-width:0.3985;stroke-linecap:butt;stroke-linejoin:round;stroke-miterlimit:10;stroke-dasharray:none;stroke-opacity:1"
       transform="matrix(0.56708,1.20668,1.20668,-0.56708,419.0068,100.28293)" />
    <g
       id="g72"
       aria-label="η&#10;(m)"
       transform="matrix(1.3333333,0,0,1.3333333,406.64933,66.942667)">
      <path
         id="path73"
         d="m 4.1477656,-2.2040703 c 0.035156,-0.1171875 0.070312,-0.2460938 0.070312,-0.421875 0,-0.5976563 -0.421875,-0.890625 -0.9960937,-0.890625 -0.6445313,0 -1.0546875,0.3867187 -1.2890625,0.6914062 -0.058594,-0.4335937 -0.3984375,-0.6914062 -0.8085938,-0.6914062 -0.29296872,0 -0.49218747,0.1875 -0.60937497,0.4335937 -0.1875,0.3515625 -0.28125,0.7617188 -0.28125,0.7851563 0,0.070312 0.0585937,0.1054687 0.12890625,0.1054687 0.09375,0 0.10546875,-0.035156 0.1640625,-0.234375 0.10546875,-0.4101562 0.24609375,-0.8671875 0.57421872,-0.8671875 0.1992188,0 0.2578125,0.1875 0.2578125,0.375 0,0.140625 -0.046875,0.2929688 -0.1054687,0.5625 -0.023437,0.058594 -0.140625,0.5273438 -0.1757813,0.6445313 l -0.29296872,1.19531249 c -0.0234375,0.1171875 -0.0703125,0.31640625 -0.0703125,0.3515625 0,0.17578125 0.140625,0.24609375 0.24609375,0.24609375 0.15234377,0 0.26953127,-0.09375 0.31640627,-0.19921875 0.035156,-0.046875 0.09375,-0.31640625 0.1289062,-0.48046875 l 0.1875,-0.71484374 c 0.023437,-0.1171875 0.1054688,-0.421875 0.1289063,-0.5390625 0.1054687,-0.421875 0.1054687,-0.4335938 0.2929687,-0.703125 0.2578125,-0.3867188 0.6328125,-0.7382813 1.171875,-0.7382813 0.28125,0 0.4570313,0.1640625 0.4570313,0.5390625 0,0.1523438 -0.070312,0.4453125 -0.070312,0.4570313 L 2.6712031,1.2763984 c -0.023437,0.1289063 -0.023437,0.1757813 -0.023437,0.1875 0,0.1992188 0.1523438,0.2460938 0.2578125,0.2460938 0.2695313,0 0.3398438,-0.2578125 0.3632813,-0.3515625 z m 0,0"
         style="fill:#000000;fill-opacity:1;fill-rule:nonzero;stroke:none" />
      <path
         id="path74"
         d="m 6.9163203,-1.4657891 c -0.65625,-0.5039062 -1.1953125,-1.4414062 -1.1953125,-2.8359375 0,-1.3828125 0.5273438,-2.34375 1.1953125,-2.8476562 0,-0.011719 0.023437,-0.035156 0.023437,-0.058594 0,-0.035156 -0.035156,-0.082031 -0.1054687,-0.082031 -0.1054688,0 -1.546875,0.9375 -1.546875,2.9882812 0,2.0390625 1.4414062,2.9765625 1.546875,2.9765625 0.070312,0 0.1054687,-0.046875 0.1054687,-0.082031 0,-0.023437 -0.023437,-0.046875 -0.023437,-0.058594 z m 0,0"
         style="fill:#000000;fill-opacity:1;fill-rule:nonzero;stroke:none" />
      <path
         id="path75"
         d="m 10.238586,-3.3290703 c -0.02344,0.1289062 -0.08203,0.3398437 -0.08203,0.375 0,0.1289062 0.105468,0.1992187 0.210937,0.1992187 0.105469,0 0.210938,-0.070312 0.257813,-0.1640625 0.01172,-0.035156 0.05859,-0.2460937 0.09375,-0.3632812 l 0.128906,-0.5390625 c 0.04687,-0.1523438 0.07031,-0.2578125 0.105469,-0.3984375 0.05859,-0.1992188 0.257812,-0.515625 0.480468,-0.7382813 0.117188,-0.1171875 0.375,-0.2929687 0.703125,-0.2929687 0.386719,0 0.386719,0.3046875 0.386719,0.421875 0,0.3515625 -0.257812,0.984375 -0.375,1.2539062 -0.03516,0.1054688 -0.07031,0.1992188 -0.07031,0.3046875 0,0.3046875 0.269531,0.515625 0.597656,0.515625 0.609375,0 0.902344,-0.7851562 0.902344,-0.9140625 0,-0.011719 0,-0.09375 -0.105469,-0.09375 -0.09375,0 -0.09375,0.035156 -0.128906,0.1523438 -0.105469,0.3398437 -0.363282,0.65625 -0.644532,0.65625 -0.08203,0 -0.164062,-0.035156 -0.164062,-0.2109375 0,-0.1171875 0.04687,-0.2226563 0.09375,-0.3515625 0.07031,-0.1640625 0.363281,-0.890625 0.363281,-1.2421875 0,-0.4921875 -0.375,-0.6914063 -0.832031,-0.6914063 -0.328125,0 -0.714844,0.1171875 -1.101563,0.6328125 -0.03516,-0.4453125 -0.398437,-0.6328125 -0.832031,-0.6328125 -0.2929686,0 -0.6796873,0.09375 -1.0664061,0.5742188 -0.023437,-0.4570313 -0.4453125,-0.5742188 -0.6679687,-0.5742188 -0.234375,0 -0.3867188,0.140625 -0.4921875,0.328125 -0.1523438,0.2578125 -0.2226563,0.5742188 -0.2226563,0.5859375 0,0.070312 0.058594,0.09375 0.1054688,0.09375 0.09375,0 0.1054687,-0.046875 0.140625,-0.140625 0.1171875,-0.46875 0.2578125,-0.6679687 0.4453125,-0.6679687 0.2109375,0 0.2226562,0.2109375 0.2226562,0.3046875 0,0.09375 -0.058594,0.328125 -0.1054687,0.5039062 -0.046875,0.1640625 -0.1054688,0.3984375 -0.1289063,0.5390625 -0.046875,0.140625 -0.082031,0.3046875 -0.1171875,0.4453125 -0.046875,0.1757813 -0.1171875,0.46875 -0.1171875,0.5039063 0,0.1289062 0.1054688,0.1992187 0.2109375,0.1992187 0.1054688,0 0.2109375,-0.070312 0.2578125,-0.1640625 0.011719,-0.035156 0.058594,-0.2460937 0.09375,-0.3632812 l 0.1289063,-0.5390625 c 0.046875,-0.1523438 0.070312,-0.2578125 0.1054687,-0.3984375 0.046875,-0.1992188 0.2578125,-0.515625 0.4804688,-0.7382813 0.1171875,-0.1171875 0.375,-0.2929687 0.7031253,-0.2929687 0.375,0 0.375,0.3046875 0.375,0.421875 0,0.140625 -0.05859,0.375 -0.105469,0.5742187 z m 0,0"
         style="fill:#000000;fill-opacity:1;fill-rule:nonzero;stroke:none" />
      <path
         id="path76"
         d="m 16.074523,-4.3017266 c 0,-2.0507812 -1.441406,-2.9882812 -1.558593,-2.9882812 -0.07031,0 -0.08203,0.046875 -0.08203,0.082031 0,0.035156 0,0.035156 0.105469,0.1289063 0.539063,0.46875 1.101563,1.3476562 1.101563,2.7773437 0,1.265625 -0.445313,2.2148438 -1.125,2.7773438 -0.08203,0.082031 -0.08203,0.082031 -0.08203,0.1171875 0,0.035156 0.01172,0.082031 0.08203,0.082031 0.117187,0 1.558593,-0.9375 1.558593,-2.9765625 z m 0,0"
         style="fill:#000000;fill-opacity:1;fill-rule:nonzero;stroke:none" />
    </g>
  </g>
</svg>
