<svg xmlns="http://www.w3.org/2000/svg" viewBox="0 0 800 300" width="800" height="300">

  <rect width="800" height="300" fill="#0d1f2e"/>
  <rect x="0" y="210" width="800" height="90" fill="#0a1a24"/>

  <line x1="0" y1="60" x2="800" y2="60" stroke="#1a3248" stroke-width="1"/>
  <line x1="0" y1="120" x2="800" y2="120" stroke="#1a3248" stroke-width="1"/>
  <line x1="0" y1="180" x2="800" y2="180" stroke="#1a3248" stroke-width="1"/>
  <line x1="0" y1="240" x2="800" y2="240" stroke="#1a3248" stroke-width="1"/>

  <circle cx="490" cy="105" r="6" fill="#e8854a" opacity="0.9"/>
  <circle cx="520" cy="88" r="6" fill="#e8854a" opacity="0.9"/>
  <circle cx="535" cy="130" r="6" fill="#e8854a" opacity="0.9"/>
  <circle cx="555" cy="118" r="6" fill="#e8854a" opacity="0.9"/>
  <circle cx="570" cy="95" r="6" fill="#e8854a" opacity="0.9"/>
  <circle cx="590" cy="78" r="6" fill="#e8854a" opacity="0.9"/>
  <circle cx="600" cy="108" r="6" fill="#e8854a" opacity="0.9"/>
  <circle cx="618" cy="92" r="6" fill="#e8854a" opacity="0.9"/>
  <circle cx="635" cy="68" r="6" fill="#e8854a" opacity="0.9"/>
  <circle cx="650" cy="85" r="6" fill="#e8854a" opacity="0.9"/>
  <circle cx="665" cy="102" r="6" fill="#e8854a" opacity="0.9"/>
  <circle cx="680" cy="72" r="6" fill="#e8854a" opacity="0.9"/>
  <circle cx="695" cy="58" r="6" fill="#e8854a" opacity="0.9"/>
  <circle cx="710" cy="80" r="6" fill="#9b6fd4" opacity="0.9"/>
  <circle cx="475" cy="148" r="6" fill="#9b6fd4" opacity="0.9"/>
  <circle cx="500" cy="162" r="6" fill="#9b6fd4" opacity="0.9"/>
  <circle cx="515" cy="175" r="6" fill="#9b6fd4" opacity="0.9"/>
  <circle cx="540" cy="168" r="6" fill="#9b6fd4" opacity="0.9"/>
  <circle cx="558" cy="185" r="6" fill="#9b6fd4" opacity="0.9"/>
  <circle cx="572" cy="158" r="6" fill="#9b6fd4" opacity="0.9"/>
  <circle cx="590" cy="172" r="6" fill="#9b6fd4" opacity="0.9"/>
  <circle cx="605" cy="190" r="6" fill="#9b6fd4" opacity="0.9"/>
  <circle cx="622" cy="165" r="6" fill="#9b6fd4" opacity="0.9"/>
  <circle cx="640" cy="178" r="6" fill="#9b6fd4" opacity="0.9"/>
  <circle cx="658" cy="155" r="6" fill="#9b6fd4" opacity="0.9"/>
  <circle cx="675" cy="182" r="6" fill="#9b6fd4" opacity="0.9"/>

  <line x1="455" y1="200" x2="730" y2="50" stroke="#7ecfff" stroke-width="2" stroke-dasharray="6 3" opacity="0.6"/>

  <rect x="440" y="220" width="12" height="12" rx="2" fill="#e8854a"/>
  <text x="458" y="231" font-family="'Helvetica Neue', Helvetica, Arial, sans-serif" font-size="13" fill="#5a8fb0">group A</text>
  <circle cx="534" cy="226" r="6" fill="#9b6fd4"/>
  <text x="546" y="231" font-family="'Helvetica Neue', Helvetica, Arial, sans-serif" font-size="13" fill="#5a8fb0">group B</text>
  <line x1="614" y1="226" x2="630" y2="226" stroke="#7ecfff" stroke-width="2" stroke-dasharray="4 2" opacity="0.6"/>
  <text x="636" y="231" font-family="'Helvetica Neue', Helvetica, Arial, sans-serif" font-size="13" fill="#5a8fb0">trend</text>

  <rect x="0" y="0" width="420" height="300" fill="#0d1f2e"/>

  <text x="48" y="148"
    font-family="'Helvetica Neue', Helvetica, Arial, sans-serif"
    font-size="92" font-weight="700" letter-spacing="-2"
    fill="#ffffff">PSTAT</text>

  <text x="48" y="232"
    font-family="'Helvetica Neue', Helvetica, Arial, sans-serif"
    font-size="92" font-weight="700" letter-spacing="-2"
    fill="#e8854a">10</text>

  <text x="48" y="268"
    font-family="'Helvetica Neue', Helvetica, Arial, sans-serif"
    font-size="15" font-weight="400" letter-spacing="3"
    fill="#5a8fb0">DATA SCIENCE FUNDAMENTALS</text>

  <line x1="420" y1="0" x2="420" y2="300" stroke="#1e3d58" stroke-width="1.5"/>

</svg>
