<?xml version="1.0" encoding="UTF-8" standalone="no"?>
<!-- Created with Inkscape (http://www.inkscape.org/) -->

<svg
   version="1.1"
   id="svg1"
   width="276.46667"
   height="186.80267"
   viewBox="0 0 276.46667 186.80267"
   sodipodi:docname="transition-probabilities-3s.svg"
   inkscape:version="1.4.2 (ebf0e940, 2025-05-08)"
   xmlns:inkscape="http://www.inkscape.org/namespaces/inkscape"
   xmlns:sodipodi="http://sodipodi.sourceforge.net/DTD/sodipodi-0.dtd"
   xmlns="http://www.w3.org/2000/svg"
   xmlns:svg="http://www.w3.org/2000/svg">
  <defs
     id="defs1">
    <rect
       x="101.18117"
       y="182.77889"
       width="7.3437948"
       height="14.279601"
       id="rect6" />
  </defs>
  <sodipodi:namedview
     id="namedview1"
     pagecolor="#ffffff"
     bordercolor="#000000"
     borderopacity="0.25"
     inkscape:showpageshadow="2"
     inkscape:pageopacity="0.0"
     inkscape:pagecheckerboard="0"
     inkscape:deskcolor="#d1d1d1"
     inkscape:zoom="2.4510489"
     inkscape:cx="131.16833"
     inkscape:cy="88.941514"
     inkscape:window-width="1632"
     inkscape:window-height="843"
     inkscape:window-x="0"
     inkscape:window-y="25"
     inkscape:window-maximized="0"
     inkscape:current-layer="g1">
    <inkscape:page
       x="0"
       y="0"
       inkscape:label="1"
       id="page1"
       width="276.46667"
       height="186.80267"
       margin="0"
       bleed="0" />
  </sodipodi:namedview>
  <g
     id="g1"
     inkscape:groupmode="layer"
     inkscape:label="1">
    <path
       id="path1"
       d="M 12.45346,0 C 12.45346,6.87794 6.87794,12.45346 0,12.45346 -6.87794,12.45346 -12.45346,6.87794 -12.45346,0 c 0,-6.87794 5.57552,-12.45346 12.45346,-12.45346 6.87794,0 12.45346,5.57552 12.45346,12.45346 z"
       style="fill:none;stroke:#000000;stroke-width:0.3985;stroke-linecap:butt;stroke-linejoin:miter;stroke-miterlimit:10;stroke-dasharray:none;stroke-opacity:1"
       transform="matrix(1.3333333,0,0,-1.3333333,64.670667,22.806667)" />
    <path
       id="path2"
       d="m 2.9284297,-6.3755469 c 0,-0.234375 0,-0.2578125 -0.234375,-0.2578125 -0.609375,0.6328125 -1.4882813,0.6328125 -1.80468751,0.6328125 v 0.3164063 c 0.19921871,0 0.78515621,0 1.30078121,-0.2578125 v 5.15624998 c 0,0.3515625 -0.035156,0.48046875 -0.9257812,0.48046875 H 0.94796094 V -5.46875e-4 C 1.2995234,-0.03570312 2.1549922,-0.03570312 2.5534297,-0.03570312 c 0.3984375,0 1.265625,0 1.6171875,0.035156245 V -0.30523437 H 3.8542109 c -0.9023437,0 -0.9257812,-0.1171875 -0.9257812,-0.48046875 z m 0,0"
       style="fill:#000000;fill-opacity:1;fill-rule:nonzero;stroke:none"
       aria-label="1"
       transform="matrix(1.3333333,0,0,1.3333333,61.349333,27.086667)" />
    <path
       id="path3"
       d="m 122.79938,0 c 0,6.87794 -5.57552,12.45346 -12.45348,12.45346 -6.87794,0 -12.45347,-5.57552 -12.45347,-12.45346 0,-6.87794 5.57553,-12.45346 12.45347,-12.45346 6.87796,0 12.45348,5.57552 12.45348,12.45346 z"
       style="fill:none;stroke:#000000;stroke-width:0.3985;stroke-linecap:butt;stroke-linejoin:miter;stroke-miterlimit:10;stroke-dasharray:none;stroke-opacity:1"
       transform="matrix(1.3333333,0,0,-1.3333333,64.670667,22.806667)" />
    <path
       id="path4"
       d="M 1.2670469,-0.76226562 2.3217344,-1.7935156 c 1.5585937,-1.3710938 2.15625,-1.9101563 2.15625,-2.90625 0,-1.1367188 -0.9023438,-1.9335938 -2.1210938,-1.9335938 -1.125,0 -1.85156247,0.9140625 -1.85156247,1.8046875 0,0.5507813 0.4921875,0.5507813 0.52734377,0.5507813 0.1640625,0 0.515625,-0.1171875 0.515625,-0.5273438 0,-0.2578125 -0.1875,-0.515625 -0.5273438,-0.515625 -0.0820312,0 -0.10546872,0 -0.12890622,0.011719 0.22265622,-0.6445313 0.76171872,-1.0195313 1.33593752,-1.0195313 0.9140625,0 1.3359375,0.8085938 1.3359375,1.6289063 0,0.796875 -0.4921875,1.5820312 -1.0429688,2.203125 L 0.61079688,-0.36382812 C 0.50532813,-0.25835937 0.50532813,-0.23492187 0.50532813,-5.46875e-4 H 4.1967344 L 4.4779844,-1.7349219 H 4.2201719 c -0.046875,0.3046875 -0.1171875,0.73828128 -0.2109375,0.89062503 -0.070313,0.0820313 -0.7265625,0.0820313 -0.9492188,0.0820313 z m 0,0"
       style="fill:#000000;fill-opacity:1;fill-rule:nonzero;stroke:none"
       aria-label="2"
       transform="matrix(1.3333333,0,0,1.3333333,208.47467,27.086667)" />
    <path
       id="path5"
       d="m 12.45346,-110.3459 c 0,6.87794 -5.57552,12.45347 -12.45346,12.45347 -6.87794,0 -12.45346,-5.57553 -12.45346,-12.45347 0,-6.87796 5.57552,-12.45348 12.45346,-12.45348 6.87794,0 12.45346,5.57552 12.45346,12.45348 z"
       style="fill:none;stroke:#000000;stroke-width:0.3985;stroke-linecap:butt;stroke-linejoin:miter;stroke-miterlimit:10;stroke-dasharray:none;stroke-opacity:1"
       transform="matrix(1.3333333,0,0,-1.3333333,64.670667,22.806667)" />
    <path
       id="path6"
       d="m 2.8932734,-3.5027734 c 0.8085938,-0.2695313 1.3945313,-0.9726563 1.3945313,-1.7578125 0,-0.8203125 -0.8789063,-1.3710938 -1.8398438,-1.3710938 -1.0078125,0 -1.75781246,0.5976563 -1.75781246,1.3476563 0,0.3398437 0.2109375,0.5273437 0.50390626,0.5273437 0.3046875,0 0.5039062,-0.2226562 0.5039062,-0.515625 0,-0.4921875 -0.46875,-0.4921875 -0.609375,-0.4921875 0.3046875,-0.4921875 0.9609375,-0.6210937 1.3242188,-0.6210937 0.4101562,0 0.9492187,0.2226562 0.9492187,1.1132812 0,0.1289063 -0.011719,0.703125 -0.2695312,1.1367188 -0.3046875,0.4804687 -0.6445313,0.515625 -0.890625,0.515625 -0.082031,0.011719 -0.3164063,0.035156 -0.3867188,0.035156 -0.082031,0.011719 -0.1523437,0.023437 -0.1523437,0.1171875 0,0.1171875 0.070312,0.1171875 0.234375,0.1171875 h 0.4453125 c 0.8085937,0 1.1835937,0.6679688 1.1835937,1.6523438 0,1.34765621 -0.6914062,1.64062496 -1.125,1.64062496 -0.4335937,0 -1.171875,-0.17578125 -1.52343746,-0.76171875 0.35156246,0.0585938 0.65624996,-0.1640625 0.65624996,-0.53906251 0,-0.3632812 -0.2695312,-0.5625 -0.56249996,-0.5625 -0.234375,0 -0.55078125,0.140625 -0.55078125,0.5742188 0,0.91406246 0.92578121,1.57031246 2.00390621,1.57031246 1.21875,0 2.1210938,-0.9140625 2.1210938,-1.92187496 0,-0.8203125 -0.6210938,-1.59375 -1.6523438,-1.8046873 z m 0,0"
       style="fill:#000000;fill-opacity:1;fill-rule:nonzero;stroke:none"
       aria-label="3"
       transform="matrix(1.3333333,0,0,1.3333333,61.349333,174.21333)" />
    <path
       id="path7"
       d="M -12.22159,-3.27438 C -31.95564,-8.56215 -31.95564,8.56215 -14.14624,3.79001"
       style="fill:none;stroke:#000000;stroke-width:0.3985;stroke-linecap:butt;stroke-linejoin:miter;stroke-miterlimit:10;stroke-dasharray:none;stroke-opacity:1"
       transform="matrix(1.3333333,0,0,-1.3333333,64.670667,22.806667)" />
    <path
       id="path8"
       d="m 0.797,0 c -0.99625,0.19925 -1.99251,0.59775 -3.18802,1.29512 1.19551,-0.89662 1.19551,-1.69362 0,-2.59024 C -1.19551,-0.59775 -0.19925,-0.19925 0.797,0 Z"
       style="fill:#000000;fill-opacity:1;fill-rule:nonzero;stroke:#000000;stroke-width:0.3985;stroke-linecap:butt;stroke-linejoin:round;stroke-miterlimit:10;stroke-dasharray:none;stroke-opacity:1"
       transform="matrix(1.2879067,0.34505333,0.34505333,-1.2879067,45.809013,17.753307)" />
    <g
       id="g8"
       aria-label="0.110"
       transform="matrix(1.3333333,0,0,1.3333333,1.328,26.230667)">
      <path
         id="path9"
         d="m 3.9024375,-2.5431172 c 0,-0.8554687 -0.09375,-1.3710937 -0.3515625,-1.875 -0.3515625,-0.703125 -0.9960938,-0.8789062 -1.4414063,-0.8789062 -0.9960937,0 -1.3710937,0.75 -1.47656245,0.9726562 -0.29296875,0.5742188 -0.3046875,1.3710938 -0.3046875,1.78125 0,0.5273438 0.0234375,1.3359375 0.41015625,1.96875001 0.3632812,0.5859375 0.9492187,0.73828125 1.3710937,0.73828125 0.3867188,0 1.0664063,-0.1171875 1.4648438,-0.90234375 0.2929687,-0.57421871 0.328125,-1.28906251 0.328125,-1.80468751 z m -1.7929688,2.48437501 c -0.2695312,0 -0.8203125,-0.12890625 -0.984375,-0.96093751 -0.09375,-0.4570312 -0.09375,-1.2070312 -0.09375,-1.6171875 0,-0.5507812 0,-1.1132812 0.09375,-1.546875 0.1640625,-0.8085937 0.7851563,-0.890625 0.984375,-0.890625 0.2695313,0 0.8203125,0.1289063 0.984375,0.8554688 0.09375,0.4453125 0.09375,1.0429687 0.09375,1.5820312 0,0.46875 0,1.1835938 -0.09375,1.6289063 C 2.9297812,-0.16421094 2.379,-0.05874219 2.1094687,-0.05874219 Z m 0,0"
         style="fill:#000000;fill-opacity:1;fill-rule:nonzero;stroke:none" />
      <path
         id="path10"
         d="m 5.8506797,-0.43374219 c 0,-0.28125 -0.2226563,-0.4453125 -0.4335938,-0.4453125 -0.2578125,0 -0.4453125,0.19921875 -0.4453125,0.43359375 0,0.26953125 0.2226563,0.4453125025 0.4335938,0.4453125025 0.2578125,0 0.4453125,-0.2109375025 0.4453125,-0.4335937525 z m 0,0"
         style="fill:#000000;fill-opacity:1;fill-rule:nonzero;stroke:none" />
      <path
         id="path11"
         d="m 9.0938437,-5.0743672 c 0,-0.2226562 -0.023437,-0.2226562 -0.234375,-0.2226562 -0.328125,0.3164062 -0.75,0.5039062 -1.5117187,0.5039062 v 0.2695313 c 0.2226562,0 0.6445312,0 1.1132812,-0.2226563 v 4.08984376 c 0,0.29296875 -0.023437,0.3984375 -0.7851562,0.3984375 H 7.394625 V -1.484375e-4 C 7.72275,-0.02358594 8.4141562,-0.02358594 8.7657187,-0.02358594 c 0.3632813,0 1.0546875,0 1.3828123,0.0234375025 V -0.25796094 H 9.8672812 c -0.75,0 -0.7734375,-0.10546875 -0.7734375,-0.3984375 z m 4.2363283,0 c 0,-0.2226562 -0.02344,-0.2226562 -0.234375,-0.2226562 -0.328125,0.3164062 -0.75,0.5039062 -1.511719,0.5039062 v 0.2695313 c 0.222656,0 0.644531,0 1.113281,-0.2226563 v 4.08984376 c 0,0.29296875 -0.02344,0.3984375 -0.785156,0.3984375 h -0.28125 V -1.484375e-4 C 11.959078,-0.02358594 12.650484,-0.02358594 13.002047,-0.02358594 c 0.363281,0 1.054687,0 1.382812,0.0234375025 V -0.25796094 h -0.28125 c -0.75,0 -0.773437,-0.10546875 -0.773437,-0.3984375 z m 5.62793,2.53125 c 0,-0.8554687 -0.09375,-1.3710937 -0.351563,-1.875 -0.351562,-0.703125 -0.996094,-0.8789062 -1.441406,-0.8789062 -0.996094,0 -1.371094,0.75 -1.476563,0.9726562 -0.292968,0.5742188 -0.304687,1.3710938 -0.304687,1.78125 0,0.5273438 0.02344,1.3359375 0.410156,1.96875001 0.363281,0.5859375 0.949219,0.73828125 1.371094,0.73828125 0.386719,0 1.066406,-0.1171875 1.464844,-0.90234375 0.292968,-0.57421871 0.328125,-1.28906251 0.328125,-1.80468751 z m -1.792969,2.48437501 c -0.269531,0 -0.820313,-0.12890625 -0.984375,-0.96093751 -0.09375,-0.4570312 -0.09375,-1.2070312 -0.09375,-1.6171875 0,-0.5507812 0,-1.1132812 0.09375,-1.546875 0.164062,-0.8085937 0.785156,-0.890625 0.984375,-0.890625 0.269531,0 0.820312,0.1289063 0.984375,0.8554688 0.09375,0.4453125 0.09375,1.0429687 0.09375,1.5820312 0,0.46875 0,1.1835938 -0.09375,1.6289063 -0.164063,0.84374996 -0.714844,0.94921871 -0.984375,0.94921871 z m 0,0"
         style="fill:#000000;fill-opacity:1;fill-rule:nonzero;stroke:none" />
    </g>
    <path
       id="path12"
       d="m 12.22159,3.27438 c 32.35814,8.67034 53.54458,8.67034 84.9404,0.2578"
       style="fill:none;stroke:#000000;stroke-width:0.3985;stroke-linecap:butt;stroke-linejoin:miter;stroke-miterlimit:10;stroke-dasharray:none;stroke-opacity:1"
       transform="matrix(1.3333333,0,0,-1.3333333,64.670667,22.806667)" />
    <path
       id="path13"
       d="m 0.797,0 c -0.99625,0.19925 -1.99251,0.59775 -3.18802,1.29512 1.19551,-0.89662 1.19551,-1.69362 0,-2.59024 C -1.19551,-0.59775 -0.19925,-0.19925 0.797,0 Z"
       style="fill:#000000;fill-opacity:1;fill-rule:nonzero;stroke:#000000;stroke-width:0.3985;stroke-linecap:butt;stroke-linejoin:round;stroke-miterlimit:10;stroke-dasharray:none;stroke-opacity:1"
       transform="matrix(1.2879067,0.34505333,0.34505333,-1.2879067,194.21999,18.097067)" />
    <g
       id="g13"
       aria-label="0.131"
       transform="matrix(1.3333333,0,0,1.3333333,125.37333,8.176)">
      <path
         id="path14"
         d="m 3.9035937,-2.5431328 c 0,-0.8554688 -0.09375,-1.3710938 -0.3515625,-1.875 -0.3515625,-0.703125 -0.9960937,-0.8789063 -1.4414062,-0.8789063 -0.9960938,0 -1.37109375,0.75 -1.4765625,0.9726563 -0.29296875,0.5742187 -0.3046875,1.3710937 -0.3046875,1.78125 0,0.5273437 0.0234375,1.3359375 0.41015625,1.96874999 C 1.1028125,0.01155469 1.68875,0.16389844 2.110625,0.16389844 c 0.3867187,0 1.0664062,-0.1171875 1.4648437,-0.90234375 0.2929688,-0.57421879 0.328125,-1.28906249 0.328125,-1.80468749 z M 2.110625,-0.05875781 c -0.2695313,0 -0.8203125,-0.12890625 -0.984375,-0.96093749 C 1.0325,-1.4767266 1.0325,-2.2267266 1.0325,-2.6368828 c 0,-0.5507813 0,-1.1132813 0.09375,-1.546875 0.1640625,-0.8085938 0.7851562,-0.890625 0.984375,-0.890625 0.2695312,0 0.8203125,0.1289062 0.984375,0.8554687 0.09375,0.4453125 0.09375,1.0429688 0.09375,1.5820313 0,0.46875 0,1.1835937 -0.09375,1.6289062 -0.1640625,0.84375004 -0.7148438,0.94921879 -0.984375,0.94921879 z m 0,0"
         style="fill:#000000;fill-opacity:1;fill-rule:nonzero;stroke:none" />
      <path
         id="path15"
         d="m 5.8518359,-0.43375781 c 0,-0.28125 -0.2226562,-0.4453125 -0.4335937,-0.4453125 -0.2578125,0 -0.4453125,0.19921875 -0.4453125,0.43359375 0,0.26953125 0.2226562,0.4453124975 0.4335937,0.4453124975 0.2578125,0 0.4453125,-0.2109374975 0.4453125,-0.4335937475 z m 0,0"
         style="fill:#000000;fill-opacity:1;fill-rule:nonzero;stroke:none" />
      <path
         id="path16"
         d="m 9.095,-5.0743828 c 0,-0.2226563 -0.023437,-0.2226563 -0.234375,-0.2226563 -0.328125,0.3164063 -0.75,0.5039063 -1.5117188,0.5039063 v 0.2695312 c 0.2226563,0 0.6445313,0 1.1132813,-0.2226562 v 4.08984374 c 0,0.29296875 -0.023437,0.3984375 -0.7851563,0.3984375 h -0.28125 V -1.640625e-4 C 7.7239062,-0.02360156 8.4153125,-0.02360156 8.766875,-0.02360156 c 0.3632812,0 1.0546875,0 1.382812,0.0234374975 V -0.25797656 H 9.8684375 c -0.75,0 -0.7734375,-0.10546875 -0.7734375,-0.3984375 z m 3.741211,2.4140625 c 0.632812,0 1.03125,0.4570312 1.03125,1.3007812 0,0.99609379 -0.574219,1.28906254 -0.996094,1.28906254 -0.433594,0 -1.03125,-0.1640625 -1.3125,-0.5859375 0.292969,0 0.492188,-0.17578125 0.492188,-0.44531254 0,-0.2578125 -0.1875,-0.4335937 -0.445313,-0.4335937 -0.210937,0 -0.433594,0.1289062 -0.433594,0.4570312 0,0.75000004 0.808594,1.24218754 1.722657,1.24218754 1.054687,0 1.792968,-0.7265625 1.792968,-1.52343754 0,-0.6679687 -0.515625,-1.265625 -1.335937,-1.4414062 0.632812,-0.2226563 1.101562,-0.7734375 1.101562,-1.40625 0,-0.6328125 -0.714843,-1.0898438 -1.546875,-1.0898438 -0.855468,0 -1.5,0.4570313 -1.5,1.0664063 0,0.2929687 0.199219,0.421875 0.410157,0.421875 0.246093,0 0.410156,-0.1757813 0.410156,-0.4101563 0,-0.2929687 -0.257813,-0.3984375 -0.433594,-0.4101562 0.339844,-0.4335938 0.949219,-0.46875 1.089844,-0.46875 0.210937,0 0.808594,0.070312 0.808594,0.890625 0,0.5625 -0.222657,0.890625 -0.339844,1.0195312 -0.234375,0.2460938 -0.421875,0.2578125 -0.902344,0.2929688 -0.152344,0.011719 -0.222656,0.023437 -0.222656,0.1171875 0,0.1171875 0.07031,0.1171875 0.210937,0.1171875 z m 4.728516,-2.4140625 c 0,-0.2226563 -0.02344,-0.2226563 -0.234375,-0.2226563 -0.328125,0.3164063 -0.75,0.5039063 -1.511719,0.5039063 v 0.2695312 c 0.222656,0 0.644531,0 1.113281,-0.2226562 v 4.08984374 c 0,0.29296875 -0.02344,0.3984375 -0.785156,0.3984375 h -0.28125 V -1.640625e-4 C 16.193633,-0.02360156 16.885039,-0.02360156 17.236602,-0.02360156 c 0.363281,0 1.054687,0 1.382812,0.0234374975 V -0.25797656 h -0.28125 c -0.75,0 -0.773437,-0.10546875 -0.773437,-0.3984375 z m 0,0"
         style="fill:#000000;fill-opacity:1;fill-rule:nonzero;stroke:none" />
    </g>
    <path
       id="path17"
       d="m 3.27438,-12.22159 c 8.67034,-32.35814 8.67034,-53.54458 0.2578,-84.9404"
       style="fill:none;stroke:#000000;stroke-width:0.3985;stroke-linecap:butt;stroke-linejoin:miter;stroke-miterlimit:10;stroke-dasharray:none;stroke-opacity:1"
       transform="matrix(1.3333333,0,0,-1.3333333,64.670667,22.806667)" />
    <path
       id="path18"
       d="m 0.797,0 c -0.99625,0.19925 -1.99251,0.59775 -3.18802,1.29512 1.19551,-0.89662 1.19551,-1.69362 0,-2.59024 C -1.19551,-0.59775 -0.19925,-0.19925 0.797,0 Z"
       style="fill:#000000;fill-opacity:1;fill-rule:nonzero;stroke:#000000;stroke-width:0.3985;stroke-linecap:butt;stroke-linejoin:round;stroke-miterlimit:10;stroke-dasharray:none;stroke-opacity:1"
       transform="matrix(-0.34505333,1.2879067,1.2879067,0.34505333,69.380267,152.35599)" />
    <g
       id="g18"
       aria-label="0.759"
       transform="matrix(1.3333333,0,0,1.3333333,79.3,99.793333)">
      <path
         id="path19"
         d="m 3.9029297,-2.5432422 c 0,-0.8554687 -0.09375,-1.3710937 -0.3515625,-1.875 -0.3515625,-0.703125 -0.9960938,-0.8789062 -1.4414063,-0.8789062 -0.9960937,0 -1.37109371,0.75 -1.47656246,0.9726562 -0.29296875,0.5742188 -0.3046875,1.3710938 -0.3046875,1.78125 0,0.5273438 0.0234375,1.3359375 0.41015625,1.96875001 0.36328121,0.5859375 0.94921871,0.73828125 1.37109371,0.73828125 0.3867188,0 1.0664063,-0.1171875 1.4648438,-0.90234375 0.2929687,-0.57421871 0.328125,-1.28906251 0.328125,-1.80468751 z m -1.7929688,2.48437501 c -0.2695312,0 -0.8203125,-0.12890625 -0.984375,-0.96093751 -0.09375,-0.4570312 -0.09375,-1.2070312 -0.09375,-1.6171875 0,-0.5507812 0,-1.1132812 0.09375,-1.546875 0.1640625,-0.8085937 0.7851563,-0.890625 0.984375,-0.890625 0.2695313,0 0.8203125,0.1289063 0.984375,0.8554688 0.09375,0.4453125 0.09375,1.0429687 0.09375,1.5820312 0,0.46875 0,1.1835938 -0.09375,1.6289063 -0.1640625,0.84374996 -0.7148437,0.94921871 -0.984375,0.94921871 z m 0,0"
         style="fill:#000000;fill-opacity:1;fill-rule:nonzero;stroke:none" />
      <path
         id="path20"
         d="m 5.8511719,-0.43386719 c 0,-0.28125 -0.2226563,-0.4453125 -0.4335938,-0.4453125 -0.2578125,0 -0.4453125,0.19921875 -0.4453125,0.43359375 0,0.26953125 0.2226563,0.4453125025 0.4335938,0.4453125025 0.2578125,0 0.4453125,-0.2109375025 0.4453125,-0.4335937525 z m 0,0"
         style="fill:#000000;fill-opacity:1;fill-rule:nonzero;stroke:none" />
      <path
         id="path21"
         d="m 10.617773,-4.8518359 c 0.07031,-0.09375 0.07031,-0.1054688 0.07031,-0.28125 H 8.6607422 c -0.1992188,0 -0.4453125,-0.011719 -0.6445313,-0.023437 -0.4101562,-0.035156 -0.421875,-0.1054688 -0.4453125,-0.234375 H 7.3248047 l -0.2695313,1.6875 h 0.2460938 c 0.023437,-0.1171875 0.1054687,-0.6679688 0.2226562,-0.7382813 0.082031,-0.035156 0.6796875,-0.035156 0.796875,-0.035156 h 1.6874996 l -0.8203121,1.1015625 c -0.9023437,1.2070312 -1.0898437,2.46093746 -1.0898437,3.09374996 0,0.0820313 0,0.4453125 0.3632812,0.4453125 0.375,0 0.375,-0.3515625 0.375,-0.4453125 v -0.38671875 c 0,-1.14843751 0.1992188,-2.08593751 0.5859375,-2.60156251 z m 1.31836,0.375 c 0.105469,0.035156 0.421875,0.1054687 0.761719,0.1054687 0.996093,0 1.59375,-0.6914062 1.59375,-0.8203125 0,-0.082031 -0.04687,-0.1054687 -0.09375,-0.1054687 -0.01172,0 -0.02344,0 -0.105469,0.035156 -0.304688,0.1171875 -0.667969,0.2226563 -1.101563,0.2226563 -0.46875,0 -0.855468,-0.1289063 -1.113281,-0.2226563 -0.07031,-0.035156 -0.09375,-0.035156 -0.09375,-0.035156 -0.105469,0 -0.105469,0.082031 -0.105469,0.234375 v 2.3320312 c 0,0.140625 0,0.234375 0.128907,0.234375 0.05859,0 0.08203,-0.035156 0.128906,-0.09375 0.09375,-0.1171875 0.398437,-0.5273437 1.066406,-0.5273437 0.445313,0 0.667969,0.3632812 0.738281,0.515625 0.128907,0.2929687 0.152344,0.65625 0.152344,0.9726562 0,0.2929688 -0.01172,0.71484376 -0.234375,1.06640626 -0.152344,0.24609375 -0.46875,0.4921875 -0.890625,0.4921875 -0.515625,0 -1.03125,-0.328125 -1.207031,-0.84375 0.02344,0 0.07031,0 0.07031,0 0.222657,0 0.398438,-0.14062496 0.398438,-0.38671876 0,-0.2929687 -0.222656,-0.3984375 -0.386719,-0.3984375 -0.140625,0 -0.398437,0.082031 -0.398437,0.421875 0,0.71484376 0.621093,1.44140626 1.535156,1.44140626 0.996094,0 1.839844,-0.7734375 1.839844,-1.75781246 0,-0.9257813 -0.667969,-1.7460938 -1.605469,-1.7460938 -0.398438,0 -0.773438,0.1289063 -1.078125,0.3984375 z m 6.249023,2.1210937 c 0,1.94531251 -0.925781,2.28515626 -1.394531,2.28515626 -0.164062,0 -0.574219,-0.0234375 -0.796875,-0.26953125 0.351563,-0.0351563 0.375,-0.29296875 0.375,-0.375 0,-0.24609375 -0.175781,-0.37500001 -0.375,-0.37500001 -0.140625,0 -0.375,0.082031 -0.375,0.38671876 0,0.5390625 0.445313,0.8671875 1.183594,0.8671875 1.089844,0 2.121094,-1.078125 2.121094,-2.78906246 0,-2.0742188 -0.914063,-2.671875 -1.734375,-2.671875 -0.9375,0 -1.78125,0.7265625 -1.78125,1.7695312 0,1.03125 0.773437,1.78125 1.675781,1.78125 0.5625,0 0.902344,-0.3632812 1.101562,-0.7617187 z m -1.078125,0.3867188 c -0.363281,0 -0.597656,-0.1640625 -0.773437,-0.4570313 -0.175781,-0.3046875 -0.175781,-0.6796875 -0.175781,-1.0898437 0,-0.46875 0,-0.8085938 0.210937,-1.125 0.199219,-0.2929688 0.457031,-0.4570313 0.832031,-0.4570313 0.527344,0 0.761719,0.5273438 0.785157,0.5742188 0.175781,0.3867187 0.175781,1.0078125 0.175781,1.171875 0,0.6210937 -0.339844,1.3828125 -1.054688,1.3828125 z m 0,0"
         style="fill:#000000;fill-opacity:1;fill-rule:nonzero;stroke:none" />
    </g>
    <path
       id="path22"
       d="m 98.12431,-3.27438 c -32.35814,-8.67034 -53.54458,-8.67034 -84.9404,-0.2578"
       style="fill:none;stroke:#000000;stroke-width:0.3985;stroke-linecap:butt;stroke-linejoin:miter;stroke-miterlimit:10;stroke-dasharray:none;stroke-opacity:1"
       transform="matrix(1.3333333,0,0,-1.3333333,64.670667,22.806667)" />
    <path
       id="path23"
       d="m 0.797,0 c -0.99625,0.19925 -1.99251,0.59775 -3.18802,1.29512 1.19551,-0.89662 1.19551,-1.69362 0,-2.59024 C -1.19551,-0.59775 -0.19925,-0.19925 0.797,0 Z"
       style="fill:#000000;fill-opacity:1;fill-rule:nonzero;stroke:#000000;stroke-width:0.3985;stroke-linecap:butt;stroke-linejoin:round;stroke-miterlimit:10;stroke-dasharray:none;stroke-opacity:1"
       transform="matrix(-1.2879067,-0.34505333,-0.34505333,1.2879067,82.249213,27.516267)" />
    <g
       id="g23"
       aria-label="0.207"
       transform="matrix(1.3333333,0,0,1.3333333,125.37333,44.285333)">
      <path
         id="path24"
         d="m 3.9035937,-2.5431016 c 0,-0.8554687 -0.09375,-1.3710937 -0.3515625,-1.875 -0.3515625,-0.703125 -0.9960937,-0.8789062 -1.4414062,-0.8789062 -0.9960938,0 -1.37109375,0.75 -1.4765625,0.9726562 -0.29296875,0.5742188 -0.3046875,1.3710938 -0.3046875,1.78125 0,0.5273438 0.0234375,1.3359375 0.41015625,1.96875004 C 1.1028125,0.01158594 1.68875,0.16392969 2.110625,0.16392969 c 0.3867187,0 1.0664062,-0.1171875 1.4648437,-0.90234375 0.2929688,-0.57421874 0.328125,-1.28906254 0.328125,-1.80468754 z M 2.110625,-0.05872656 c -0.2695313,0 -0.8203125,-0.12890625 -0.984375,-0.96093754 C 1.0325,-1.4766953 1.0325,-2.2266953 1.0325,-2.6368516 c 0,-0.5507812 0,-1.1132812 0.09375,-1.546875 0.1640625,-0.8085937 0.7851562,-0.890625 0.984375,-0.890625 0.2695312,0 0.8203125,0.1289063 0.984375,0.8554688 0.09375,0.4453125 0.09375,1.0429687 0.09375,1.5820312 0,0.46875 0,1.1835938 -0.09375,1.6289063 -0.1640625,0.84374999 -0.7148438,0.94921874 -0.984375,0.94921874 z m 0,0"
         style="fill:#000000;fill-opacity:1;fill-rule:nonzero;stroke:none" />
      <path
         id="path25"
         d="m 5.8518359,-0.43372656 c 0,-0.28125 -0.2226562,-0.4453125 -0.4335937,-0.4453125 -0.2578125,0 -0.4453125,0.19921875 -0.4453125,0.43359375 0,0.26953125 0.2226562,0.4453124975 0.4335937,0.4453124975 0.2578125,0 0.4453125,-0.2109374975 0.4453125,-0.4335937475 z m 0,0"
         style="fill:#000000;fill-opacity:1;fill-rule:nonzero;stroke:none" />
      <path
         id="path26"
         d="m 8.8371875,-1.6290391 c 0.1289062,-0.1171875 0.4570312,-0.375 0.5859375,-0.4921875 0.4921875,-0.4570312 0.960937,-0.890625 0.960937,-1.6171875 0,-0.9492187 -0.7968745,-1.5585937 -1.7929683,-1.5585937 -0.9492187,0 -1.5820312,0.7265625 -1.5820312,1.4296875 0,0.3984375 0.3164062,0.4453125 0.421875,0.4453125 0.1640625,0 0.4101562,-0.1171875 0.4101562,-0.421875 0,-0.4101563 -0.3984375,-0.4101563 -0.4921875,-0.4101563 0.234375,-0.5859375 0.7734375,-0.7851562 1.1601563,-0.7851562 0.7382812,0 1.125,0.6328125 1.125,1.3007812 0,0.8320313 -0.5859375,1.4296875 -1.5234375,2.4023438 l -1.0078125,1.03124999 c -0.09375,0.09375 -0.09375,0.10546875 -0.09375,0.3046874975 H 10.161406 L 10.384062,-1.4298203 h -0.246093 c -0.02344,0.1640625 -0.08203,0.56249999 -0.1757815,0.71484374 -0.046875,0.0585938 -0.65625,0.0585938 -0.7851563,0.0585938 H 7.7590625 Z M 14.72293,-2.5431016 c 0,-0.8554687 -0.09375,-1.3710937 -0.351563,-1.875 -0.351562,-0.703125 -0.996094,-0.8789062 -1.441406,-0.8789062 -0.996094,0 -1.371094,0.75 -1.476563,0.9726562 -0.292968,0.5742188 -0.304687,1.3710938 -0.304687,1.78125 0,0.5273438 0.02344,1.3359375 0.410156,1.96875004 0.363281,0.5859375 0.949219,0.73828125 1.371094,0.73828125 0.386719,0 1.066406,-0.1171875 1.464844,-0.90234375 0.292968,-0.57421874 0.328125,-1.28906254 0.328125,-1.80468754 z m -1.792969,2.48437504 c -0.269531,0 -0.820313,-0.12890625 -0.984375,-0.96093754 -0.09375,-0.4570312 -0.09375,-1.2070312 -0.09375,-1.6171875 0,-0.5507812 0,-1.1132812 0.09375,-1.546875 0.164062,-0.8085937 0.785156,-0.890625 0.984375,-0.890625 0.269531,0 0.820312,0.1289063 0.984375,0.8554688 0.09375,0.4453125 0.09375,1.0429687 0.09375,1.5820312 0,0.46875 0,1.1835938 -0.09375,1.6289063 -0.164063,0.84374999 -0.714844,0.94921874 -0.984375,0.94921874 z m 6.158203,-4.79296874 c 0.07031,-0.09375 0.07031,-0.1054688 0.07031,-0.28125 H 17.13113 c -0.199219,0 -0.445313,-0.011719 -0.644531,-0.023437 -0.410157,-0.035156 -0.421875,-0.1054688 -0.445313,-0.234375 h -0.246094 l -0.269531,1.6875 h 0.246094 c 0.02344,-0.1171875 0.105469,-0.6679688 0.222656,-0.7382813 0.08203,-0.035156 0.679688,-0.035156 0.796875,-0.035156 h 1.6875 l -0.820312,1.1015625 c -0.902344,1.2070312 -1.089844,2.46093749 -1.089844,3.09374999 0,0.0820312 0,0.4453125 0.363281,0.4453125 0.375,0 0.375,-0.3515625 0.375,-0.4453125 v -0.38671875 c 0,-1.14843754 0.199219,-2.08593754 0.585938,-2.60156254 z m 0,0"
         style="fill:#000000;fill-opacity:1;fill-rule:nonzero;stroke:none" />
    </g>
    <path
       id="path27"
       d="m 122.5675,3.27438 c 19.73406,5.28777 19.73406,-11.83653 1.92466,-7.06439"
       style="fill:none;stroke:#000000;stroke-width:0.3985;stroke-linecap:butt;stroke-linejoin:miter;stroke-miterlimit:10;stroke-dasharray:none;stroke-opacity:1"
       transform="matrix(1.3333333,0,0,-1.3333333,64.670667,22.806667)" />
    <path
       id="path28"
       d="m 0.797,0 c -0.99625,0.19925 -1.99251,0.59775 -3.18802,1.29512 1.19551,-0.89662 1.19551,-1.69362 0,-2.59024 C -1.19551,-0.59775 -0.19925,-0.19925 0.797,0 Z"
       style="fill:#000000;fill-opacity:1;fill-rule:nonzero;stroke:#000000;stroke-width:0.3985;stroke-linecap:butt;stroke-linejoin:round;stroke-miterlimit:10;stroke-dasharray:none;stroke-opacity:1"
       transform="matrix(-1.2879067,-0.34505333,-0.34505333,1.2879067,230.66021,27.860027)" />
    <g
       id="g28"
       aria-label="0.359"
       transform="matrix(1.3333333,0,0,1.3333333,249.41867,26.230667)">
      <path
         id="path29"
         d="m 3.9018203,-2.5431172 c 0,-0.8554687 -0.09375,-1.3710937 -0.3515625,-1.875 -0.3515625,-0.703125 -0.9960937,-0.8789062 -1.4414062,-0.8789062 -0.9960938,0 -1.37109379,0.75 -1.47656254,0.9726562 -0.29296875,0.5742188 -0.3046875,1.3710938 -0.3046875,1.78125 0,0.5273438 0.0234375,1.3359375 0.41015625,1.96875001 0.36328129,0.5859375 0.94921879,0.73828125 1.37109379,0.73828125 0.3867187,0 1.0664062,-0.1171875 1.4648437,-0.90234375 0.2929688,-0.57421871 0.328125,-1.28906251 0.328125,-1.80468751 z m -1.7929687,2.48437501 c -0.2695313,0 -0.8203125,-0.12890625 -0.984375,-0.96093751 -0.09375,-0.4570312 -0.09375,-1.2070312 -0.09375,-1.6171875 0,-0.5507812 0,-1.1132812 0.09375,-1.546875 0.1640625,-0.8085937 0.7851562,-0.890625 0.984375,-0.890625 0.2695312,0 0.8203125,0.1289063 0.984375,0.8554688 0.09375,0.4453125 0.09375,1.0429687 0.09375,1.5820312 0,0.46875 0,1.1835938 -0.09375,1.6289063 -0.1640625,0.84374996 -0.7148438,0.94921871 -0.984375,0.94921871 z m 0,0"
         style="fill:#000000;fill-opacity:1;fill-rule:nonzero;stroke:none" />
      <path
         id="path30"
         d="m 5.8529922,-0.43374219 c 0,-0.28125 -0.2226563,-0.4453125 -0.4335938,-0.4453125 -0.2578125,0 -0.4453125,0.19921875 -0.4453125,0.43359375 0,0.26953125 0.2226563,0.4453125025 0.4335938,0.4453125025 0.2578125,0 0.4453125,-0.2109375025 0.4453125,-0.4335937525 z m 0,0"
         style="fill:#000000;fill-opacity:1;fill-rule:nonzero;stroke:none" />
      <path
         id="path31"
         d="m 8.6039688,-2.6603047 c 0.6328125,0 1.03125,0.4570313 1.03125,1.3007813 0,0.99609371 -0.5742188,1.28906246 -0.9960938,1.28906246 -0.4335937,0 -1.03125,-0.1640625 -1.3125,-0.5859375 0.2929688,0 0.4921875,-0.17578125 0.4921875,-0.44531246 0,-0.2578125 -0.1875,-0.4335938 -0.4453125,-0.4335938 -0.2109375,0 -0.4335937,0.1289063 -0.4335937,0.4570313 0,0.74999996 0.8085937,1.24218746 1.7226562,1.24218746 1.0546875,0 1.7929685,-0.7265625 1.7929685,-1.52343746 0,-0.6679688 -0.5156247,-1.265625 -1.3359372,-1.4414063 0.6328125,-0.2226562 1.1015622,-0.7734375 1.1015622,-1.40625 0,-0.6328125 -0.7148435,-1.0898437 -1.5468747,-1.0898437 -0.8554688,0 -1.5,0.4570312 -1.5,1.0664062 0,0.2929688 0.1992187,0.421875 0.4101562,0.421875 0.2460938,0 0.4101563,-0.1757812 0.4101563,-0.4101562 0,-0.2929688 -0.2578125,-0.3984375 -0.4335938,-0.4101563 0.3398438,-0.4335937 0.9492188,-0.46875 1.0898438,-0.46875 0.2109375,0 0.8085937,0.070312 0.8085937,0.890625 0,0.5625 -0.2226562,0.890625 -0.3398437,1.0195313 -0.234375,0.2460937 -0.421875,0.2578125 -0.9023438,0.2929687 -0.1523437,0.011719 -0.2226562,0.023437 -0.2226562,0.1171875 0,0.1171875 0.070313,0.1171875 0.2109375,0.1171875 z m 3.3310542,-1.8164062 c 0.105469,0.035156 0.421875,0.1054687 0.761719,0.1054687 0.996094,0 1.59375,-0.6914062 1.59375,-0.8203125 0,-0.082031 -0.04687,-0.1054687 -0.09375,-0.1054687 -0.01172,0 -0.02344,0 -0.105469,0.035156 -0.304687,0.1171875 -0.667968,0.2226563 -1.101562,0.2226563 -0.46875,0 -0.855469,-0.1289063 -1.113281,-0.2226563 -0.07031,-0.035156 -0.09375,-0.035156 -0.09375,-0.035156 -0.105469,0 -0.105469,0.082031 -0.105469,0.234375 v 2.3320312 c 0,0.140625 0,0.234375 0.128906,0.234375 0.05859,0 0.08203,-0.035156 0.128906,-0.09375 0.09375,-0.1171875 0.398438,-0.5273437 1.066407,-0.5273437 0.445312,0 0.667968,0.3632812 0.738281,0.515625 0.128906,0.2929687 0.152344,0.65625 0.152344,0.9726562 0,0.2929688 -0.01172,0.71484376 -0.234375,1.06640626 -0.152344,0.24609375 -0.46875,0.4921875 -0.890625,0.4921875 -0.515625,0 -1.03125,-0.328125 -1.207032,-0.84375 0.02344,0 0.07031,0 0.07031,0 0.222656,0 0.398437,-0.14062496 0.398437,-0.38671876 0,-0.2929687 -0.222656,-0.3984375 -0.386718,-0.3984375 -0.140625,0 -0.398438,0.082031 -0.398438,0.421875 0,0.71484376 0.621094,1.44140626 1.535156,1.44140626 0.996094,0 1.839844,-0.7734375 1.839844,-1.75781246 0,-0.9257813 -0.667969,-1.7460938 -1.605469,-1.7460938 -0.398437,0 -0.773437,0.1289063 -1.078125,0.3984375 z m 6.249024,2.1210937 c 0,1.94531251 -0.925781,2.28515626 -1.394531,2.28515626 -0.164063,0 -0.574219,-0.0234375 -0.796875,-0.26953125 0.351562,-0.0351563 0.375,-0.29296875 0.375,-0.375 0,-0.24609375 -0.175782,-0.37500001 -0.375,-0.37500001 -0.140625,0 -0.375,0.082031 -0.375,0.38671876 0,0.5390625 0.445312,0.8671875 1.183593,0.8671875 1.089844,0 2.121094,-1.078125 2.121094,-2.78906246 0,-2.0742188 -0.914062,-2.671875 -1.734375,-2.671875 -0.9375,0 -1.78125,0.7265625 -1.78125,1.7695312 0,1.03125 0.773438,1.78125 1.675781,1.78125 0.5625,0 0.902344,-0.3632812 1.101563,-0.7617187 z m -1.078125,0.3867188 c -0.363281,0 -0.597656,-0.1640625 -0.773438,-0.4570313 -0.175781,-0.3046875 -0.175781,-0.6796875 -0.175781,-1.0898437 0,-0.46875 0,-0.8085938 0.210938,-1.125 0.199218,-0.2929688 0.457031,-0.4570313 0.832031,-0.4570313 0.527344,0 0.761719,0.5273438 0.785156,0.5742188 0.175781,0.3867187 0.175781,1.0078125 0.175781,1.171875 0,0.6210937 -0.339843,1.3828125 -1.054687,1.3828125 z m 0,0"
         style="fill:#000000;fill-opacity:1;fill-rule:nonzero;stroke:none" />
    </g>
    <path
       id="path32"
       d="M 104.01974,-10.95741 C 78.25467,-55.58382 55.58382,-78.25467 11.82019,-103.52164"
       style="fill:none;stroke:#000000;stroke-width:0.3985;stroke-linecap:butt;stroke-linejoin:miter;stroke-miterlimit:10;stroke-dasharray:none;stroke-opacity:1"
       transform="matrix(1.3333333,0,0,-1.3333333,64.670667,22.806667)" />
    <path
       id="path33"
       d="m 0.797,0 c -0.99625,0.19925 -1.99251,0.59775 -3.18802,1.29512 1.19551,-0.89662 1.19551,-1.69362 0,-2.59024 C -1.19551,-0.59775 -0.19925,-0.19925 0.797,0 Z"
       style="fill:#000000;fill-opacity:1;fill-rule:nonzero;stroke:#000000;stroke-width:0.3985;stroke-linecap:butt;stroke-linejoin:round;stroke-miterlimit:10;stroke-dasharray:none;stroke-opacity:1"
       transform="matrix(-1.15468,0.66664,0.66664,1.15468,80.43092,160.83549)" />
    <g
       id="g33"
       aria-label="0.435"
       transform="matrix(1.3333333,0,0,1.3333333,152.34533,117.32933)">
      <path
         id="path34"
         d="m 3.9011563,-2.543875 c 0,-0.8554687 -0.09375,-1.3710937 -0.3515625,-1.875 C 3.1980313,-5.122 2.5535,-5.2977812 2.1081875,-5.2977812 c -0.9960937,0 -1.37109375,0.75 -1.4765625,0.9726562 -0.29296875,0.5742188 -0.3046875,1.3710938 -0.3046875,1.78125 0,0.5273438 0.0234375,1.3359375 0.41015625,1.96875 0.36328125,0.5859375 0.94921875,0.73828125 1.37109375,0.73828125 0.3867188,0 1.0664063,-0.1171875 1.4648438,-0.90234375 C 3.866,-1.3134062 3.9011563,-2.02825 3.9011563,-2.543875 Z M 2.1081875,-0.0595 c -0.2695312,0 -0.8203125,-0.12890625 -0.984375,-0.9609375 -0.09375,-0.4570312 -0.09375,-1.2070312 -0.09375,-1.6171875 0,-0.5507812 0,-1.1132812 0.09375,-1.546875 0.1640625,-0.8085937 0.7851563,-0.890625 0.984375,-0.890625 0.2695313,0 0.8203125,0.1289063 0.984375,0.8554688 0.09375,0.4453125 0.09375,1.0429687 0.09375,1.5820312 0,0.46875 0,1.1835938 -0.09375,1.6289063 C 2.9285,-0.16496875 2.3777188,-0.0595 2.1081875,-0.0595 Z m 0,0"
         style="fill:#000000;fill-opacity:1;fill-rule:nonzero;stroke:none" />
      <path
         id="path35"
         d="m 5.8523281,-0.4345 c 0,-0.28125 -0.2226562,-0.4453125 -0.4335937,-0.4453125 -0.2578125,0 -0.4453125,0.19921875 -0.4453125,0.43359375 0,0.26953125 0.2226562,0.4453125 0.4335937,0.4453125 0.2578125,0 0.4453125,-0.2109375 0.4453125,-0.43359375 z m 0,0"
         style="fill:#000000;fill-opacity:1;fill-rule:nonzero;stroke:none" />
      <path
         id="path36"
         d="m 9.725375,-5.1571562 c 0,-0.1640625 0,-0.2226563 -0.1640625,-0.2226563 -0.1054687,0 -0.1171875,0.011719 -0.1992187,0.1171875 L 6.819125,-1.5712187 v 0.2578125 h 2.25 v 0.6679687 c 0,0.29296875 -0.023437,0.38671875 -0.6328125,0.38671875 h -0.1875 v 0.2578125 c 0.6796875,-0.0234375 0.6914063,-0.0234375 1.1484375,-0.0234375 0.4570313,0 0.46875,0 1.148438,0.0234375 v -0.2578125 h -0.1875 c -0.6093755,0 -0.632813,-0.09375 -0.632813,-0.38671875 v -0.6679687 h 0.84375 V -1.5712187 H 9.725375 Z M 9.1277188,-4.512625 v 2.9414063 H 7.100375 Z m 3.7089842,1.8515625 c 0.632813,0 1.03125,0.4570313 1.03125,1.3007813 0,0.9960937 -0.574219,1.28906245 -0.996094,1.28906245 -0.433593,0 -1.03125,-0.1640625 -1.3125,-0.5859375 0.292969,0 0.492188,-0.17578125 0.492188,-0.44531245 0,-0.2578125 -0.1875,-0.4335938 -0.445313,-0.4335938 -0.210937,0 -0.433593,0.1289063 -0.433593,0.4570313 0,0.74999995 0.808593,1.24218745 1.722656,1.24218745 1.054687,0 1.792969,-0.7265625 1.792969,-1.52343745 0,-0.6679688 -0.515625,-1.265625 -1.335938,-1.4414063 0.632813,-0.2226562 1.101563,-0.7734375 1.101563,-1.40625 0,-0.6328125 -0.714844,-1.0898437 -1.546875,-1.0898437 -0.855469,0 -1.5,0.4570312 -1.5,1.0664062 0,0.2929688 0.199218,0.421875 0.410156,0.421875 0.246094,0 0.410156,-0.1757812 0.410156,-0.4101562 0,-0.2929688 -0.257812,-0.3984375 -0.433594,-0.4101563 0.339844,-0.4335937 0.949219,-0.46875 1.089844,-0.46875 0.210938,0 0.808594,0.070312 0.808594,0.890625 0,0.5625 -0.222656,0.890625 -0.339844,1.0195313 -0.234375,0.2460937 -0.421875,0.2578125 -0.902344,0.2929687 -0.152343,0.011719 -0.222656,0.023437 -0.222656,0.1171875 0,0.1171875 0.07031,0.1171875 0.210938,0.1171875 z m 3.331055,-1.8164062 c 0.105469,0.035156 0.421875,0.1054687 0.761719,0.1054687 0.996093,0 1.59375,-0.6914062 1.59375,-0.8203125 0,-0.082031 -0.04687,-0.1054687 -0.09375,-0.1054687 -0.01172,0 -0.02344,0 -0.105469,0.035156 -0.304688,0.1171875 -0.667969,0.2226563 -1.101563,0.2226563 -0.46875,0 -0.855468,-0.1289063 -1.113281,-0.2226563 -0.07031,-0.035156 -0.09375,-0.035156 -0.09375,-0.035156 -0.105469,0 -0.105469,0.082031 -0.105469,0.234375 v 2.3320312 c 0,0.140625 0,0.234375 0.128907,0.234375 0.05859,0 0.08203,-0.035156 0.128906,-0.09375 0.09375,-0.1171875 0.398437,-0.5273437 1.066406,-0.5273437 0.445313,0 0.667969,0.3632812 0.738281,0.515625 0.128907,0.2929687 0.152344,0.65625 0.152344,0.9726562 0,0.2929688 -0.01172,0.71484375 -0.234375,1.06640625 -0.152344,0.24609375 -0.46875,0.4921875 -0.890625,0.4921875 -0.515625,0 -1.03125,-0.328125 -1.207031,-0.84375 0.02344,0 0.07031,0 0.07031,0 0.222657,0 0.398438,-0.14062495 0.398438,-0.38671875 0,-0.2929687 -0.222656,-0.3984375 -0.386719,-0.3984375 -0.140625,0 -0.398437,0.082031 -0.398437,0.421875 0,0.71484375 0.621093,1.44140625 1.535156,1.44140625 0.996094,0 1.839844,-0.7734375 1.839844,-1.75781245 0,-0.9257813 -0.667969,-1.7460938 -1.605469,-1.7460938 -0.398438,0 -0.773438,0.1289063 -1.078125,0.3984375 z m 0,0"
         style="fill:#000000;fill-opacity:1;fill-rule:nonzero;stroke:none" />
    </g>
    <path
       id="path37"
       d="m -3.27438,-98.12431 c -8.67034,32.35814 -8.67034,53.54458 -0.2578,84.9404"
       style="fill:none;stroke:#000000;stroke-width:0.3985;stroke-linecap:butt;stroke-linejoin:miter;stroke-miterlimit:10;stroke-dasharray:none;stroke-opacity:1"
       transform="matrix(1.3333333,0,0,-1.3333333,64.670667,22.806667)" />
    <path
       id="path38"
       d="m 0.797,0 c -0.99625,0.19925 -1.99251,0.59775 -3.18802,1.29512 1.19551,-0.89662 1.19551,-1.69362 0,-2.59024 C -1.19551,-0.59775 -0.19925,-0.19925 0.797,0 Z"
       style="fill:#000000;fill-opacity:1;fill-rule:nonzero;stroke:#000000;stroke-width:0.3985;stroke-linecap:butt;stroke-linejoin:round;stroke-miterlimit:10;stroke-dasharray:none;stroke-opacity:1"
       transform="matrix(0.34505333,-1.2879067,-1.2879067,-0.34505333,59.961067,40.385213)" />
    <g
       id="g38"
       aria-label="0.196"
       transform="matrix(1.3333333,0,0,1.3333333,24.321333,99.793333)">
      <path
         id="path39"
         d="m 3.9015781,-2.5432422 c 0,-0.8554687 -0.09375,-1.3710937 -0.3515625,-1.875 -0.3515625,-0.703125 -0.9960937,-0.8789062 -1.4414062,-0.8789062 -0.9960938,0 -1.37109377,0.75 -1.47656252,0.9726562 -0.29296875,0.5742188 -0.3046875,1.3710938 -0.3046875,1.78125 0,0.5273438 0.0234375,1.3359375 0.41015625,1.96875001 0.36328127,0.5859375 0.94921877,0.73828125 1.37109377,0.73828125 0.3867187,0 1.0664062,-0.1171875 1.4648437,-0.90234375 0.2929688,-0.57421871 0.328125,-1.28906251 0.328125,-1.80468751 z m -1.7929687,2.48437501 c -0.2695313,0 -0.8203125,-0.12890625 -0.984375,-0.96093751 -0.09375,-0.4570312 -0.09375,-1.2070312 -0.09375,-1.6171875 0,-0.5507812 0,-1.1132812 0.09375,-1.546875 0.1640625,-0.8085937 0.7851562,-0.890625 0.984375,-0.890625 0.2695312,0 0.8203125,0.1289063 0.984375,0.8554688 0.09375,0.4453125 0.09375,1.0429687 0.09375,1.5820312 0,0.46875 0,1.1835938 -0.09375,1.6289063 -0.1640625,0.84374996 -0.7148438,0.94921871 -0.984375,0.94921871 z m 0,0"
         style="fill:#000000;fill-opacity:1;fill-rule:nonzero;stroke:none" />
      <path
         id="path40"
         d="m 5.8498203,-0.43386719 c 0,-0.28125 -0.2226562,-0.4453125 -0.4335937,-0.4453125 -0.2578125,0 -0.4453125,0.19921875 -0.4453125,0.43359375 0,0.26953125 0.2226562,0.4453125025 0.4335937,0.4453125025 0.2578125,0 0.4453125,-0.2109375025 0.4453125,-0.4335937525 z m 0,0"
         style="fill:#000000;fill-opacity:1;fill-rule:nonzero;stroke:none" />
      <path
         id="path41"
         d="m 9.0959141,-5.0744922 c 0,-0.2226562 -0.023437,-0.2226562 -0.234375,-0.2226562 -0.328125,0.3164062 -0.75,0.5039062 -1.5117188,0.5039062 v 0.2695313 c 0.2226563,0 0.6445313,0 1.1132813,-0.2226563 v 4.08984376 c 0,0.29296875 -0.023437,0.3984375 -0.7851563,0.3984375 h -0.28125 V -2.734375e-4 C 7.7248203,-0.02371094 8.4162266,-0.02371094 8.7677891,-0.02371094 c 0.3632812,0 1.0546875,0 1.3828129,0.0234375025 V -0.25808594 H 9.8693516 c -0.75,0 -0.7734375,-0.10546875 -0.7734375,-0.3984375 z m 4.8544919,2.71875 c 0,1.94531251 -0.925781,2.28515626 -1.394531,2.28515626 -0.164062,0 -0.574219,-0.0234375 -0.796875,-0.26953125 0.351563,-0.0351563 0.375,-0.29296875 0.375,-0.375 0,-0.24609375 -0.175781,-0.37500001 -0.375,-0.37500001 -0.140625,0 -0.375,0.082031 -0.375,0.38671876 0,0.5390625 0.445313,0.8671875 1.183594,0.8671875 1.089844,0 2.121094,-1.078125 2.121094,-2.78906246 0,-2.0742188 -0.914063,-2.671875 -1.734375,-2.671875 -0.9375,0 -1.78125,0.7265625 -1.78125,1.7695312 0,1.03125 0.773437,1.78125 1.675781,1.78125 0.5625,0 0.902344,-0.3632812 1.101562,-0.7617187 z m -1.078125,0.3867188 c -0.363281,0 -0.597656,-0.1640625 -0.773437,-0.4570313 -0.175781,-0.3046875 -0.175781,-0.6796875 -0.175781,-1.0898437 0,-0.46875 0,-0.8085938 0.210937,-1.125 0.199219,-0.2929688 0.457031,-0.4570313 0.832031,-0.4570313 0.527344,0 0.761719,0.5273438 0.785157,0.5742188 0.175781,0.3867187 0.175781,1.0078125 0.175781,1.171875 0,0.6210937 -0.339844,1.3828125 -1.054688,1.3828125 z m 3.28418,-0.6679688 c 0,-0.6679687 0.05859,-1.2421875 0.339844,-1.734375 0.234375,-0.3984375 0.644531,-0.7265625 1.148437,-0.7265625 0.164063,0 0.527344,0.035156 0.714844,0.3046875 -0.363281,0.023437 -0.398438,0.2929688 -0.398438,0.375 0,0.2460938 0.1875,0.375 0.375,0.375 0.140625,0 0.375,-0.082031 0.375,-0.3867187 0,-0.4804688 -0.351562,-0.8671875 -1.078125,-0.8671875 -1.101562,0 -2.226562,1.0546875 -2.226562,2.765625 0,2.16796871 1.007812,2.69531246 1.78125,2.69531246 0.375,0 0.796875,-0.10546875 1.148437,-0.4453125 0.316407,-0.3046875 0.585938,-0.64453125 0.585938,-1.33593746 0,-1.0429688 -0.785156,-1.78125 -1.664063,-1.78125 -0.574218,0 -0.925781,0.375 -1.101562,0.7617187 z m 1.03125,2.56640626 c -0.421875,0 -0.691406,-0.29296875 -0.808594,-0.515625 -0.1875,-0.36328125 -0.199219,-0.90234376 -0.199219,-1.20703126 0,-0.7851562 0.433594,-1.3828125 1.042969,-1.3828125 0.398438,0 0.632813,0.2109375 0.785156,0.4921875 0.175782,0.2929688 0.175782,0.65625 0.175782,1.0546875 0,0.4101563 0,0.76171876 -0.164063,1.04296876 -0.210937,0.375 -0.492187,0.515625 -0.832031,0.515625 z m 0,0"
         style="fill:#000000;fill-opacity:1;fill-rule:nonzero;stroke:none" />
    </g>
    <path
       id="path42"
       d="m 6.32616,-99.38849 c 25.76507,44.62641 48.43592,67.29726 92.19955,92.56423"
       style="fill:none;stroke:#000000;stroke-width:0.3985;stroke-linecap:butt;stroke-linejoin:miter;stroke-miterlimit:10;stroke-dasharray:none;stroke-opacity:1"
       transform="matrix(1.3333333,0,0,-1.3333333,64.670667,22.806667)" />
    <path
       id="path43"
       d="m 0.797,0 c -0.99625,0.19925 -1.99251,0.59775 -3.18802,1.29512 1.19551,-0.89662 1.19551,-1.69362 0,-2.59024 C -1.19551,-0.59775 -0.19925,-0.19925 0.797,0 Z"
       style="fill:#000000;fill-opacity:1;fill-rule:nonzero;stroke:#000000;stroke-width:0.3985;stroke-linecap:butt;stroke-linejoin:round;stroke-miterlimit:10;stroke-dasharray:none;stroke-opacity:1"
       transform="matrix(1.15468,-0.66664,-0.66664,-1.15468,196.03828,31.905707)" />
    <g
       id="g43"
       aria-label="0.282"
       transform="matrix(1.3333333,0,0,1.3333333,98.402667,82.257333)">
      <path
         id="path44"
         d="m 3.9021016,-2.5426094 c 0,-0.8554687 -0.09375,-1.3710937 -0.3515625,-1.875 -0.3515625,-0.703125 -0.9960938,-0.8789062 -1.4414063,-0.8789062 -0.9960937,0 -1.37109374,0.75 -1.47656249,0.9726562 -0.29296875,0.5742188 -0.3046875,1.3710938 -0.3046875,1.78125 0,0.5273438 0.0234375,1.3359375 0.41015625,1.96875003 0.36328124,0.5859375 0.94921874,0.73828125 1.37109374,0.73828125 0.3867188,0 1.0664063,-0.1171875 1.4648438,-0.90234375 0.2929687,-0.57421873 0.328125,-1.28906253 0.328125,-1.80468753 z m -1.7929688,2.48437503 c -0.2695312,0 -0.8203125,-0.12890625 -0.984375,-0.96093753 -0.09375,-0.4570312 -0.09375,-1.2070312 -0.09375,-1.6171875 0,-0.5507812 0,-1.1132812 0.09375,-1.546875 0.1640625,-0.8085937 0.7851563,-0.890625 0.984375,-0.890625 0.2695313,0 0.8203125,0.1289063 0.984375,0.8554688 0.09375,0.4453125 0.09375,1.0429687 0.09375,1.5820312 0,0.46875 0,1.1835938 -0.09375,1.6289063 -0.1640625,0.84374998 -0.7148437,0.94921873 -0.984375,0.94921873 z m 0,0"
         style="fill:#000000;fill-opacity:1;fill-rule:nonzero;stroke:none" />
      <path
         id="path45"
         d="m 5.8503438,-0.43323437 c 0,-0.28125 -0.2226563,-0.4453125 -0.4335938,-0.4453125 -0.2578125,0 -0.4453125,0.19921875 -0.4453125,0.43359375 0,0.26953125 0.2226563,0.445312495 0.4335938,0.445312495 0.2578125,0 0.4453125,-0.210937495 0.4453125,-0.433593745 z m 0,0"
         style="fill:#000000;fill-opacity:1;fill-rule:nonzero;stroke:none" />
      <path
         id="path46"
         d="m 8.8356953,-1.6285469 c 0.1289063,-0.1171875 0.4570313,-0.375 0.5859375,-0.4921875 0.4921875,-0.4570312 0.9609372,-0.890625 0.9609372,-1.6171875 0,-0.9492187 -0.7968747,-1.5585937 -1.7929684,-1.5585937 -0.9492188,0 -1.5820313,0.7265625 -1.5820313,1.4296875 0,0.3984375 0.3164063,0.4453125 0.421875,0.4453125 0.1640625,0 0.4101563,-0.1171875 0.4101563,-0.421875 0,-0.4101563 -0.3984375,-0.4101563 -0.4921875,-0.4101563 0.234375,-0.5859375 0.7734375,-0.7851562 1.1601562,-0.7851562 0.7382813,0 1.125,0.6328125 1.125,1.3007812 0,0.8320313 -0.5859375,1.4296875 -1.5234375,2.4023438 l -1.0078125,1.03124998 c -0.09375,0.09375 -0.09375,0.10546875 -0.09375,0.304687495 H 10.159914 L 10.38257,-1.4293281 h -0.246093 c -0.02344,0.1640625 -0.08203,0.56249998 -0.1757817,0.71484373 -0.046875,0.0585938 -0.65625,0.0585938 -0.7851562,0.0585938 H 7.7575703 Z m 4.6318357,-1.2421875 c 0.445313,-0.2226562 0.984375,-0.6210937 0.984375,-1.2421875 0,-0.75 -0.773437,-1.1835937 -1.511718,-1.1835937 -0.84375,0 -1.535157,0.5742187 -1.535157,1.3242187 0,0.3046875 0.105469,0.5742188 0.304688,0.796875 0.140625,0.1757813 0.164062,0.1875 0.667969,0.5039063 -0.996094,0.4335937 -1.207032,1.0195312 -1.207032,1.4648437 0,0.86718753 0.878907,1.37109378 1.757813,1.37109378 0.972656,0 1.757812,-0.65625 1.757812,-1.49999998 0,-0.5039063 -0.269531,-0.84375 -0.398437,-0.9726563 -0.128906,-0.1289062 -0.140625,-0.140625 -0.820313,-0.5625 z m -1.242187,-0.75 c -0.222656,-0.140625 -0.421875,-0.375 -0.421875,-0.6445312 0,-0.5039063 0.550781,-0.8320313 1.125,-0.8320313 0.621094,0 1.125,0.4335938 1.125,0.984375 0,0.46875 -0.363281,0.8554688 -0.832031,1.0898438 z m 0.398437,1.0898438 c 0.02344,0.011719 0.9375,0.5742187 1.066407,0.65625 0.128906,0.070312 0.550781,0.328125 0.550781,0.8085937 0,0.60937503 -0.644531,0.99609378 -1.300781,0.99609378 -0.714844,0 -1.3125,-0.4921875 -1.3125,-1.13671878 0,-0.5976562 0.445312,-1.0664062 0.996093,-1.3242187 z m 4.681641,0.9023437 c 0.128906,-0.1171875 0.457031,-0.375 0.585937,-0.4921875 0.492188,-0.4570312 0.960938,-0.890625 0.960938,-1.6171875 0,-0.9492187 -0.796875,-1.5585937 -1.792969,-1.5585937 -0.949219,0 -1.582031,0.7265625 -1.582031,1.4296875 0,0.3984375 0.316406,0.4453125 0.421875,0.4453125 0.164062,0 0.410156,-0.1171875 0.410156,-0.421875 0,-0.4101563 -0.398437,-0.4101563 -0.492187,-0.4101563 0.234375,-0.5859375 0.773437,-0.7851562 1.160156,-0.7851562 0.738281,0 1.125,0.6328125 1.125,1.3007812 0,0.8320313 -0.585938,1.4296875 -1.523438,2.4023438 l -1.007812,1.03124998 c -0.09375,0.09375 -0.09375,0.10546875 -0.09375,0.304687495 h 3.152344 L 18.852297,-1.4293281 h -0.246094 c -0.02344,0.1640625 -0.08203,0.56249998 -0.175781,0.71484373 -0.04687,0.0585938 -0.65625,0.0585938 -0.785156,0.0585938 h -1.417969 z m 0,0"
         style="fill:#000000;fill-opacity:1;fill-rule:nonzero;stroke:none" />
    </g>
    <path
       id="path47"
       d="m -12.22159,-113.6203 c -19.73405,-5.28777 -19.73405,11.83655 -1.92465,7.0644"
       style="fill:none;stroke:#000000;stroke-width:0.3985;stroke-linecap:butt;stroke-linejoin:miter;stroke-miterlimit:10;stroke-dasharray:none;stroke-opacity:1"
       transform="matrix(1.3333333,0,0,-1.3333333,64.670667,22.806667)" />
    <path
       id="path48"
       d="m 0.797,0 c -0.99625,0.19925 -1.99251,0.59775 -3.18802,1.29512 1.19551,-0.89662 1.19551,-1.69362 0,-2.59024 C -1.19551,-0.59775 -0.19925,-0.19925 0.797,0 Z"
       style="fill:#000000;fill-opacity:1;fill-rule:nonzero;stroke:#000000;stroke-width:0.3985;stroke-linecap:butt;stroke-linejoin:round;stroke-miterlimit:10;stroke-dasharray:none;stroke-opacity:1"
       transform="matrix(1.2879067,0.34505333,0.34505333,-1.2879067,45.809013,164.88117)" />
    <g
       id="g48"
       aria-label="0.522"
       transform="matrix(1.3333333,0,0,1.3333333,1.328,173.35733)">
      <path
         id="path49"
         d="m 3.9024375,-2.5443672 c 0,-0.8554687 -0.09375,-1.3710937 -0.3515625,-1.875 -0.3515625,-0.703125 -0.9960938,-0.8789062 -1.4414063,-0.8789062 -0.9960937,0 -1.3710937,0.75 -1.47656245,0.9726562 -0.29296875,0.5742188 -0.3046875,1.3710938 -0.3046875,1.78125 0,0.5273438 0.0234375,1.3359375 0.41015625,1.96875001 0.3632812,0.5859375 0.9492187,0.73828125 1.3710937,0.73828125 0.3867188,0 1.0664063,-0.1171875 1.4648438,-0.90234375 0.2929687,-0.57421871 0.328125,-1.28906251 0.328125,-1.80468751 z m -1.7929688,2.48437501 c -0.2695312,0 -0.8203125,-0.12890625 -0.984375,-0.96093751 -0.09375,-0.4570312 -0.09375,-1.2070312 -0.09375,-1.6171875 0,-0.5507812 0,-1.1132812 0.09375,-1.546875 0.1640625,-0.8085937 0.7851563,-0.890625 0.984375,-0.890625 0.2695313,0 0.8203125,0.1289063 0.984375,0.8554688 0.09375,0.4453125 0.09375,1.0429687 0.09375,1.5820312 0,0.46875 0,1.1835938 -0.09375,1.6289063 C 2.9297812,-0.16546094 2.379,-0.05999219 2.1094687,-0.05999219 Z m 0,0"
         style="fill:#000000;fill-opacity:1;fill-rule:nonzero;stroke:none" />
      <path
         id="path50"
         d="m 5.8506797,-0.43499219 c 0,-0.28125 -0.2226563,-0.4453125 -0.4335938,-0.4453125 -0.2578125,0 -0.4453125,0.19921875 -0.4453125,0.43359375 0,0.26953125 0.2226563,0.4453125 0.4335938,0.4453125 0.2578125,0 0.4453125,-0.2109375 0.4453125,-0.43359375 z m 0,0"
         style="fill:#000000;fill-opacity:1;fill-rule:nonzero;stroke:none" />
      <path
         id="path51"
         d="m 7.6993125,-4.4779609 c 0.1054687,0.035156 0.421875,0.1054687 0.7617187,0.1054687 0.9960938,0 1.5937498,-0.6914062 1.5937498,-0.8203125 0,-0.082031 -0.04687,-0.1054687 -0.09375,-0.1054687 -0.011719,0 -0.023437,0 -0.1054687,0.035156 C 9.550875,-5.1459297 9.1875937,-5.0404609 8.754,-5.0404609 c -0.46875,0 -0.8554688,-0.1289063 -1.1132813,-0.2226563 -0.070312,-0.035156 -0.09375,-0.035156 -0.09375,-0.035156 -0.1054687,0 -0.1054687,0.082031 -0.1054687,0.234375 v 2.3320312 c 0,0.140625 0,0.234375 0.1289062,0.234375 0.058594,0 0.082031,-0.035156 0.1289063,-0.09375 0.09375,-0.1171875 0.3984375,-0.5273437 1.0664062,-0.5273437 0.4453125,0 0.6679688,0.3632812 0.7382813,0.515625 0.1289062,0.2929687 0.1523437,0.65625 0.1523437,0.9726562 0,0.2929688 -0.011719,0.71484376 -0.234375,1.06640626 -0.1523437,0.24609375 -0.46875,0.4921875 -0.890625,0.4921875 -0.515625,0 -1.03125,-0.328125 -1.2070312,-0.84375 0.023437,0 0.070312,0 0.070312,0 0.2226562,0 0.3984375,-0.14062496 0.3984375,-0.38671876 0,-0.2929687 -0.2226563,-0.3984375 -0.3867188,-0.3984375 -0.140625,0 -0.3984375,0.082031 -0.3984375,0.421875 0,0.71484376 0.6210938,1.44140626 1.5351563,1.44140626 0.9960937,0 1.839844,-0.7734375 1.839844,-1.75781246 0,-0.9257813 -0.667969,-1.7460938 -1.605469,-1.7460938 -0.3984375,0 -0.7734375,0.1289063 -1.078125,0.3984375 z m 5.3730465,2.8476562 c 0.128907,-0.1171875 0.457032,-0.375 0.585938,-0.4921875 0.492187,-0.4570312 0.960937,-0.890625 0.960937,-1.6171875 0,-0.9492187 -0.796875,-1.5585937 -1.792968,-1.5585937 -0.949219,0 -1.582032,0.7265625 -1.582032,1.4296875 0,0.3984375 0.316407,0.4453125 0.421875,0.4453125 0.164063,0 0.410157,-0.1171875 0.410157,-0.421875 0,-0.4101563 -0.398438,-0.4101563 -0.492188,-0.4101563 0.234375,-0.5859375 0.773438,-0.7851562 1.160156,-0.7851562 0.738282,0 1.125,0.6328125 1.125,1.3007812 0,0.8320313 -0.585937,1.4296875 -1.523437,2.4023438 l -1.007813,1.03124996 c -0.09375,0.09375 -0.09375,0.10546875 -0.09375,0.3046875 h 3.152344 l 0.222656,-1.42968746 h -0.246093 c -0.02344,0.1640625 -0.08203,0.56249996 -0.175782,0.71484371 -0.04687,0.0585938 -0.65625,0.0585938 -0.785156,0.0585938 h -1.417969 z m 4.233399,0 c 0.128906,-0.1171875 0.457031,-0.375 0.585937,-0.4921875 0.492188,-0.4570312 0.960938,-0.890625 0.960938,-1.6171875 0,-0.9492187 -0.796875,-1.5585937 -1.792969,-1.5585937 -0.949219,0 -1.582031,0.7265625 -1.582031,1.4296875 0,0.3984375 0.316406,0.4453125 0.421875,0.4453125 0.164062,0 0.410156,-0.1171875 0.410156,-0.421875 0,-0.4101563 -0.398437,-0.4101563 -0.492187,-0.4101563 0.234375,-0.5859375 0.773437,-0.7851562 1.160156,-0.7851562 0.738281,0 1.125,0.6328125 1.125,1.3007812 0,0.8320313 -0.585938,1.4296875 -1.523438,2.4023438 l -1.007812,1.03124996 c -0.09375,0.09375 -0.09375,0.10546875 -0.09375,0.3046875 h 3.152344 l 0.222656,-1.42968746 h -0.246094 c -0.02344,0.1640625 -0.08203,0.56249996 -0.175781,0.71484371 -0.04687,0.0585938 -0.65625,0.0585938 -0.785156,0.0585938 h -1.417969 z m 0,0"
         style="fill:#000000;fill-opacity:1;fill-rule:nonzero;stroke:none" />
    </g>
    <text
       xml:space="preserve"
       style="text-align:start;writing-mode:lr-tb;direction:ltr;text-anchor:start;fill:#000000"
       x="130.96434"
       y="157.89159"
       id="text1"><tspan
         sodipodi:role="line"
         id="tspan1"
         x="130.96434"
         y="157.89159" /></text>
    <text
       xml:space="preserve"
       style="text-align:start;writing-mode:lr-tb;direction:ltr;text-anchor:start;white-space:pre;inline-size:51.5803;fill:#000000"
       x="97.509277"
       y="166.05136"
       id="text2" />
    <text
       xml:space="preserve"
       style="font-style:normal;font-variant:normal;font-weight:500;font-stretch:normal;font-size:9.33333px;font-family:'CMU Serif';-inkscape-font-specification:'CMU Serif, Medium';font-variant-ligatures:normal;font-variant-caps:normal;font-variant-numeric:normal;font-variant-east-asian:normal;text-align:start;writing-mode:lr-tb;direction:ltr;text-anchor:start;white-space:pre;inline-size:36.0767;fill:#000000"
       x="86.493584"
       y="177.47504"
       id="text4"><tspan
         x="86.493584"
         y="177.47504"
         id="tspan2"> </tspan></text>
    <text
       xml:space="preserve"
       style="font-style:normal;font-variant:normal;font-weight:500;font-stretch:normal;font-size:9.33333px;font-family:'CMU Serif';-inkscape-font-specification:'CMU Serif, Medium';font-variant-ligatures:normal;font-variant-caps:normal;font-variant-numeric:normal;font-variant-east-asian:normal;text-align:start;writing-mode:lr-tb;direction:ltr;text-anchor:start;white-space:pre;inline-size:54.0921;fill:#000000"
       x="212.56206"
       y="55.48645"
       id="text5"><tspan
         x="212.56206"
         y="55.48645"
         id="tspan3">Medium </tspan><tspan
         x="212.56206"
         y="67.153114"
         id="tspan4">rainfall</tspan></text>
    <text
       xml:space="preserve"
       id="text6"
       style="fill:#000000;text-orientation:auto;text-align:start;writing-mode:lr-tb;direction:ltr;-inkscape-font-specification:'CMU Serif, Medium';font-family:'CMU Serif';font-weight:500;font-style:normal;font-stretch:normal;font-variant:normal;font-size:9.33333333px;font-variant-ligatures:normal;font-variant-caps:normal;font-variant-numeric:normal;font-variant-east-asian:normal;white-space:pre;shape-inside:url(#rect6)" />
    <text
       xml:space="preserve"
       style="font-style:normal;font-variant:normal;font-weight:500;font-stretch:normal;font-size:9.33333px;font-family:'CMU Serif';-inkscape-font-specification:'CMU Serif, Medium';font-variant-ligatures:normal;font-variant-caps:normal;font-variant-numeric:normal;font-variant-east-asian:normal;text-align:start;writing-mode:lr-tb;direction:ltr;text-anchor:start;white-space:pre;inline-size:38.5247;fill:#000000"
       x="90.981461"
       y="170.53923"
       id="text7"><tspan
         x="90.981461"
         y="170.53923"
         id="tspan5">Low </tspan><tspan
         x="90.981461"
         y="182.20589"
         id="tspan6">rainfall</tspan></text>
    <text
       xml:space="preserve"
       style="font-style:normal;font-variant:normal;font-weight:500;font-stretch:normal;font-size:9.33333px;font-family:'CMU Serif';-inkscape-font-specification:'CMU Serif, Medium';font-variant-ligatures:normal;font-variant-caps:normal;font-variant-numeric:normal;font-variant-east-asian:normal;text-align:start;writing-mode:lr-tb;direction:ltr;text-anchor:start;white-space:pre;inline-size:32.8167;fill:#000000"
       x="14.68759"
       y="42.838802"
       id="text8"><tspan
         x="14.68759"
         y="42.838802"
         id="tspan7">High </tspan><tspan
         x="14.68759"
         y="54.505462"
         id="tspan9">rainfall</tspan></text>
  </g>
</svg>
